<?xml version="1.0" encoding="utf-8" standalone="no"?>
<!DOCTYPE svg PUBLIC "-//W3C//DTD SVG 1.1//EN"
  "http://www.w3.org/Graphics/SVG/1.1/DTD/svg11.dtd">
<svg xmlns:xlink="http://www.w3.org/1999/xlink" width="720pt" height="360pt" viewBox="0 0 720 360" xmlns="http://www.w3.org/2000/svg" version="1.1">
 <metadata>
  <rdf:RDF xmlns:dc="http://purl.org/dc/elements/1.1/" xmlns:cc="http://creativecommons.org/ns#" xmlns:rdf="http://www.w3.org/1999/02/22-rdf-syntax-ns#">
   <cc:Work>
    <dc:type rdf:resource="http://purl.org/dc/dcmitype/StillImage"/>
    <dc:date>2025-03-13T17:03:53.313400</dc:date>
    <dc:format>image/svg+xml</dc:format>
    <dc:creator>
     <cc:Agent>
      <dc:title>Matplotlib v3.10.1, https://matplotlib.org/</dc:title>
     </cc:Agent>
    </dc:creator>
   </cc:Work>
  </rdf:RDF>
 </metadata>
 <defs>
  <style type="text/css">*{stroke-linejoin: round; stroke-linecap: butt}</style>
 </defs>
 <g id="figure_1">
  <g id="patch_1">
   <path d="M 0 360 
L 720 360 
L 720 0 
L 0 0 
z
" style="fill: #ffffff"/>
  </g>
  <g id="axes_1">
   <g id="patch_2">
    <path d="M 90 320.4 
L 648 320.4 
L 648 43.2 
L 90 43.2 
z
" style="fill: #ffffff"/>
   </g>
   <g id="PathCollection_1">
    <path d="M 622.636364 122.549929 
C 624.910007 122.549929 627.090833 121.646601 628.698541 120.038892 
C 630.30625 118.431184 631.209578 116.250357 631.209578 113.976715 
C 631.209578 111.703072 630.30625 109.522245 628.698541 107.914537 
C 627.090833 106.306828 624.910007 105.4035 622.636364 105.4035 
C 620.362721 105.4035 618.181894 106.306828 616.574186 107.914537 
C 614.966477 109.522245 614.06315 111.703072 614.06315 113.976715 
C 614.06315 116.250357 614.966477 118.431184 616.574186 120.038892 
C 618.181894 121.646601 620.362721 122.549929 622.636364 122.549929 
z
" clip-path="url(#p36579e46c1)" style="fill: #0000ff; fill-opacity: 0.7; stroke: #000000; stroke-opacity: 0.7"/>
    <path d="M 536.048171 171.704213 
C 538.298493 171.704213 540.456952 170.81015 542.048171 169.218931 
C 543.639389 167.627713 544.533452 165.469254 544.533452 163.218931 
C 544.533452 160.968608 543.639389 158.81015 542.048171 157.218931 
C 540.456952 155.627713 538.298493 154.73365 536.048171 154.73365 
C 533.797848 154.73365 531.639389 155.627713 530.048171 157.218931 
C 528.456952 158.81015 527.562889 160.968608 527.562889 163.218931 
C 527.562889 165.469254 528.456952 167.627713 530.048171 169.218931 
C 531.639389 170.81015 533.797848 171.704213 536.048171 171.704213 
z
" clip-path="url(#p36579e46c1)" style="fill: #ff0000; fill-opacity: 0.7; stroke: #000000; stroke-opacity: 0.7"/>
    <path d="M 479.642818 185.270986 
C 481.928032 185.270986 484.119957 184.363061 485.735847 182.747171 
C 487.351737 181.13128 488.259662 178.939355 488.259662 176.654142 
C 488.259662 174.368928 487.351737 172.177003 485.735847 170.561113 
C 484.119957 168.945223 481.928032 168.037298 479.642818 168.037298 
C 477.357605 168.037298 475.16568 168.945223 473.54979 170.561113 
C 471.933899 172.177003 471.025974 174.368928 471.025974 176.654142 
C 471.025974 178.939355 471.933899 181.13128 473.54979 182.747171 
C 475.16568 184.363061 477.357605 185.270986 479.642818 185.270986 
z
" clip-path="url(#p36579e46c1)" style="fill: #0000ff; fill-opacity: 0.7; stroke: #000000; stroke-opacity: 0.7"/>
    <path d="M 475.076418 63.737254 
C 477.181402 63.737254 479.200455 62.900935 480.688904 61.412486 
C 482.177353 59.924037 483.013672 57.904984 483.013672 55.8 
C 483.013672 53.695016 482.177353 51.675963 480.688904 50.187514 
C 479.200455 48.699065 477.181402 47.862746 475.076418 47.862746 
C 472.971434 47.862746 470.952381 48.699065 469.463932 50.187514 
C 467.975483 51.675963 467.139164 53.695016 467.139164 55.8 
C 467.139164 57.904984 467.975483 59.924037 469.463932 61.412486 
C 470.952381 62.900935 472.971434 63.737254 475.076418 63.737254 
z
" clip-path="url(#p36579e46c1)" style="fill: #0000ff; fill-opacity: 0.7; stroke: #000000; stroke-opacity: 0.7"/>
    <path d="M 462.957103 194.629609 
C 465.242317 194.629609 467.434242 193.721684 469.050132 192.105794 
C 470.666022 190.489904 471.573947 188.297979 471.573947 186.012765 
C 471.573947 183.727551 470.666022 181.535626 469.050132 179.919736 
C 467.434242 178.303846 465.242317 177.395921 462.957103 177.395921 
C 460.67189 177.395921 458.479965 178.303846 456.864074 179.919736 
C 455.248184 181.535626 454.340259 183.727551 454.340259 186.012765 
C 454.340259 188.297979 455.248184 190.489904 456.864074 192.105794 
C 458.479965 193.721684 460.67189 194.629609 462.957103 194.629609 
z
" clip-path="url(#p36579e46c1)" style="fill: #0000ff; fill-opacity: 0.7; stroke: #000000; stroke-opacity: 0.7"/>
    <path d="M 460.018316 145.222996 
C 462.291959 145.222996 464.472785 144.319668 466.080494 142.71196 
C 467.688202 141.104252 468.59153 138.923425 468.59153 136.649782 
C 468.59153 134.376139 467.688202 132.195313 466.080494 130.587604 
C 464.472785 128.979896 462.291959 128.076568 460.018316 128.076568 
C 457.744673 128.076568 455.563847 128.979896 453.956138 130.587604 
C 452.34843 132.195313 451.445102 134.376139 451.445102 136.649782 
C 451.445102 138.923425 452.34843 141.104252 453.956138 142.71196 
C 455.563847 144.319668 457.744673 145.222996 460.018316 145.222996 
z
" clip-path="url(#p36579e46c1)" style="fill: #0000ff; fill-opacity: 0.7; stroke: #000000; stroke-opacity: 0.7"/>
    <path d="M 458.026637 123.983716 
C 460.28865 123.983716 462.458321 123.085009 464.057806 121.485524 
C 465.65729 119.886039 466.555998 117.716368 466.555998 115.454355 
C 466.555998 113.192342 465.65729 111.022671 464.057806 109.423186 
C 462.458321 107.823701 460.28865 106.924994 458.026637 106.924994 
C 455.764624 106.924994 453.594952 107.823701 451.995468 109.423186 
C 450.395983 111.022671 449.497276 113.192342 449.497276 115.454355 
C 449.497276 117.716368 450.395983 119.886039 451.995468 121.485524 
C 453.594952 123.085009 455.764624 123.983716 458.026637 123.983716 
z
" clip-path="url(#p36579e46c1)" style="fill: #0000ff; fill-opacity: 0.7; stroke: #000000; stroke-opacity: 0.7"/>
    <path d="M 451.019154 208.215279 
C 453.304368 208.215279 455.496293 207.307354 457.112183 205.691463 
C 458.728073 204.075573 459.635998 201.883648 459.635998 199.598435 
C 459.635998 197.313221 458.728073 195.121296 457.112183 193.505406 
C 455.496293 191.889516 453.304368 190.981591 451.019154 190.981591 
C 448.733941 190.981591 446.542016 191.889516 444.926125 193.505406 
C 443.310235 195.121296 442.40231 197.313221 442.40231 199.598435 
C 442.40231 201.883648 443.310235 204.075573 444.926125 205.691463 
C 446.542016 207.307354 448.733941 208.215279 451.019154 208.215279 
z
" clip-path="url(#p36579e46c1)" style="fill: #0000ff; fill-opacity: 0.7; stroke: #000000; stroke-opacity: 0.7"/>
    <path d="M 457.843985 222.010668 
C 460.129199 222.010668 462.321124 221.102743 463.937014 219.486853 
C 465.552904 217.870962 466.460829 215.679037 466.460829 213.393824 
C 466.460829 211.10861 465.552904 208.916685 463.937014 207.300795 
C 462.321124 205.684905 460.129199 204.77698 457.843985 204.77698 
C 455.558772 204.77698 453.366847 205.684905 451.750957 207.300795 
C 450.135067 208.916685 449.227142 211.10861 449.227142 213.393824 
C 449.227142 215.679037 450.135067 217.870962 451.750957 219.486853 
C 453.366847 221.102743 455.558772 222.010668 457.843985 222.010668 
z
" clip-path="url(#p36579e46c1)" style="fill: #0000ff; fill-opacity: 0.7; stroke: #000000; stroke-opacity: 0.7"/>
    <path d="M 294.357716 246.522033 
C 296.642929 246.522033 298.834854 245.614108 300.450744 243.998218 
C 302.066635 242.382328 302.97456 240.190403 302.97456 237.905189 
C 302.97456 235.619976 302.066635 233.428051 300.450744 231.812161 
C 298.834854 230.19627 296.642929 229.288345 294.357716 229.288345 
C 292.072502 229.288345 289.880577 230.19627 288.264687 231.812161 
C 286.648797 233.428051 285.740872 235.619976 285.740872 237.905189 
C 285.740872 240.190403 286.648797 242.382328 288.264687 243.998218 
C 289.880577 245.614108 292.072502 246.522033 294.357716 246.522033 
z
" clip-path="url(#p36579e46c1)" style="fill: #0000ff; fill-opacity: 0.7; stroke: #000000; stroke-opacity: 0.7"/>
    <path d="M 243.408352 259.535032 
C 245.681995 259.535032 247.862821 258.631705 249.470529 257.023996 
C 251.078238 255.416288 251.981566 253.235461 251.981566 250.961818 
C 251.981566 248.688175 251.078238 246.507349 249.470529 244.89964 
C 247.862821 243.291932 245.681995 242.388604 243.408352 242.388604 
C 241.134709 242.388604 238.953882 243.291932 237.346174 244.89964 
C 235.738465 246.507349 234.835137 248.688175 234.835137 250.961818 
C 234.835137 253.235461 235.738465 255.416288 237.346174 257.023996 
C 238.953882 258.631705 241.134709 259.535032 243.408352 259.535032 
z
" clip-path="url(#p36579e46c1)" style="fill: #0000ff; fill-opacity: 0.7; stroke: #000000; stroke-opacity: 0.7"/>
    <path d="M 241.576882 221.923185 
C 243.838895 221.923185 246.008567 221.024477 247.608051 219.424993 
C 249.207536 217.825508 250.106244 215.655837 250.106244 213.393824 
C 250.106244 211.131811 249.207536 208.962139 247.608051 207.362655 
C 246.008567 205.76317 243.838895 204.864463 241.576882 204.864463 
C 239.314869 204.864463 237.145198 205.76317 235.545713 207.362655 
C 233.946229 208.962139 233.047521 211.131811 233.047521 213.393824 
C 233.047521 215.655837 233.946229 217.825508 235.545713 219.424993 
C 237.145198 221.024477 239.314869 221.923185 241.576882 221.923185 
z
" clip-path="url(#p36579e46c1)" style="fill: #0000ff; fill-opacity: 0.7; stroke: #000000; stroke-opacity: 0.7"/>
    <path d="M 232.861061 211.077839 
C 235.099633 211.077839 237.24682 210.188445 238.82973 208.605536 
C 240.412639 207.022626 241.302033 204.875439 241.302033 202.636868 
C 241.302033 200.398296 240.412639 198.251109 238.82973 196.668199 
C 237.24682 195.08529 235.099633 194.195896 232.861061 194.195896 
C 230.62249 194.195896 228.475302 195.08529 226.892393 196.668199 
C 225.309484 198.251109 224.42009 200.398296 224.42009 202.636868 
C 224.42009 204.875439 225.309484 207.022626 226.892393 208.605536 
C 228.475302 210.188445 230.62249 211.077839 232.861061 211.077839 
z
" clip-path="url(#p36579e46c1)" style="fill: #0000ff; fill-opacity: 0.7; stroke: #000000; stroke-opacity: 0.7"/>
    <path d="M 239.249008 140.866095 
C 241.403528 140.866095 243.470095 140.010095 244.993571 138.48662 
C 246.517046 136.963144 247.373046 134.896577 247.373046 132.742057 
C 247.373046 130.587537 246.517046 128.52097 244.993571 126.997494 
C 243.470095 125.474018 241.403528 124.618019 239.249008 124.618019 
C 237.094488 124.618019 235.027921 125.474018 233.504445 126.997494 
C 231.98097 128.52097 231.12497 130.587537 231.12497 132.742057 
C 231.12497 134.896577 231.98097 136.963144 233.504445 138.48662 
C 235.027921 140.010095 237.094488 140.866095 239.249008 140.866095 
z
" clip-path="url(#p36579e46c1)" style="fill: #0000ff; fill-opacity: 0.7; stroke: #000000; stroke-opacity: 0.7"/>
    <path d="M 268.347749 271.417061 
C 270.644476 271.417061 272.847443 270.504562 274.471474 268.880531 
C 276.095504 267.2565 277.008003 265.053533 277.008003 262.756807 
C 277.008003 260.46008 276.095504 258.257113 274.471474 256.633082 
C 272.847443 255.009052 270.644476 254.096553 268.347749 254.096553 
C 266.051023 254.096553 263.848056 255.009052 262.224025 256.633082 
C 260.599994 258.257113 259.687495 260.46008 259.687495 262.756807 
C 259.687495 265.053533 260.599994 267.2565 262.224025 268.880531 
C 263.848056 270.504562 266.051023 271.417061 268.347749 271.417061 
z
" clip-path="url(#p36579e46c1)" style="fill: #0000ff; fill-opacity: 0.7; stroke: #000000; stroke-opacity: 0.7"/>
    <path d="M 190.039046 316.373214 
C 192.312689 316.373214 194.493515 315.469886 196.101224 313.862178 
C 197.708932 312.254469 198.61226 310.073643 198.61226 307.8 
C 198.61226 305.526357 197.708932 303.345531 196.101224 301.737822 
C 194.493515 300.130114 192.312689 299.226786 190.039046 299.226786 
C 187.765403 299.226786 185.584576 300.130114 183.976868 301.737822 
C 182.36916 303.345531 181.465832 305.526357 181.465832 307.8 
C 181.465832 310.073643 182.36916 312.254469 183.976868 313.862178 
C 185.584576 315.469886 187.765403 316.373214 190.039046 316.373214 
z
" clip-path="url(#p36579e46c1)" style="fill: #0000ff; fill-opacity: 0.7; stroke: #000000; stroke-opacity: 0.7"/>
    <path d="M 177.959856 198.710887 
C 180.150793 198.710887 182.252291 197.840418 183.801517 196.291192 
C 185.350744 194.741965 186.221212 192.640468 186.221212 190.449531 
C 186.221212 188.258594 185.350744 186.157097 183.801517 184.60787 
C 182.252291 183.058644 180.150793 182.188175 177.959856 182.188175 
C 175.768919 182.188175 173.667422 183.058644 172.118196 184.60787 
C 170.568969 186.157097 169.6985 188.258594 169.6985 190.449531 
C 169.6985 192.640468 170.568969 194.741965 172.118196 196.291192 
C 173.667422 197.840418 175.768919 198.710887 177.959856 198.710887 
z
" clip-path="url(#p36579e46c1)" style="fill: #0000ff; fill-opacity: 0.7; stroke: #000000; stroke-opacity: 0.7"/>
    <path d="M 158.890351 231.115942 
C 161.163994 231.115942 163.344821 230.212614 164.952529 228.604905 
C 166.560237 226.997197 167.463565 224.81637 167.463565 222.542727 
C 167.463565 220.269085 166.560237 218.088258 164.952529 216.48055 
C 163.344821 214.872841 161.163994 213.969513 158.890351 213.969513 
C 156.616708 213.969513 154.435882 214.872841 152.828173 216.48055 
C 151.220465 218.088258 150.317137 220.269085 150.317137 222.542727 
C 150.317137 224.81637 151.220465 226.997197 152.828173 228.604905 
C 154.435882 230.212614 156.616708 231.115942 158.890351 231.115942 
z
" clip-path="url(#p36579e46c1)" style="fill: #0000ff; fill-opacity: 0.7; stroke: #000000; stroke-opacity: 0.7"/>
    <path d="M 148.62301 254.705918 
C 150.896653 254.705918 153.077479 253.80259 154.685188 252.194882 
C 156.292896 250.587174 157.196224 248.406347 157.196224 246.132704 
C 157.196224 243.859061 156.292896 241.678235 154.685188 240.070526 
C 153.077479 238.462818 150.896653 237.55949 148.62301 237.55949 
C 146.349367 237.55949 144.16854 238.462818 142.560832 240.070526 
C 140.953124 241.678235 140.049796 243.859061 140.049796 246.132704 
C 140.049796 248.406347 140.953124 250.587174 142.560832 252.194882 
C 144.16854 253.80259 146.349367 254.705918 148.62301 254.705918 
z
" clip-path="url(#p36579e46c1)" style="fill: #0000ff; fill-opacity: 0.7; stroke: #000000; stroke-opacity: 0.7"/>
    <path d="M 115.363636 250.386129 
C 117.637279 250.386129 119.818106 249.482801 121.425814 247.875092 
C 123.033523 246.267384 123.93685 244.086558 123.93685 241.812915 
C 123.93685 239.539272 123.033523 237.358445 121.425814 235.750737 
C 119.818106 234.143028 117.637279 233.2397 115.363636 233.2397 
C 113.089993 233.2397 110.909167 234.143028 109.301459 235.750737 
C 107.69375 237.358445 106.790422 239.539272 106.790422 241.812915 
C 106.790422 244.086558 107.69375 246.267384 109.301459 247.875092 
C 110.909167 249.482801 113.089993 250.386129 115.363636 250.386129 
z
" clip-path="url(#p36579e46c1)" style="fill: #0000ff; fill-opacity: 0.7; stroke: #000000; stroke-opacity: 0.7"/>
   </g>
   <g id="matplotlib.axis_1">
    <g id="xtick_1">
     <g id="line2d_1">
      <path d="M 231.992335 320.4 
L 231.992335 43.2 
" clip-path="url(#p36579e46c1)" style="fill: none; stroke: #b0b0b0; stroke-width: 0.8; stroke-linecap: square"/>
     </g>
     <g id="line2d_2">
      <defs>
       <path id="m84fdac1a4b" d="M 0 0 
L 0 3.5 
" style="stroke: #000000; stroke-width: 0.8"/>
      </defs>
      <g>
       <use xlink:href="#m84fdac1a4b" x="231.992335" y="320.4" style="stroke: #000000; stroke-width: 0.8"/>
      </g>
     </g>
     <g id="text_1">
      <!-- $\mathdefault{10^{3}}$ -->
      <g transform="translate(223.192335 334.998438) scale(0.1 -0.1)">
       <defs>
        <path id="DejaVuSans-31" d="M 794 531 
L 1825 531 
L 1825 4091 
L 703 3866 
L 703 4441 
L 1819 4666 
L 2450 4666 
L 2450 531 
L 3481 531 
L 3481 0 
L 794 0 
L 794 531 
z
" transform="scale(0.015625)"/>
        <path id="DejaVuSans-30" d="M 2034 4250 
Q 1547 4250 1301 3770 
Q 1056 3291 1056 2328 
Q 1056 1369 1301 889 
Q 1547 409 2034 409 
Q 2525 409 2770 889 
Q 3016 1369 3016 2328 
Q 3016 3291 2770 3770 
Q 2525 4250 2034 4250 
z
M 2034 4750 
Q 2819 4750 3233 4129 
Q 3647 3509 3647 2328 
Q 3647 1150 3233 529 
Q 2819 -91 2034 -91 
Q 1250 -91 836 529 
Q 422 1150 422 2328 
Q 422 3509 836 4129 
Q 1250 4750 2034 4750 
z
" transform="scale(0.015625)"/>
        <path id="DejaVuSans-33" d="M 2597 2516 
Q 3050 2419 3304 2112 
Q 3559 1806 3559 1356 
Q 3559 666 3084 287 
Q 2609 -91 1734 -91 
Q 1441 -91 1130 -33 
Q 819 25 488 141 
L 488 750 
Q 750 597 1062 519 
Q 1375 441 1716 441 
Q 2309 441 2620 675 
Q 2931 909 2931 1356 
Q 2931 1769 2642 2001 
Q 2353 2234 1838 2234 
L 1294 2234 
L 1294 2753 
L 1863 2753 
Q 2328 2753 2575 2939 
Q 2822 3125 2822 3475 
Q 2822 3834 2567 4026 
Q 2313 4219 1838 4219 
Q 1578 4219 1281 4162 
Q 984 4106 628 3988 
L 628 4550 
Q 988 4650 1302 4700 
Q 1616 4750 1894 4750 
Q 2613 4750 3031 4423 
Q 3450 4097 3450 3541 
Q 3450 3153 3228 2886 
Q 3006 2619 2597 2516 
z
" transform="scale(0.015625)"/>
       </defs>
       <use xlink:href="#DejaVuSans-31" transform="translate(0 0.765625)"/>
       <use xlink:href="#DejaVuSans-30" transform="translate(63.623047 0.765625)"/>
       <use xlink:href="#DejaVuSans-33" transform="translate(128.203125 39.046875) scale(0.7)"/>
      </g>
     </g>
    </g>
    <g id="xtick_2">
     <g id="line2d_3">
      <path d="M 518.750886 320.4 
L 518.750886 43.2 
" clip-path="url(#p36579e46c1)" style="fill: none; stroke: #b0b0b0; stroke-width: 0.8; stroke-linecap: square"/>
     </g>
     <g id="line2d_4">
      <g>
       <use xlink:href="#m84fdac1a4b" x="518.750886" y="320.4" style="stroke: #000000; stroke-width: 0.8"/>
      </g>
     </g>
     <g id="text_2">
      <!-- $\mathdefault{10^{4}}$ -->
      <g transform="translate(509.950886 334.998438) scale(0.1 -0.1)">
       <defs>
        <path id="DejaVuSans-34" d="M 2419 4116 
L 825 1625 
L 2419 1625 
L 2419 4116 
z
M 2253 4666 
L 3047 4666 
L 3047 1625 
L 3713 1625 
L 3713 1100 
L 3047 1100 
L 3047 0 
L 2419 0 
L 2419 1100 
L 313 1100 
L 313 1709 
L 2253 4666 
z
" transform="scale(0.015625)"/>
       </defs>
       <use xlink:href="#DejaVuSans-31" transform="translate(0 0.684375)"/>
       <use xlink:href="#DejaVuSans-30" transform="translate(63.623047 0.684375)"/>
       <use xlink:href="#DejaVuSans-34" transform="translate(128.203125 38.965625) scale(0.7)"/>
      </g>
     </g>
    </g>
    <g id="xtick_3">
     <g id="line2d_5">
      <defs>
       <path id="mc05fa99722" d="M 0 0 
L 0 2 
" style="stroke: #000000; stroke-width: 0.6"/>
      </defs>
      <g>
       <use xlink:href="#mc05fa99722" x="117.879634" y="320.4" style="stroke: #000000; stroke-width: 0.6"/>
      </g>
     </g>
    </g>
    <g id="xtick_4">
     <g id="line2d_6">
      <g>
       <use xlink:href="#mc05fa99722" x="145.669409" y="320.4" style="stroke: #000000; stroke-width: 0.6"/>
      </g>
     </g>
    </g>
    <g id="xtick_5">
     <g id="line2d_7">
      <g>
       <use xlink:href="#mc05fa99722" x="168.375309" y="320.4" style="stroke: #000000; stroke-width: 0.6"/>
      </g>
     </g>
    </g>
    <g id="xtick_6">
     <g id="line2d_8">
      <g>
       <use xlink:href="#mc05fa99722" x="187.572873" y="320.4" style="stroke: #000000; stroke-width: 0.6"/>
      </g>
     </g>
    </g>
    <g id="xtick_7">
     <g id="line2d_9">
      <g>
       <use xlink:href="#mc05fa99722" x="204.20256" y="320.4" style="stroke: #000000; stroke-width: 0.6"/>
      </g>
     </g>
    </g>
    <g id="xtick_8">
     <g id="line2d_10">
      <g>
       <use xlink:href="#mc05fa99722" x="218.870983" y="320.4" style="stroke: #000000; stroke-width: 0.6"/>
      </g>
     </g>
    </g>
    <g id="xtick_9">
     <g id="line2d_11">
      <g>
       <use xlink:href="#mc05fa99722" x="318.31526" y="320.4" style="stroke: #000000; stroke-width: 0.6"/>
      </g>
     </g>
    </g>
    <g id="xtick_10">
     <g id="line2d_12">
      <g>
       <use xlink:href="#mc05fa99722" x="368.810935" y="320.4" style="stroke: #000000; stroke-width: 0.6"/>
      </g>
     </g>
    </g>
    <g id="xtick_11">
     <g id="line2d_13">
      <g>
       <use xlink:href="#mc05fa99722" x="404.638186" y="320.4" style="stroke: #000000; stroke-width: 0.6"/>
      </g>
     </g>
    </g>
    <g id="xtick_12">
     <g id="line2d_14">
      <g>
       <use xlink:href="#mc05fa99722" x="432.427961" y="320.4" style="stroke: #000000; stroke-width: 0.6"/>
      </g>
     </g>
    </g>
    <g id="xtick_13">
     <g id="line2d_15">
      <g>
       <use xlink:href="#mc05fa99722" x="455.13386" y="320.4" style="stroke: #000000; stroke-width: 0.6"/>
      </g>
     </g>
    </g>
    <g id="xtick_14">
     <g id="line2d_16">
      <g>
       <use xlink:href="#mc05fa99722" x="474.331425" y="320.4" style="stroke: #000000; stroke-width: 0.6"/>
      </g>
     </g>
    </g>
    <g id="xtick_15">
     <g id="line2d_17">
      <g>
       <use xlink:href="#mc05fa99722" x="490.961111" y="320.4" style="stroke: #000000; stroke-width: 0.6"/>
      </g>
     </g>
    </g>
    <g id="xtick_16">
     <g id="line2d_18">
      <g>
       <use xlink:href="#mc05fa99722" x="505.629535" y="320.4" style="stroke: #000000; stroke-width: 0.6"/>
      </g>
     </g>
    </g>
    <g id="xtick_17">
     <g id="line2d_19">
      <g>
       <use xlink:href="#mc05fa99722" x="605.073812" y="320.4" style="stroke: #000000; stroke-width: 0.6"/>
      </g>
     </g>
    </g>
    <g id="text_3">
     <!-- Upvotes -->
     <g transform="translate(348.50625 348.676562) scale(0.1 -0.1)">
      <defs>
       <path id="DejaVuSans-55" d="M 556 4666 
L 1191 4666 
L 1191 1831 
Q 1191 1081 1462 751 
Q 1734 422 2344 422 
Q 2950 422 3222 751 
Q 3494 1081 3494 1831 
L 3494 4666 
L 4128 4666 
L 4128 1753 
Q 4128 841 3676 375 
Q 3225 -91 2344 -91 
Q 1459 -91 1007 375 
Q 556 841 556 1753 
L 556 4666 
z
" transform="scale(0.015625)"/>
       <path id="DejaVuSans-70" d="M 1159 525 
L 1159 -1331 
L 581 -1331 
L 581 3500 
L 1159 3500 
L 1159 2969 
Q 1341 3281 1617 3432 
Q 1894 3584 2278 3584 
Q 2916 3584 3314 3078 
Q 3713 2572 3713 1747 
Q 3713 922 3314 415 
Q 2916 -91 2278 -91 
Q 1894 -91 1617 61 
Q 1341 213 1159 525 
z
M 3116 1747 
Q 3116 2381 2855 2742 
Q 2594 3103 2138 3103 
Q 1681 3103 1420 2742 
Q 1159 2381 1159 1747 
Q 1159 1113 1420 752 
Q 1681 391 2138 391 
Q 2594 391 2855 752 
Q 3116 1113 3116 1747 
z
" transform="scale(0.015625)"/>
       <path id="DejaVuSans-76" d="M 191 3500 
L 800 3500 
L 1894 563 
L 2988 3500 
L 3597 3500 
L 2284 0 
L 1503 0 
L 191 3500 
z
" transform="scale(0.015625)"/>
       <path id="DejaVuSans-6f" d="M 1959 3097 
Q 1497 3097 1228 2736 
Q 959 2375 959 1747 
Q 959 1119 1226 758 
Q 1494 397 1959 397 
Q 2419 397 2687 759 
Q 2956 1122 2956 1747 
Q 2956 2369 2687 2733 
Q 2419 3097 1959 3097 
z
M 1959 3584 
Q 2709 3584 3137 3096 
Q 3566 2609 3566 1747 
Q 3566 888 3137 398 
Q 2709 -91 1959 -91 
Q 1206 -91 779 398 
Q 353 888 353 1747 
Q 353 2609 779 3096 
Q 1206 3584 1959 3584 
z
" transform="scale(0.015625)"/>
       <path id="DejaVuSans-74" d="M 1172 4494 
L 1172 3500 
L 2356 3500 
L 2356 3053 
L 1172 3053 
L 1172 1153 
Q 1172 725 1289 603 
Q 1406 481 1766 481 
L 2356 481 
L 2356 0 
L 1766 0 
Q 1100 0 847 248 
Q 594 497 594 1153 
L 594 3053 
L 172 3053 
L 172 3500 
L 594 3500 
L 594 4494 
L 1172 4494 
z
" transform="scale(0.015625)"/>
       <path id="DejaVuSans-65" d="M 3597 1894 
L 3597 1613 
L 953 1613 
Q 991 1019 1311 708 
Q 1631 397 2203 397 
Q 2534 397 2845 478 
Q 3156 559 3463 722 
L 3463 178 
Q 3153 47 2828 -22 
Q 2503 -91 2169 -91 
Q 1331 -91 842 396 
Q 353 884 353 1716 
Q 353 2575 817 3079 
Q 1281 3584 2069 3584 
Q 2775 3584 3186 3129 
Q 3597 2675 3597 1894 
z
M 3022 2063 
Q 3016 2534 2758 2815 
Q 2500 3097 2075 3097 
Q 1594 3097 1305 2825 
Q 1016 2553 972 2059 
L 3022 2063 
z
" transform="scale(0.015625)"/>
       <path id="DejaVuSans-73" d="M 2834 3397 
L 2834 2853 
Q 2591 2978 2328 3040 
Q 2066 3103 1784 3103 
Q 1356 3103 1142 2972 
Q 928 2841 928 2578 
Q 928 2378 1081 2264 
Q 1234 2150 1697 2047 
L 1894 2003 
Q 2506 1872 2764 1633 
Q 3022 1394 3022 966 
Q 3022 478 2636 193 
Q 2250 -91 1575 -91 
Q 1294 -91 989 -36 
Q 684 19 347 128 
L 347 722 
Q 666 556 975 473 
Q 1284 391 1588 391 
Q 1994 391 2212 530 
Q 2431 669 2431 922 
Q 2431 1156 2273 1281 
Q 2116 1406 1581 1522 
L 1381 1569 
Q 847 1681 609 1914 
Q 372 2147 372 2553 
Q 372 3047 722 3315 
Q 1072 3584 1716 3584 
Q 2034 3584 2315 3537 
Q 2597 3491 2834 3397 
z
" transform="scale(0.015625)"/>
      </defs>
      <use xlink:href="#DejaVuSans-55"/>
      <use xlink:href="#DejaVuSans-70" transform="translate(73.193359 0)"/>
      <use xlink:href="#DejaVuSans-76" transform="translate(136.669922 0)"/>
      <use xlink:href="#DejaVuSans-6f" transform="translate(195.849609 0)"/>
      <use xlink:href="#DejaVuSans-74" transform="translate(257.03125 0)"/>
      <use xlink:href="#DejaVuSans-65" transform="translate(296.240234 0)"/>
      <use xlink:href="#DejaVuSans-73" transform="translate(357.763672 0)"/>
     </g>
    </g>
   </g>
   <g id="matplotlib.axis_2">
    <g id="ytick_1">
     <g id="line2d_20">
      <path d="M 90 241.812915 
L 648 241.812915 
" clip-path="url(#p36579e46c1)" style="fill: none; stroke: #b0b0b0; stroke-width: 0.8; stroke-linecap: square"/>
     </g>
     <g id="line2d_21">
      <defs>
       <path id="md0892e5ec8" d="M 0 0 
L -3.5 0 
" style="stroke: #000000; stroke-width: 0.8"/>
      </defs>
      <g>
       <use xlink:href="#md0892e5ec8" x="90" y="241.812915" style="stroke: #000000; stroke-width: 0.8"/>
      </g>
     </g>
     <g id="text_4">
      <!-- $\mathdefault{10^{1}}$ -->
      <g transform="translate(65.4 245.612133) scale(0.1 -0.1)">
       <use xlink:href="#DejaVuSans-31" transform="translate(0 0.684375)"/>
       <use xlink:href="#DejaVuSans-30" transform="translate(63.623047 0.684375)"/>
       <use xlink:href="#DejaVuSans-31" transform="translate(128.203125 38.965625) scale(0.7)"/>
      </g>
     </g>
    </g>
    <g id="ytick_2">
     <g id="line2d_22">
      <path d="M 90 147.406738 
L 648 147.406738 
" clip-path="url(#p36579e46c1)" style="fill: none; stroke: #b0b0b0; stroke-width: 0.8; stroke-linecap: square"/>
     </g>
     <g id="line2d_23">
      <g>
       <use xlink:href="#md0892e5ec8" x="90" y="147.406738" style="stroke: #000000; stroke-width: 0.8"/>
      </g>
     </g>
     <g id="text_5">
      <!-- $\mathdefault{10^{2}}$ -->
      <g transform="translate(65.4 151.205957) scale(0.1 -0.1)">
       <defs>
        <path id="DejaVuSans-32" d="M 1228 531 
L 3431 531 
L 3431 0 
L 469 0 
L 469 531 
Q 828 903 1448 1529 
Q 2069 2156 2228 2338 
Q 2531 2678 2651 2914 
Q 2772 3150 2772 3378 
Q 2772 3750 2511 3984 
Q 2250 4219 1831 4219 
Q 1534 4219 1204 4116 
Q 875 4013 500 3803 
L 500 4441 
Q 881 4594 1212 4672 
Q 1544 4750 1819 4750 
Q 2544 4750 2975 4387 
Q 3406 4025 3406 3419 
Q 3406 3131 3298 2873 
Q 3191 2616 2906 2266 
Q 2828 2175 2409 1742 
Q 1991 1309 1228 531 
z
" transform="scale(0.015625)"/>
       </defs>
       <use xlink:href="#DejaVuSans-31" transform="translate(0 0.765625)"/>
       <use xlink:href="#DejaVuSans-30" transform="translate(63.623047 0.765625)"/>
       <use xlink:href="#DejaVuSans-32" transform="translate(128.203125 39.046875) scale(0.7)"/>
      </g>
     </g>
    </g>
    <g id="ytick_3">
     <g id="line2d_24">
      <path d="M 90 53.000562 
L 648 53.000562 
" clip-path="url(#p36579e46c1)" style="fill: none; stroke: #b0b0b0; stroke-width: 0.8; stroke-linecap: square"/>
     </g>
     <g id="line2d_25">
      <g>
       <use xlink:href="#md0892e5ec8" x="90" y="53.000562" style="stroke: #000000; stroke-width: 0.8"/>
      </g>
     </g>
     <g id="text_6">
      <!-- $\mathdefault{10^{3}}$ -->
      <g transform="translate(65.4 56.799781) scale(0.1 -0.1)">
       <use xlink:href="#DejaVuSans-31" transform="translate(0 0.765625)"/>
       <use xlink:href="#DejaVuSans-30" transform="translate(63.623047 0.765625)"/>
       <use xlink:href="#DejaVuSans-33" transform="translate(128.203125 39.046875) scale(0.7)"/>
      </g>
     </g>
    </g>
    <g id="ytick_4">
     <g id="line2d_26">
      <defs>
       <path id="m9b17b28f4e" d="M 0 0 
L -2 0 
" style="stroke: #000000; stroke-width: 0.6"/>
      </defs>
      <g>
       <use xlink:href="#m9b17b28f4e" x="90" y="307.8" style="stroke: #000000; stroke-width: 0.6"/>
      </g>
     </g>
    </g>
    <g id="ytick_5">
     <g id="line2d_27">
      <g>
       <use xlink:href="#m9b17b28f4e" x="90" y="291.175898" style="stroke: #000000; stroke-width: 0.6"/>
      </g>
     </g>
    </g>
    <g id="ytick_6">
     <g id="line2d_28">
      <g>
       <use xlink:href="#m9b17b28f4e" x="90" y="279.380909" style="stroke: #000000; stroke-width: 0.6"/>
      </g>
     </g>
    </g>
    <g id="ytick_7">
     <g id="line2d_29">
      <g>
       <use xlink:href="#m9b17b28f4e" x="90" y="270.232005" style="stroke: #000000; stroke-width: 0.6"/>
      </g>
     </g>
    </g>
    <g id="ytick_8">
     <g id="line2d_30">
      <g>
       <use xlink:href="#m9b17b28f4e" x="90" y="262.756807" style="stroke: #000000; stroke-width: 0.6"/>
      </g>
     </g>
    </g>
    <g id="ytick_9">
     <g id="line2d_31">
      <g>
       <use xlink:href="#m9b17b28f4e" x="90" y="256.436616" style="stroke: #000000; stroke-width: 0.6"/>
      </g>
     </g>
    </g>
    <g id="ytick_10">
     <g id="line2d_32">
      <g>
       <use xlink:href="#m9b17b28f4e" x="90" y="250.961818" style="stroke: #000000; stroke-width: 0.6"/>
      </g>
     </g>
    </g>
    <g id="ytick_11">
     <g id="line2d_33">
      <g>
       <use xlink:href="#m9b17b28f4e" x="90" y="246.132704" style="stroke: #000000; stroke-width: 0.6"/>
      </g>
     </g>
    </g>
    <g id="ytick_12">
     <g id="line2d_34">
      <g>
       <use xlink:href="#m9b17b28f4e" x="90" y="213.393824" style="stroke: #000000; stroke-width: 0.6"/>
      </g>
     </g>
    </g>
    <g id="ytick_13">
     <g id="line2d_35">
      <g>
       <use xlink:href="#m9b17b28f4e" x="90" y="196.769721" style="stroke: #000000; stroke-width: 0.6"/>
      </g>
     </g>
    </g>
    <g id="ytick_14">
     <g id="line2d_36">
      <g>
       <use xlink:href="#m9b17b28f4e" x="90" y="184.974733" style="stroke: #000000; stroke-width: 0.6"/>
      </g>
     </g>
    </g>
    <g id="ytick_15">
     <g id="line2d_37">
      <g>
       <use xlink:href="#m9b17b28f4e" x="90" y="175.825829" style="stroke: #000000; stroke-width: 0.6"/>
      </g>
     </g>
    </g>
    <g id="ytick_16">
     <g id="line2d_38">
      <g>
       <use xlink:href="#m9b17b28f4e" x="90" y="168.35063" style="stroke: #000000; stroke-width: 0.6"/>
      </g>
     </g>
    </g>
    <g id="ytick_17">
     <g id="line2d_39">
      <g>
       <use xlink:href="#m9b17b28f4e" x="90" y="162.03044" style="stroke: #000000; stroke-width: 0.6"/>
      </g>
     </g>
    </g>
    <g id="ytick_18">
     <g id="line2d_40">
      <g>
       <use xlink:href="#m9b17b28f4e" x="90" y="156.555642" style="stroke: #000000; stroke-width: 0.6"/>
      </g>
     </g>
    </g>
    <g id="ytick_19">
     <g id="line2d_41">
      <g>
       <use xlink:href="#m9b17b28f4e" x="90" y="151.726528" style="stroke: #000000; stroke-width: 0.6"/>
      </g>
     </g>
    </g>
    <g id="ytick_20">
     <g id="line2d_42">
      <g>
       <use xlink:href="#m9b17b28f4e" x="90" y="118.987647" style="stroke: #000000; stroke-width: 0.6"/>
      </g>
     </g>
    </g>
    <g id="ytick_21">
     <g id="line2d_43">
      <g>
       <use xlink:href="#m9b17b28f4e" x="90" y="102.363545" style="stroke: #000000; stroke-width: 0.6"/>
      </g>
     </g>
    </g>
    <g id="ytick_22">
     <g id="line2d_44">
      <g>
       <use xlink:href="#m9b17b28f4e" x="90" y="90.568557" style="stroke: #000000; stroke-width: 0.6"/>
      </g>
     </g>
    </g>
    <g id="ytick_23">
     <g id="line2d_45">
      <g>
       <use xlink:href="#m9b17b28f4e" x="90" y="81.419653" style="stroke: #000000; stroke-width: 0.6"/>
      </g>
     </g>
    </g>
    <g id="ytick_24">
     <g id="line2d_46">
      <g>
       <use xlink:href="#m9b17b28f4e" x="90" y="73.944454" style="stroke: #000000; stroke-width: 0.6"/>
      </g>
     </g>
    </g>
    <g id="ytick_25">
     <g id="line2d_47">
      <g>
       <use xlink:href="#m9b17b28f4e" x="90" y="67.624264" style="stroke: #000000; stroke-width: 0.6"/>
      </g>
     </g>
    </g>
    <g id="ytick_26">
     <g id="line2d_48">
      <g>
       <use xlink:href="#m9b17b28f4e" x="90" y="62.149466" style="stroke: #000000; stroke-width: 0.6"/>
      </g>
     </g>
    </g>
    <g id="ytick_27">
     <g id="line2d_49">
      <g>
       <use xlink:href="#m9b17b28f4e" x="90" y="57.320352" style="stroke: #000000; stroke-width: 0.6"/>
      </g>
     </g>
    </g>
    <g id="text_7">
     <!-- Comments -->
     <g transform="translate(59.320312 208.901562) rotate(-90) scale(0.1 -0.1)">
      <defs>
       <path id="DejaVuSans-43" d="M 4122 4306 
L 4122 3641 
Q 3803 3938 3442 4084 
Q 3081 4231 2675 4231 
Q 1875 4231 1450 3742 
Q 1025 3253 1025 2328 
Q 1025 1406 1450 917 
Q 1875 428 2675 428 
Q 3081 428 3442 575 
Q 3803 722 4122 1019 
L 4122 359 
Q 3791 134 3420 21 
Q 3050 -91 2638 -91 
Q 1578 -91 968 557 
Q 359 1206 359 2328 
Q 359 3453 968 4101 
Q 1578 4750 2638 4750 
Q 3056 4750 3426 4639 
Q 3797 4528 4122 4306 
z
" transform="scale(0.015625)"/>
       <path id="DejaVuSans-6d" d="M 3328 2828 
Q 3544 3216 3844 3400 
Q 4144 3584 4550 3584 
Q 5097 3584 5394 3201 
Q 5691 2819 5691 2113 
L 5691 0 
L 5113 0 
L 5113 2094 
Q 5113 2597 4934 2840 
Q 4756 3084 4391 3084 
Q 3944 3084 3684 2787 
Q 3425 2491 3425 1978 
L 3425 0 
L 2847 0 
L 2847 2094 
Q 2847 2600 2669 2842 
Q 2491 3084 2119 3084 
Q 1678 3084 1418 2786 
Q 1159 2488 1159 1978 
L 1159 0 
L 581 0 
L 581 3500 
L 1159 3500 
L 1159 2956 
Q 1356 3278 1631 3431 
Q 1906 3584 2284 3584 
Q 2666 3584 2933 3390 
Q 3200 3197 3328 2828 
z
" transform="scale(0.015625)"/>
       <path id="DejaVuSans-6e" d="M 3513 2113 
L 3513 0 
L 2938 0 
L 2938 2094 
Q 2938 2591 2744 2837 
Q 2550 3084 2163 3084 
Q 1697 3084 1428 2787 
Q 1159 2491 1159 1978 
L 1159 0 
L 581 0 
L 581 3500 
L 1159 3500 
L 1159 2956 
Q 1366 3272 1645 3428 
Q 1925 3584 2291 3584 
Q 2894 3584 3203 3211 
Q 3513 2838 3513 2113 
z
" transform="scale(0.015625)"/>
      </defs>
      <use xlink:href="#DejaVuSans-43"/>
      <use xlink:href="#DejaVuSans-6f" transform="translate(69.824219 0)"/>
      <use xlink:href="#DejaVuSans-6d" transform="translate(131.005859 0)"/>
      <use xlink:href="#DejaVuSans-6d" transform="translate(228.417969 0)"/>
      <use xlink:href="#DejaVuSans-65" transform="translate(325.830078 0)"/>
      <use xlink:href="#DejaVuSans-6e" transform="translate(387.353516 0)"/>
      <use xlink:href="#DejaVuSans-74" transform="translate(450.732422 0)"/>
      <use xlink:href="#DejaVuSans-73" transform="translate(489.941406 0)"/>
     </g>
    </g>
   </g>
   <g id="patch_3">
    <path d="M 90 320.4 
L 90 43.2 
" style="fill: none; stroke: #000000; stroke-width: 0.8; stroke-linejoin: miter; stroke-linecap: square"/>
   </g>
   <g id="patch_4">
    <path d="M 648 320.4 
L 648 43.2 
" style="fill: none; stroke: #000000; stroke-width: 0.8; stroke-linejoin: miter; stroke-linecap: square"/>
   </g>
   <g id="patch_5">
    <path d="M 90 320.4 
L 648 320.4 
" style="fill: none; stroke: #000000; stroke-width: 0.8; stroke-linejoin: miter; stroke-linecap: square"/>
   </g>
   <g id="patch_6">
    <path d="M 90 43.2 
L 648 43.2 
" style="fill: none; stroke: #000000; stroke-width: 0.8; stroke-linejoin: miter; stroke-linecap: square"/>
   </g>
   <g id="text_8">
    <g id="patch_7">
     <path d="M 611.678551 120.056402 
L 626.636364 120.056402 
L 626.636364 102.378277 
L 611.678551 102.378277 
z
" style="fill: #ffffff; opacity: 0.7; stroke: #000000; stroke-linejoin: miter"/>
    </g>
    <!-- 1 -->
    <g transform="translate(615.678551 113.976715) scale(0.1 -0.1)">
     <defs>
      <path id="DejaVuSans-Bold-31" d="M 750 831 
L 1813 831 
L 1813 3847 
L 722 3622 
L 722 4441 
L 1806 4666 
L 2950 4666 
L 2950 831 
L 4013 831 
L 4013 0 
L 750 0 
L 750 831 
z
" transform="scale(0.015625)"/>
     </defs>
     <use xlink:href="#DejaVuSans-Bold-31"/>
    </g>
   </g>
   <g id="text_9">
    <g id="patch_8">
     <path d="M 525.090358 169.298619 
L 540.048171 169.298619 
L 540.048171 151.620494 
L 525.090358 151.620494 
z
" style="fill: #ffffff; opacity: 0.7; stroke: #000000; stroke-linejoin: miter"/>
    </g>
    <!-- 2 -->
    <g transform="translate(529.090358 163.218931) scale(0.1 -0.1)">
     <defs>
      <path id="DejaVuSans-Bold-32" d="M 1844 884 
L 3897 884 
L 3897 0 
L 506 0 
L 506 884 
L 2209 2388 
Q 2438 2594 2547 2791 
Q 2656 2988 2656 3200 
Q 2656 3528 2436 3728 
Q 2216 3928 1850 3928 
Q 1569 3928 1234 3808 
Q 900 3688 519 3450 
L 519 4475 
Q 925 4609 1322 4679 
Q 1719 4750 2100 4750 
Q 2938 4750 3402 4381 
Q 3866 4013 3866 3353 
Q 3866 2972 3669 2642 
Q 3472 2313 2841 1759 
L 1844 884 
z
" transform="scale(0.015625)"/>
     </defs>
     <use xlink:href="#DejaVuSans-Bold-32"/>
    </g>
   </g>
   <g id="text_10">
    <g id="patch_9">
     <path d="M 468.685006 182.733829 
L 483.642818 182.733829 
L 483.642818 165.055704 
L 468.685006 165.055704 
z
" style="fill: #ffffff; opacity: 0.7; stroke: #000000; stroke-linejoin: miter"/>
    </g>
    <!-- 3 -->
    <g transform="translate(472.685006 176.654142) scale(0.1 -0.1)">
     <defs>
      <path id="DejaVuSans-Bold-33" d="M 2981 2516 
Q 3453 2394 3698 2092 
Q 3944 1791 3944 1325 
Q 3944 631 3412 270 
Q 2881 -91 1863 -91 
Q 1503 -91 1142 -33 
Q 781 25 428 141 
L 428 1069 
Q 766 900 1098 814 
Q 1431 728 1753 728 
Q 2231 728 2486 893 
Q 2741 1059 2741 1369 
Q 2741 1688 2480 1852 
Q 2219 2016 1709 2016 
L 1228 2016 
L 1228 2791 
L 1734 2791 
Q 2188 2791 2409 2933 
Q 2631 3075 2631 3366 
Q 2631 3634 2415 3781 
Q 2200 3928 1806 3928 
Q 1516 3928 1219 3862 
Q 922 3797 628 3669 
L 628 4550 
Q 984 4650 1334 4700 
Q 1684 4750 2022 4750 
Q 2931 4750 3382 4451 
Q 3834 4153 3834 3553 
Q 3834 3144 3618 2883 
Q 3403 2622 2981 2516 
z
" transform="scale(0.015625)"/>
     </defs>
     <use xlink:href="#DejaVuSans-Bold-33"/>
    </g>
   </g>
   <g id="text_11">
    <g id="patch_10">
     <path d="M 464.118605 61.879687 
L 479.076418 61.879687 
L 479.076418 44.201562 
L 464.118605 44.201562 
z
" style="fill: #ffffff; opacity: 0.7; stroke: #000000; stroke-linejoin: miter"/>
    </g>
    <!-- 4 -->
    <g transform="translate(468.118605 55.8) scale(0.1 -0.1)">
     <defs>
      <path id="DejaVuSans-Bold-34" d="M 2356 3675 
L 1038 1722 
L 2356 1722 
L 2356 3675 
z
M 2156 4666 
L 3494 4666 
L 3494 1722 
L 4159 1722 
L 4159 850 
L 3494 850 
L 3494 0 
L 2356 0 
L 2356 850 
L 288 850 
L 288 1881 
L 2156 4666 
z
" transform="scale(0.015625)"/>
     </defs>
     <use xlink:href="#DejaVuSans-Bold-34"/>
    </g>
   </g>
   <g id="text_12">
    <g id="patch_11">
     <path d="M 451.999291 192.092453 
L 466.957103 192.092453 
L 466.957103 174.414328 
L 451.999291 174.414328 
z
" style="fill: #ffffff; opacity: 0.7; stroke: #000000; stroke-linejoin: miter"/>
    </g>
    <!-- 5 -->
    <g transform="translate(455.999291 186.012765) scale(0.1 -0.1)">
     <defs>
      <path id="DejaVuSans-Bold-35" d="M 678 4666 
L 3669 4666 
L 3669 3781 
L 1638 3781 
L 1638 3059 
Q 1775 3097 1914 3117 
Q 2053 3138 2203 3138 
Q 3056 3138 3531 2711 
Q 4006 2284 4006 1522 
Q 4006 766 3489 337 
Q 2972 -91 2053 -91 
Q 1656 -91 1267 -14 
Q 878 63 494 219 
L 494 1166 
Q 875 947 1217 837 
Q 1559 728 1863 728 
Q 2300 728 2551 942 
Q 2803 1156 2803 1522 
Q 2803 1891 2551 2103 
Q 2300 2316 1863 2316 
Q 1603 2316 1309 2248 
Q 1016 2181 678 2041 
L 678 4666 
z
" transform="scale(0.015625)"/>
     </defs>
     <use xlink:href="#DejaVuSans-Bold-35"/>
    </g>
   </g>
   <g id="text_13">
    <g id="patch_12">
     <path d="M 449.060504 142.72947 
L 464.018316 142.72947 
L 464.018316 125.051345 
L 449.060504 125.051345 
z
" style="fill: #ffffff; opacity: 0.7; stroke: #000000; stroke-linejoin: miter"/>
    </g>
    <!-- 6 -->
    <g transform="translate(453.060504 136.649782) scale(0.1 -0.1)">
     <defs>
      <path id="DejaVuSans-Bold-36" d="M 2316 2303 
Q 2000 2303 1842 2098 
Q 1684 1894 1684 1484 
Q 1684 1075 1842 870 
Q 2000 666 2316 666 
Q 2634 666 2792 870 
Q 2950 1075 2950 1484 
Q 2950 1894 2792 2098 
Q 2634 2303 2316 2303 
z
M 3803 4544 
L 3803 3681 
Q 3506 3822 3243 3889 
Q 2981 3956 2731 3956 
Q 2194 3956 1894 3657 
Q 1594 3359 1544 2772 
Q 1750 2925 1990 3001 
Q 2231 3078 2516 3078 
Q 3231 3078 3670 2659 
Q 4109 2241 4109 1563 
Q 4109 813 3618 361 
Q 3128 -91 2303 -91 
Q 1394 -91 895 523 
Q 397 1138 397 2266 
Q 397 3422 980 4083 
Q 1563 4744 2578 4744 
Q 2900 4744 3203 4694 
Q 3506 4644 3803 4544 
z
" transform="scale(0.015625)"/>
     </defs>
     <use xlink:href="#DejaVuSans-Bold-36"/>
    </g>
   </g>
   <g id="text_14">
    <g id="patch_13">
     <path d="M 447.068824 121.534042 
L 462.026637 121.534042 
L 462.026637 103.855917 
L 447.068824 103.855917 
z
" style="fill: #ffffff; opacity: 0.7; stroke: #000000; stroke-linejoin: miter"/>
    </g>
    <!-- 7 -->
    <g transform="translate(451.068824 115.454355) scale(0.1 -0.1)">
     <defs>
      <path id="DejaVuSans-Bold-37" d="M 428 4666 
L 3944 4666 
L 3944 3988 
L 2125 0 
L 953 0 
L 2675 3781 
L 428 3781 
L 428 4666 
z
" transform="scale(0.015625)"/>
     </defs>
     <use xlink:href="#DejaVuSans-Bold-37"/>
    </g>
   </g>
   <g id="text_15">
    <g id="patch_14">
     <path d="M 440.061342 205.678122 
L 455.019154 205.678122 
L 455.019154 187.999997 
L 440.061342 187.999997 
z
" style="fill: #ffffff; opacity: 0.7; stroke: #000000; stroke-linejoin: miter"/>
    </g>
    <!-- 8 -->
    <g transform="translate(444.061342 199.598435) scale(0.1 -0.1)">
     <defs>
      <path id="DejaVuSans-Bold-38" d="M 2228 2088 
Q 1891 2088 1709 1903 
Q 1528 1719 1528 1375 
Q 1528 1031 1709 848 
Q 1891 666 2228 666 
Q 2563 666 2741 848 
Q 2919 1031 2919 1375 
Q 2919 1722 2741 1905 
Q 2563 2088 2228 2088 
z
M 1350 2484 
Q 925 2613 709 2878 
Q 494 3144 494 3541 
Q 494 4131 934 4440 
Q 1375 4750 2228 4750 
Q 3075 4750 3515 4442 
Q 3956 4134 3956 3541 
Q 3956 3144 3739 2878 
Q 3522 2613 3097 2484 
Q 3572 2353 3814 2058 
Q 4056 1763 4056 1313 
Q 4056 619 3595 264 
Q 3134 -91 2228 -91 
Q 1319 -91 855 264 
Q 391 619 391 1313 
Q 391 1763 633 2058 
Q 875 2353 1350 2484 
z
M 1631 3419 
Q 1631 3141 1786 2991 
Q 1941 2841 2228 2841 
Q 2509 2841 2662 2991 
Q 2816 3141 2816 3419 
Q 2816 3697 2662 3845 
Q 2509 3994 2228 3994 
Q 1941 3994 1786 3844 
Q 1631 3694 1631 3419 
z
" transform="scale(0.015625)"/>
     </defs>
     <use xlink:href="#DejaVuSans-Bold-38"/>
    </g>
   </g>
   <g id="text_16">
    <g id="patch_15">
     <path d="M 446.886173 219.473511 
L 461.843985 219.473511 
L 461.843985 201.795386 
L 446.886173 201.795386 
z
" style="fill: #ffffff; opacity: 0.7; stroke: #000000; stroke-linejoin: miter"/>
    </g>
    <!-- 9 -->
    <g transform="translate(450.886173 213.393824) scale(0.1 -0.1)">
     <defs>
      <path id="DejaVuSans-Bold-39" d="M 641 103 
L 641 966 
Q 928 831 1190 764 
Q 1453 697 1709 697 
Q 2247 697 2547 995 
Q 2847 1294 2900 1881 
Q 2688 1725 2447 1647 
Q 2206 1569 1925 1569 
Q 1209 1569 770 1986 
Q 331 2403 331 3084 
Q 331 3838 820 4291 
Q 1309 4744 2131 4744 
Q 3044 4744 3544 4128 
Q 4044 3513 4044 2388 
Q 4044 1231 3459 570 
Q 2875 -91 1856 -91 
Q 1528 -91 1228 -42 
Q 928 6 641 103 
z
M 2125 2350 
Q 2441 2350 2600 2554 
Q 2759 2759 2759 3169 
Q 2759 3575 2600 3781 
Q 2441 3988 2125 3988 
Q 1809 3988 1650 3781 
Q 1491 3575 1491 3169 
Q 1491 2759 1650 2554 
Q 1809 2350 2125 2350 
z
" transform="scale(0.015625)"/>
     </defs>
     <use xlink:href="#DejaVuSans-Bold-39"/>
    </g>
   </g>
   <g id="text_17">
    <g id="patch_16">
     <path d="M 276.442091 243.984877 
L 298.357716 243.984877 
L 298.357716 226.306752 
L 276.442091 226.306752 
z
" style="fill: #ffffff; opacity: 0.7; stroke: #000000; stroke-linejoin: miter"/>
    </g>
    <!-- 10 -->
    <g transform="translate(280.442091 237.905189) scale(0.1 -0.1)">
     <defs>
      <path id="DejaVuSans-Bold-30" d="M 2944 2338 
Q 2944 3213 2780 3570 
Q 2616 3928 2228 3928 
Q 1841 3928 1675 3570 
Q 1509 3213 1509 2338 
Q 1509 1453 1675 1090 
Q 1841 728 2228 728 
Q 2613 728 2778 1090 
Q 2944 1453 2944 2338 
z
M 4147 2328 
Q 4147 1169 3647 539 
Q 3147 -91 2228 -91 
Q 1306 -91 806 539 
Q 306 1169 306 2328 
Q 306 3491 806 4120 
Q 1306 4750 2228 4750 
Q 3147 4750 3647 4120 
Q 4147 3491 4147 2328 
z
" transform="scale(0.015625)"/>
     </defs>
     <use xlink:href="#DejaVuSans-Bold-31"/>
     <use xlink:href="#DejaVuSans-Bold-30" transform="translate(69.580078 0)"/>
    </g>
   </g>
   <g id="text_18">
    <g id="patch_17">
     <path d="M 225.492727 257.041506 
L 247.408352 257.041506 
L 247.408352 239.363381 
L 225.492727 239.363381 
z
" style="fill: #ffffff; opacity: 0.7; stroke: #000000; stroke-linejoin: miter"/>
    </g>
    <!-- 11 -->
    <g transform="translate(229.492727 250.961818) scale(0.1 -0.1)">
     <use xlink:href="#DejaVuSans-Bold-31"/>
     <use xlink:href="#DejaVuSans-Bold-31" transform="translate(69.580078 0)"/>
    </g>
   </g>
   <g id="text_19">
    <g id="patch_18">
     <path d="M 223.661257 219.473511 
L 245.576882 219.473511 
L 245.576882 201.795386 
L 223.661257 201.795386 
z
" style="fill: #ffffff; opacity: 0.7; stroke: #000000; stroke-linejoin: miter"/>
    </g>
    <!-- 12 -->
    <g transform="translate(227.661257 213.393824) scale(0.1 -0.1)">
     <use xlink:href="#DejaVuSans-Bold-31"/>
     <use xlink:href="#DejaVuSans-Bold-32" transform="translate(69.580078 0)"/>
    </g>
   </g>
   <g id="text_20">
    <g id="patch_19">
     <path d="M 214.945436 208.716555 
L 236.861061 208.716555 
L 236.861061 191.03843 
L 214.945436 191.03843 
z
" style="fill: #ffffff; opacity: 0.7; stroke: #000000; stroke-linejoin: miter"/>
    </g>
    <!-- 13 -->
    <g transform="translate(218.945436 202.636868) scale(0.1 -0.1)">
     <use xlink:href="#DejaVuSans-Bold-31"/>
     <use xlink:href="#DejaVuSans-Bold-33" transform="translate(69.580078 0)"/>
    </g>
   </g>
   <g id="text_21">
    <g id="patch_20">
     <path d="M 221.333383 138.821744 
L 243.249008 138.821744 
L 243.249008 121.143619 
L 221.333383 121.143619 
z
" style="fill: #ffffff; opacity: 0.7; stroke: #000000; stroke-linejoin: miter"/>
    </g>
    <!-- 14 -->
    <g transform="translate(225.333383 132.742057) scale(0.1 -0.1)">
     <use xlink:href="#DejaVuSans-Bold-31"/>
     <use xlink:href="#DejaVuSans-Bold-34" transform="translate(69.580078 0)"/>
    </g>
   </g>
   <g id="text_22">
    <g id="patch_21">
     <path d="M 250.432124 268.836494 
L 272.347749 268.836494 
L 272.347749 251.158369 
L 250.432124 251.158369 
z
" style="fill: #ffffff; opacity: 0.7; stroke: #000000; stroke-linejoin: miter"/>
    </g>
    <!-- 15 -->
    <g transform="translate(254.432124 262.756807) scale(0.1 -0.1)">
     <use xlink:href="#DejaVuSans-Bold-31"/>
     <use xlink:href="#DejaVuSans-Bold-35" transform="translate(69.580078 0)"/>
    </g>
   </g>
   <g id="text_23">
    <g id="patch_22">
     <path d="M 172.123421 313.879687 
L 194.039046 313.879687 
L 194.039046 296.201562 
L 172.123421 296.201562 
z
" style="fill: #ffffff; opacity: 0.7; stroke: #000000; stroke-linejoin: miter"/>
    </g>
    <!-- 16 -->
    <g transform="translate(176.123421 307.8) scale(0.1 -0.1)">
     <use xlink:href="#DejaVuSans-Bold-31"/>
     <use xlink:href="#DejaVuSans-Bold-36" transform="translate(69.580078 0)"/>
    </g>
   </g>
   <g id="text_24">
    <g id="patch_23">
     <path d="M 160.044231 196.529218 
L 181.959856 196.529218 
L 181.959856 178.851093 
L 160.044231 178.851093 
z
" style="fill: #ffffff; opacity: 0.7; stroke: #000000; stroke-linejoin: miter"/>
    </g>
    <!-- 17 -->
    <g transform="translate(164.044231 190.449531) scale(0.1 -0.1)">
     <use xlink:href="#DejaVuSans-Bold-31"/>
     <use xlink:href="#DejaVuSans-Bold-37" transform="translate(69.580078 0)"/>
    </g>
   </g>
   <g id="text_25">
    <g id="patch_24">
     <path d="M 140.974726 228.622415 
L 162.890351 228.622415 
L 162.890351 210.94429 
L 140.974726 210.94429 
z
" style="fill: #ffffff; opacity: 0.7; stroke: #000000; stroke-linejoin: miter"/>
    </g>
    <!-- 18 -->
    <g transform="translate(144.974726 222.542727) scale(0.1 -0.1)">
     <use xlink:href="#DejaVuSans-Bold-31"/>
     <use xlink:href="#DejaVuSans-Bold-38" transform="translate(69.580078 0)"/>
    </g>
   </g>
   <g id="text_26">
    <g id="patch_25">
     <path d="M 130.707385 252.212392 
L 152.62301 252.212392 
L 152.62301 234.534267 
L 130.707385 234.534267 
z
" style="fill: #ffffff; opacity: 0.7; stroke: #000000; stroke-linejoin: miter"/>
    </g>
    <!-- 19 -->
    <g transform="translate(134.707385 246.132704) scale(0.1 -0.1)">
     <use xlink:href="#DejaVuSans-Bold-31"/>
     <use xlink:href="#DejaVuSans-Bold-39" transform="translate(69.580078 0)"/>
    </g>
   </g>
   <g id="text_27">
    <g id="patch_26">
     <path d="M 97.448011 247.892602 
L 119.363636 247.892602 
L 119.363636 230.214477 
L 97.448011 230.214477 
z
" style="fill: #ffffff; opacity: 0.7; stroke: #000000; stroke-linejoin: miter"/>
    </g>
    <!-- 20 -->
    <g transform="translate(101.448011 241.812915) scale(0.1 -0.1)">
     <use xlink:href="#DejaVuSans-Bold-32"/>
     <use xlink:href="#DejaVuSans-Bold-30" transform="translate(69.580078 0)"/>
    </g>
   </g>
   <g id="text_28">
    <!-- Meme Popularity: Upvotes vs Comments -->
    <g transform="translate(247.52625 37.2) scale(0.12 -0.12)">
     <defs>
      <path id="DejaVuSans-4d" d="M 628 4666 
L 1569 4666 
L 2759 1491 
L 3956 4666 
L 4897 4666 
L 4897 0 
L 4281 0 
L 4281 4097 
L 3078 897 
L 2444 897 
L 1241 4097 
L 1241 0 
L 628 0 
L 628 4666 
z
" transform="scale(0.015625)"/>
      <path id="DejaVuSans-20" transform="scale(0.015625)"/>
      <path id="DejaVuSans-50" d="M 1259 4147 
L 1259 2394 
L 2053 2394 
Q 2494 2394 2734 2622 
Q 2975 2850 2975 3272 
Q 2975 3691 2734 3919 
Q 2494 4147 2053 4147 
L 1259 4147 
z
M 628 4666 
L 2053 4666 
Q 2838 4666 3239 4311 
Q 3641 3956 3641 3272 
Q 3641 2581 3239 2228 
Q 2838 1875 2053 1875 
L 1259 1875 
L 1259 0 
L 628 0 
L 628 4666 
z
" transform="scale(0.015625)"/>
      <path id="DejaVuSans-75" d="M 544 1381 
L 544 3500 
L 1119 3500 
L 1119 1403 
Q 1119 906 1312 657 
Q 1506 409 1894 409 
Q 2359 409 2629 706 
Q 2900 1003 2900 1516 
L 2900 3500 
L 3475 3500 
L 3475 0 
L 2900 0 
L 2900 538 
Q 2691 219 2414 64 
Q 2138 -91 1772 -91 
Q 1169 -91 856 284 
Q 544 659 544 1381 
z
M 1991 3584 
L 1991 3584 
z
" transform="scale(0.015625)"/>
      <path id="DejaVuSans-6c" d="M 603 4863 
L 1178 4863 
L 1178 0 
L 603 0 
L 603 4863 
z
" transform="scale(0.015625)"/>
      <path id="DejaVuSans-61" d="M 2194 1759 
Q 1497 1759 1228 1600 
Q 959 1441 959 1056 
Q 959 750 1161 570 
Q 1363 391 1709 391 
Q 2188 391 2477 730 
Q 2766 1069 2766 1631 
L 2766 1759 
L 2194 1759 
z
M 3341 1997 
L 3341 0 
L 2766 0 
L 2766 531 
Q 2569 213 2275 61 
Q 1981 -91 1556 -91 
Q 1019 -91 701 211 
Q 384 513 384 1019 
Q 384 1609 779 1909 
Q 1175 2209 1959 2209 
L 2766 2209 
L 2766 2266 
Q 2766 2663 2505 2880 
Q 2244 3097 1772 3097 
Q 1472 3097 1187 3025 
Q 903 2953 641 2809 
L 641 3341 
Q 956 3463 1253 3523 
Q 1550 3584 1831 3584 
Q 2591 3584 2966 3190 
Q 3341 2797 3341 1997 
z
" transform="scale(0.015625)"/>
      <path id="DejaVuSans-72" d="M 2631 2963 
Q 2534 3019 2420 3045 
Q 2306 3072 2169 3072 
Q 1681 3072 1420 2755 
Q 1159 2438 1159 1844 
L 1159 0 
L 581 0 
L 581 3500 
L 1159 3500 
L 1159 2956 
Q 1341 3275 1631 3429 
Q 1922 3584 2338 3584 
Q 2397 3584 2469 3576 
Q 2541 3569 2628 3553 
L 2631 2963 
z
" transform="scale(0.015625)"/>
      <path id="DejaVuSans-69" d="M 603 3500 
L 1178 3500 
L 1178 0 
L 603 0 
L 603 3500 
z
M 603 4863 
L 1178 4863 
L 1178 4134 
L 603 4134 
L 603 4863 
z
" transform="scale(0.015625)"/>
      <path id="DejaVuSans-79" d="M 2059 -325 
Q 1816 -950 1584 -1140 
Q 1353 -1331 966 -1331 
L 506 -1331 
L 506 -850 
L 844 -850 
Q 1081 -850 1212 -737 
Q 1344 -625 1503 -206 
L 1606 56 
L 191 3500 
L 800 3500 
L 1894 763 
L 2988 3500 
L 3597 3500 
L 2059 -325 
z
" transform="scale(0.015625)"/>
      <path id="DejaVuSans-3a" d="M 750 794 
L 1409 794 
L 1409 0 
L 750 0 
L 750 794 
z
M 750 3309 
L 1409 3309 
L 1409 2516 
L 750 2516 
L 750 3309 
z
" transform="scale(0.015625)"/>
     </defs>
     <use xlink:href="#DejaVuSans-4d"/>
     <use xlink:href="#DejaVuSans-65" transform="translate(86.279297 0)"/>
     <use xlink:href="#DejaVuSans-6d" transform="translate(147.802734 0)"/>
     <use xlink:href="#DejaVuSans-65" transform="translate(245.214844 0)"/>
     <use xlink:href="#DejaVuSans-20" transform="translate(306.738281 0)"/>
     <use xlink:href="#DejaVuSans-50" transform="translate(338.525391 0)"/>
     <use xlink:href="#DejaVuSans-6f" transform="translate(395.203125 0)"/>
     <use xlink:href="#DejaVuSans-70" transform="translate(456.384766 0)"/>
     <use xlink:href="#DejaVuSans-75" transform="translate(519.861328 0)"/>
     <use xlink:href="#DejaVuSans-6c" transform="translate(583.240234 0)"/>
     <use xlink:href="#DejaVuSans-61" transform="translate(611.023438 0)"/>
     <use xlink:href="#DejaVuSans-72" transform="translate(672.302734 0)"/>
     <use xlink:href="#DejaVuSans-69" transform="translate(713.416016 0)"/>
     <use xlink:href="#DejaVuSans-74" transform="translate(741.199219 0)"/>
     <use xlink:href="#DejaVuSans-79" transform="translate(780.408203 0)"/>
     <use xlink:href="#DejaVuSans-3a" transform="translate(832.337891 0)"/>
     <use xlink:href="#DejaVuSans-20" transform="translate(866.029297 0)"/>
     <use xlink:href="#DejaVuSans-55" transform="translate(897.816406 0)"/>
     <use xlink:href="#DejaVuSans-70" transform="translate(971.009766 0)"/>
     <use xlink:href="#DejaVuSans-76" transform="translate(1034.486328 0)"/>
     <use xlink:href="#DejaVuSans-6f" transform="translate(1093.666016 0)"/>
     <use xlink:href="#DejaVuSans-74" transform="translate(1154.847656 0)"/>
     <use xlink:href="#DejaVuSans-65" transform="translate(1194.056641 0)"/>
     <use xlink:href="#DejaVuSans-73" transform="translate(1255.580078 0)"/>
     <use xlink:href="#DejaVuSans-20" transform="translate(1307.679688 0)"/>
     <use xlink:href="#DejaVuSans-76" transform="translate(1339.466797 0)"/>
     <use xlink:href="#DejaVuSans-73" transform="translate(1398.646484 0)"/>
     <use xlink:href="#DejaVuSans-20" transform="translate(1450.746094 0)"/>
     <use xlink:href="#DejaVuSans-43" transform="translate(1482.533203 0)"/>
     <use xlink:href="#DejaVuSans-6f" transform="translate(1552.357422 0)"/>
     <use xlink:href="#DejaVuSans-6d" transform="translate(1613.539062 0)"/>
     <use xlink:href="#DejaVuSans-6d" transform="translate(1710.951172 0)"/>
     <use xlink:href="#DejaVuSans-65" transform="translate(1808.363281 0)"/>
     <use xlink:href="#DejaVuSans-6e" transform="translate(1869.886719 0)"/>
     <use xlink:href="#DejaVuSans-74" transform="translate(1933.265625 0)"/>
     <use xlink:href="#DejaVuSans-73" transform="translate(1972.474609 0)"/>
    </g>
   </g>
   <g id="legend_1">
    <g id="patch_27">
     <path d="M 97 95.234375 
L 247.95 95.234375 
Q 249.95 95.234375 249.95 93.234375 
L 249.95 50.2 
Q 249.95 48.2 247.95 48.2 
L 97 48.2 
Q 95 48.2 95 50.2 
L 95 93.234375 
Q 95 95.234375 97 95.234375 
z
" style="fill: #ffffff; opacity: 0.8; stroke: #cccccc; stroke-linejoin: miter"/>
    </g>
    <g id="line2d_50">
     <path d="M 99 56.298437 
L 109 56.298437 
L 119 56.298437 
" style="fill: none; stroke: #ffffff; stroke-width: 1.5; stroke-linecap: square"/>
     <defs>
      <path id="ma816aa95df" d="M 0 5 
C 1.326016 5 2.597899 4.473168 3.535534 3.535534 
C 4.473168 2.597899 5 1.326016 5 0 
C 5 -1.326016 4.473168 -2.597899 3.535534 -3.535534 
C 2.597899 -4.473168 1.326016 -5 0 -5 
C -1.326016 -5 -2.597899 -4.473168 -3.535534 -3.535534 
C -4.473168 -2.597899 -5 -1.326016 -5 0 
C -5 1.326016 -4.473168 2.597899 -3.535534 3.535534 
C -2.597899 4.473168 -1.326016 5 0 5 
z
" style="stroke: #ffffff"/>
     </defs>
     <g>
      <use xlink:href="#ma816aa95df" x="109" y="56.298437" style="fill: #0000ff; stroke: #ffffff"/>
     </g>
    </g>
    <g id="text_29">
     <!-- SFW Memes -->
     <g transform="translate(127 59.798437) scale(0.1 -0.1)">
      <defs>
       <path id="DejaVuSans-53" d="M 3425 4513 
L 3425 3897 
Q 3066 4069 2747 4153 
Q 2428 4238 2131 4238 
Q 1616 4238 1336 4038 
Q 1056 3838 1056 3469 
Q 1056 3159 1242 3001 
Q 1428 2844 1947 2747 
L 2328 2669 
Q 3034 2534 3370 2195 
Q 3706 1856 3706 1288 
Q 3706 609 3251 259 
Q 2797 -91 1919 -91 
Q 1588 -91 1214 -16 
Q 841 59 441 206 
L 441 856 
Q 825 641 1194 531 
Q 1563 422 1919 422 
Q 2459 422 2753 634 
Q 3047 847 3047 1241 
Q 3047 1584 2836 1778 
Q 2625 1972 2144 2069 
L 1759 2144 
Q 1053 2284 737 2584 
Q 422 2884 422 3419 
Q 422 4038 858 4394 
Q 1294 4750 2059 4750 
Q 2388 4750 2728 4690 
Q 3069 4631 3425 4513 
z
" transform="scale(0.015625)"/>
       <path id="DejaVuSans-46" d="M 628 4666 
L 3309 4666 
L 3309 4134 
L 1259 4134 
L 1259 2759 
L 3109 2759 
L 3109 2228 
L 1259 2228 
L 1259 0 
L 628 0 
L 628 4666 
z
" transform="scale(0.015625)"/>
       <path id="DejaVuSans-57" d="M 213 4666 
L 850 4666 
L 1831 722 
L 2809 4666 
L 3519 4666 
L 4500 722 
L 5478 4666 
L 6119 4666 
L 4947 0 
L 4153 0 
L 3169 4050 
L 2175 0 
L 1381 0 
L 213 4666 
z
" transform="scale(0.015625)"/>
      </defs>
      <use xlink:href="#DejaVuSans-53"/>
      <use xlink:href="#DejaVuSans-46" transform="translate(63.476562 0)"/>
      <use xlink:href="#DejaVuSans-57" transform="translate(120.996094 0)"/>
      <use xlink:href="#DejaVuSans-20" transform="translate(219.873047 0)"/>
      <use xlink:href="#DejaVuSans-4d" transform="translate(251.660156 0)"/>
      <use xlink:href="#DejaVuSans-65" transform="translate(337.939453 0)"/>
      <use xlink:href="#DejaVuSans-6d" transform="translate(399.462891 0)"/>
      <use xlink:href="#DejaVuSans-65" transform="translate(496.875 0)"/>
      <use xlink:href="#DejaVuSans-73" transform="translate(558.398438 0)"/>
     </g>
    </g>
    <g id="line2d_51">
     <path d="M 99 70.976562 
L 109 70.976562 
L 119 70.976562 
" style="fill: none; stroke: #ffffff; stroke-width: 1.5; stroke-linecap: square"/>
     <defs>
      <path id="m8004a62140" d="M 0 5 
C 1.326016 5 2.597899 4.473168 3.535534 3.535534 
C 4.473168 2.597899 5 1.326016 5 0 
C 5 -1.326016 4.473168 -2.597899 3.535534 -3.535534 
C 2.597899 -4.473168 1.326016 -5 0 -5 
C -1.326016 -5 -2.597899 -4.473168 -3.535534 -3.535534 
C -4.473168 -2.597899 -5 -1.326016 -5 0 
C -5 1.326016 -4.473168 2.597899 -3.535534 3.535534 
C -2.597899 4.473168 -1.326016 5 0 5 
z
" style="stroke: #ffffff"/>
     </defs>
     <g>
      <use xlink:href="#m8004a62140" x="109" y="70.976562" style="fill: #ff0000; stroke: #ffffff"/>
     </g>
    </g>
    <g id="text_30">
     <!-- NSFW Memes -->
     <g transform="translate(127 74.476562) scale(0.1 -0.1)">
      <defs>
       <path id="DejaVuSans-4e" d="M 628 4666 
L 1478 4666 
L 3547 763 
L 3547 4666 
L 4159 4666 
L 4159 0 
L 3309 0 
L 1241 3903 
L 1241 0 
L 628 0 
L 628 4666 
z
" transform="scale(0.015625)"/>
      </defs>
      <use xlink:href="#DejaVuSans-4e"/>
      <use xlink:href="#DejaVuSans-53" transform="translate(74.804688 0)"/>
      <use xlink:href="#DejaVuSans-46" transform="translate(138.28125 0)"/>
      <use xlink:href="#DejaVuSans-57" transform="translate(195.800781 0)"/>
      <use xlink:href="#DejaVuSans-20" transform="translate(294.677734 0)"/>
      <use xlink:href="#DejaVuSans-4d" transform="translate(326.464844 0)"/>
      <use xlink:href="#DejaVuSans-65" transform="translate(412.744141 0)"/>
      <use xlink:href="#DejaVuSans-6d" transform="translate(474.267578 0)"/>
      <use xlink:href="#DejaVuSans-65" transform="translate(571.679688 0)"/>
      <use xlink:href="#DejaVuSans-73" transform="translate(633.203125 0)"/>
     </g>
    </g>
    <g id="line2d_52">
     <path d="M 99 85.654687 
L 109 85.654687 
L 119 85.654687 
" style="fill: none; stroke: #000000; stroke-width: 1.5; stroke-linecap: square"/>
     <defs>
      <path id="m1a561dea88" d="M -5 5 
L 5 5 
L 5 -5 
L -5 -5 
z
" style="stroke: #000000; stroke-linejoin: miter"/>
     </defs>
     <g>
      <use xlink:href="#m1a561dea88" x="109" y="85.654687" style="stroke: #000000; stroke-linejoin: miter"/>
     </g>
    </g>
    <g id="text_31">
     <!-- Numbers = Meme Rank -->
     <g transform="translate(127 89.154687) scale(0.1 -0.1)">
      <defs>
       <path id="DejaVuSans-62" d="M 3116 1747 
Q 3116 2381 2855 2742 
Q 2594 3103 2138 3103 
Q 1681 3103 1420 2742 
Q 1159 2381 1159 1747 
Q 1159 1113 1420 752 
Q 1681 391 2138 391 
Q 2594 391 2855 752 
Q 3116 1113 3116 1747 
z
M 1159 2969 
Q 1341 3281 1617 3432 
Q 1894 3584 2278 3584 
Q 2916 3584 3314 3078 
Q 3713 2572 3713 1747 
Q 3713 922 3314 415 
Q 2916 -91 2278 -91 
Q 1894 -91 1617 61 
Q 1341 213 1159 525 
L 1159 0 
L 581 0 
L 581 4863 
L 1159 4863 
L 1159 2969 
z
" transform="scale(0.015625)"/>
       <path id="DejaVuSans-3d" d="M 678 2906 
L 4684 2906 
L 4684 2381 
L 678 2381 
L 678 2906 
z
M 678 1631 
L 4684 1631 
L 4684 1100 
L 678 1100 
L 678 1631 
z
" transform="scale(0.015625)"/>
       <path id="DejaVuSans-52" d="M 2841 2188 
Q 3044 2119 3236 1894 
Q 3428 1669 3622 1275 
L 4263 0 
L 3584 0 
L 2988 1197 
Q 2756 1666 2539 1819 
Q 2322 1972 1947 1972 
L 1259 1972 
L 1259 0 
L 628 0 
L 628 4666 
L 2053 4666 
Q 2853 4666 3247 4331 
Q 3641 3997 3641 3322 
Q 3641 2881 3436 2590 
Q 3231 2300 2841 2188 
z
M 1259 4147 
L 1259 2491 
L 2053 2491 
Q 2509 2491 2742 2702 
Q 2975 2913 2975 3322 
Q 2975 3731 2742 3939 
Q 2509 4147 2053 4147 
L 1259 4147 
z
" transform="scale(0.015625)"/>
       <path id="DejaVuSans-6b" d="M 581 4863 
L 1159 4863 
L 1159 1991 
L 2875 3500 
L 3609 3500 
L 1753 1863 
L 3688 0 
L 2938 0 
L 1159 1709 
L 1159 0 
L 581 0 
L 581 4863 
z
" transform="scale(0.015625)"/>
      </defs>
      <use xlink:href="#DejaVuSans-4e"/>
      <use xlink:href="#DejaVuSans-75" transform="translate(74.804688 0)"/>
      <use xlink:href="#DejaVuSans-6d" transform="translate(138.183594 0)"/>
      <use xlink:href="#DejaVuSans-62" transform="translate(235.595703 0)"/>
      <use xlink:href="#DejaVuSans-65" transform="translate(299.072266 0)"/>
      <use xlink:href="#DejaVuSans-72" transform="translate(360.595703 0)"/>
      <use xlink:href="#DejaVuSans-73" transform="translate(401.708984 0)"/>
      <use xlink:href="#DejaVuSans-20" transform="translate(453.808594 0)"/>
      <use xlink:href="#DejaVuSans-3d" transform="translate(485.595703 0)"/>
      <use xlink:href="#DejaVuSans-20" transform="translate(569.384766 0)"/>
      <use xlink:href="#DejaVuSans-4d" transform="translate(601.171875 0)"/>
      <use xlink:href="#DejaVuSans-65" transform="translate(687.451172 0)"/>
      <use xlink:href="#DejaVuSans-6d" transform="translate(748.974609 0)"/>
      <use xlink:href="#DejaVuSans-65" transform="translate(846.386719 0)"/>
      <use xlink:href="#DejaVuSans-20" transform="translate(907.910156 0)"/>
      <use xlink:href="#DejaVuSans-52" transform="translate(939.697266 0)"/>
      <use xlink:href="#DejaVuSans-61" transform="translate(1006.929688 0)"/>
      <use xlink:href="#DejaVuSans-6e" transform="translate(1068.208984 0)"/>
      <use xlink:href="#DejaVuSans-6b" transform="translate(1131.587891 0)"/>
     </g>
    </g>
   </g>
  </g>
 </g>
 <defs>
  <clipPath id="p36579e46c1">
   <rect x="90" y="43.2" width="558" height="277.2"/>
  </clipPath>
 </defs>
</svg>
