<?xml version="1.0" encoding="utf-8" standalone="no"?>
<!DOCTYPE svg PUBLIC "-//W3C//DTD SVG 1.1//EN"
  "http://www.w3.org/Graphics/SVG/1.1/DTD/svg11.dtd">
<svg xmlns:xlink="http://www.w3.org/1999/xlink" width="720pt" height="360pt" viewBox="0 0 720 360" xmlns="http://www.w3.org/2000/svg" version="1.1">
 <metadata>
  <rdf:RDF xmlns:dc="http://purl.org/dc/elements/1.1/" xmlns:cc="http://creativecommons.org/ns#" xmlns:rdf="http://www.w3.org/1999/02/22-rdf-syntax-ns#">
   <cc:Work>
    <dc:type rdf:resource="http://purl.org/dc/dcmitype/StillImage"/>
    <dc:date>2025-03-13T16:55:43.371083</dc:date>
    <dc:format>image/svg+xml</dc:format>
    <dc:creator>
     <cc:Agent>
      <dc:title>Matplotlib v3.10.1, https://matplotlib.org/</dc:title>
     </cc:Agent>
    </dc:creator>
   </cc:Work>
  </rdf:RDF>
 </metadata>
 <defs>
  <style type="text/css">*{stroke-linejoin: round; stroke-linecap: butt}</style>
 </defs>
 <g id="figure_1">
  <g id="patch_1">
   <path d="M 0 360 
L 720 360 
L 720 0 
L 0 0 
z
" style="fill: #ffffff"/>
  </g>
  <g id="axes_1">
   <g id="patch_2">
    <path d="M 90 320.4 
L 648 320.4 
L 648 43.2 
L 90 43.2 
z
" style="fill: #ffffff"/>
   </g>
   <g id="PathCollection_1">
    <path d="M 622.636364 122.664189 
C 624.910007 122.664189 627.090833 121.760861 628.698541 120.153152 
C 630.30625 118.545444 631.209578 116.364617 631.209578 114.090974 
C 631.209578 111.817332 630.30625 109.636505 628.698541 108.028797 
C 627.090833 106.421088 624.910007 105.51776 622.636364 105.51776 
C 620.362721 105.51776 618.181894 106.421088 616.574186 108.028797 
C 614.966477 109.636505 614.06315 111.817332 614.06315 114.090974 
C 614.06315 116.364617 614.966477 118.545444 616.574186 120.153152 
C 618.181894 121.760861 620.362721 122.664189 622.636364 122.664189 
z
" clip-path="url(#pbd6cb5e4c8)" style="fill: #0000ff; fill-opacity: 0.7; stroke: #000000; stroke-opacity: 0.7"/>
    <path d="M 540.648593 143.012224 
C 542.922236 143.012224 545.103063 142.108896 546.710771 140.501188 
C 548.318479 138.89348 549.221807 136.712653 549.221807 134.43901 
C 549.221807 132.165367 548.318479 129.984541 546.710771 128.376832 
C 545.103063 126.769124 542.922236 125.865796 540.648593 125.865796 
C 538.37495 125.865796 536.194124 126.769124 534.586415 128.376832 
C 532.978707 129.984541 532.075379 132.165367 532.075379 134.43901 
C 532.075379 136.712653 532.978707 138.89348 534.586415 140.501188 
C 536.194124 142.108896 538.37495 143.012224 540.648593 143.012224 
z
" clip-path="url(#pbd6cb5e4c8)" style="fill: #0000ff; fill-opacity: 0.7; stroke: #000000; stroke-opacity: 0.7"/>
    <path d="M 531.1058 171.65377 
C 533.356123 171.65377 535.514581 170.759708 537.1058 169.168489 
C 538.697019 167.57727 539.591081 165.418812 539.591081 163.168489 
C 539.591081 160.918166 538.697019 158.759708 537.1058 157.168489 
C 535.514581 155.57727 533.356123 154.683208 531.1058 154.683208 
C 528.855477 154.683208 526.697019 155.57727 525.1058 157.168489 
C 523.514581 158.759708 522.620519 160.918166 522.620519 163.168489 
C 522.620519 165.418812 523.514581 167.57727 525.1058 169.168489 
C 526.697019 170.759708 528.855477 171.65377 531.1058 171.65377 
z
" clip-path="url(#pbd6cb5e4c8)" style="fill: #ff0000; fill-opacity: 0.7; stroke: #000000; stroke-opacity: 0.7"/>
    <path d="M 470.962942 185.225231 
C 473.248155 185.225231 475.44008 184.317306 477.055971 182.701416 
C 478.671861 181.085525 479.579786 178.8936 479.579786 176.608387 
C 479.579786 174.323173 478.671861 172.131248 477.055971 170.515358 
C 475.44008 168.899468 473.248155 167.991543 470.962942 167.991543 
C 468.677728 167.991543 466.485803 168.899468 464.869913 170.515358 
C 463.254023 172.131248 462.346098 174.323173 462.346098 176.608387 
C 462.346098 178.8936 463.254023 181.085525 464.869913 182.701416 
C 466.485803 184.317306 468.677728 185.225231 470.962942 185.225231 
z
" clip-path="url(#pbd6cb5e4c8)" style="fill: #0000ff; fill-opacity: 0.7; stroke: #000000; stroke-opacity: 0.7"/>
    <path d="M 465.197258 63.737254 
C 467.302243 63.737254 469.321296 62.900935 470.809744 61.412486 
C 472.298193 59.924037 473.134512 57.904984 473.134512 55.8 
C 473.134512 53.695016 472.298193 51.675963 470.809744 50.187514 
C 469.321296 48.699065 467.302243 47.862746 465.197258 47.862746 
C 463.092274 47.862746 461.073221 48.699065 459.584772 50.187514 
C 458.096324 51.675963 457.260004 53.695016 457.260004 55.8 
C 457.260004 57.904984 458.096324 59.924037 459.584772 61.412486 
C 461.073221 62.900935 463.092274 63.737254 465.197258 63.737254 
z
" clip-path="url(#pbd6cb5e4c8)" style="fill: #0000ff; fill-opacity: 0.7; stroke: #000000; stroke-opacity: 0.7"/>
    <path d="M 453.088204 194.587119 
C 455.373418 194.587119 457.565343 193.679194 459.181233 192.063304 
C 460.797123 190.447414 461.705048 188.255489 461.705048 185.970275 
C 461.705048 183.685061 460.797123 181.493136 459.181233 179.877246 
C 457.565343 178.261356 455.373418 177.353431 453.088204 177.353431 
C 450.80299 177.353431 448.611065 178.261356 446.995175 179.877246 
C 445.379285 181.493136 444.47136 183.685061 444.47136 185.970275 
C 444.47136 188.255489 445.379285 190.447414 446.995175 192.063304 
C 448.611065 193.679194 450.80299 194.587119 453.088204 194.587119 
z
" clip-path="url(#pbd6cb5e4c8)" style="fill: #0000ff; fill-opacity: 0.7; stroke: #000000; stroke-opacity: 0.7"/>
    <path d="M 449.746956 145.479999 
C 452.020599 145.479999 454.201426 144.576671 455.809134 142.968963 
C 457.416842 141.361255 458.32017 139.180428 458.32017 136.906785 
C 458.32017 134.633142 457.416842 132.452316 455.809134 130.844607 
C 454.201426 129.236899 452.020599 128.333571 449.746956 128.333571 
C 447.473313 128.333571 445.292487 129.236899 443.684778 130.844607 
C 442.07707 132.452316 441.173742 134.633142 441.173742 136.906785 
C 441.173742 139.180428 442.07707 141.361255 443.684778 142.968963 
C 445.292487 144.576671 447.473313 145.479999 449.746956 145.479999 
z
" clip-path="url(#pbd6cb5e4c8)" style="fill: #0000ff; fill-opacity: 0.7; stroke: #000000; stroke-opacity: 0.7"/>
    <path d="M 447.413857 123.916609 
C 449.67587 123.916609 451.845541 123.017902 453.445026 121.418417 
C 455.044511 119.818932 455.943218 117.649261 455.943218 115.387248 
C 455.943218 113.125235 455.044511 110.955564 453.445026 109.356079 
C 451.845541 107.756594 449.67587 106.857887 447.413857 106.857887 
C 445.151844 106.857887 442.982173 107.756594 441.382688 109.356079 
C 439.783203 110.955564 438.884496 113.125235 438.884496 115.387248 
C 438.884496 117.649261 439.783203 119.818932 441.382688 121.418417 
C 442.982173 123.017902 445.151844 123.916609 447.413857 123.916609 
z
" clip-path="url(#pbd6cb5e4c8)" style="fill: #0000ff; fill-opacity: 0.7; stroke: #000000; stroke-opacity: 0.7"/>
    <path d="M 439.327751 208.177529 
C 441.612965 208.177529 443.80489 207.269603 445.42078 205.653713 
C 447.03667 204.037823 447.944595 201.845898 447.944595 199.560685 
C 447.944595 197.275471 447.03667 195.083546 445.42078 193.467656 
C 443.80489 191.851766 441.612965 190.943841 439.327751 190.943841 
C 437.042537 190.943841 434.850612 191.851766 433.234722 193.467656 
C 431.618832 195.083546 430.710907 197.275471 430.710907 199.560685 
C 430.710907 201.845898 431.618832 204.037823 433.234722 205.653713 
C 434.850612 207.269603 437.042537 208.177529 439.327751 208.177529 
z
" clip-path="url(#pbd6cb5e4c8)" style="fill: #0000ff; fill-opacity: 0.7; stroke: #000000; stroke-opacity: 0.7"/>
    <path d="M 445.460008 221.977731 
C 447.745221 221.977731 449.937146 221.069806 451.553036 219.453915 
C 453.168927 217.838025 454.076852 215.6461 454.076852 213.360887 
C 454.076852 211.075673 453.168927 208.883748 451.553036 207.267858 
C 449.937146 205.651968 447.745221 204.744043 445.460008 204.744043 
C 443.174794 204.744043 440.982869 205.651968 439.366979 207.267858 
C 437.751089 208.883748 436.843164 211.075673 436.843164 213.360887 
C 436.843164 215.6461 437.751089 217.838025 439.366979 219.453915 
C 440.982869 221.069806 443.174794 221.977731 445.460008 221.977731 
z
" clip-path="url(#pbd6cb5e4c8)" style="fill: #0000ff; fill-opacity: 0.7; stroke: #000000; stroke-opacity: 0.7"/>
    <path d="M 270.680789 246.497648 
C 272.966003 246.497648 275.157928 245.589723 276.773818 243.973833 
C 278.389708 242.357943 279.297633 240.166018 279.297633 237.880804 
C 279.297633 235.59559 278.389708 233.403665 276.773818 231.787775 
C 275.157928 230.171885 272.966003 229.26396 270.680789 229.26396 
C 268.395575 229.26396 266.20365 230.171885 264.58776 231.787775 
C 262.97187 233.403665 262.063945 235.59559 262.063945 237.880804 
C 262.063945 240.166018 262.97187 242.357943 264.58776 243.973833 
C 266.20365 245.589723 268.395575 246.497648 270.680789 246.497648 
z
" clip-path="url(#pbd6cb5e4c8)" style="fill: #0000ff; fill-opacity: 0.7; stroke: #000000; stroke-opacity: 0.7"/>
    <path d="M 218.314986 259.515202 
C 220.588629 259.515202 222.769456 258.611874 224.377164 257.004166 
C 225.984872 255.396458 226.8882 253.215631 226.8882 250.941988 
C 226.8882 248.668345 225.984872 246.487519 224.377164 244.87981 
C 222.769456 243.272102 220.588629 242.368774 218.314986 242.368774 
C 216.041343 242.368774 213.860517 243.272102 212.252808 244.87981 
C 210.6451 246.487519 209.741772 248.668345 209.741772 250.941988 
C 209.741772 253.215631 210.6451 255.396458 212.252808 257.004166 
C 213.860517 258.611874 216.041343 259.515202 218.314986 259.515202 
z
" clip-path="url(#pbd6cb5e4c8)" style="fill: #0000ff; fill-opacity: 0.7; stroke: #000000; stroke-opacity: 0.7"/>
    <path d="M 214.737047 221.890248 
C 216.99906 221.890248 219.168731 220.99154 220.768216 219.392056 
C 222.367701 217.792571 223.266408 215.6229 223.266408 213.360887 
C 223.266408 211.098874 222.367701 208.929202 220.768216 207.329718 
C 219.168731 205.730233 216.99906 204.831526 214.737047 204.831526 
C 212.475034 204.831526 210.305363 205.730233 208.705878 207.329718 
C 207.106393 208.929202 206.207686 211.098874 206.207686 213.360887 
C 206.207686 215.6229 207.106393 217.792571 208.705878 219.392056 
C 210.305363 220.99154 212.475034 221.890248 214.737047 221.890248 
z
" clip-path="url(#pbd6cb5e4c8)" style="fill: #0000ff; fill-opacity: 0.7; stroke: #000000; stroke-opacity: 0.7"/>
    <path d="M 204.33741 212.649762 
C 206.575982 212.649762 208.723169 211.760368 210.306078 210.177459 
C 211.888988 208.59455 212.778382 206.447363 212.778382 204.208791 
C 212.778382 201.970219 211.888988 199.823032 210.306078 198.240123 
C 208.723169 196.657213 206.575982 195.767819 204.33741 195.767819 
C 202.098838 195.767819 199.951651 196.657213 198.368742 198.240123 
C 196.785833 199.823032 195.896439 201.970219 195.896439 204.208791 
C 195.896439 206.447363 196.785833 208.59455 198.368742 210.177459 
C 199.951651 211.760368 202.098838 212.649762 204.33741 212.649762 
z
" clip-path="url(#pbd6cb5e4c8)" style="fill: #0000ff; fill-opacity: 0.7; stroke: #000000; stroke-opacity: 0.7"/>
    <path d="M 208.726088 141.382697 
C 210.880608 141.382697 212.947175 140.526697 214.470651 139.003221 
C 215.994127 137.479745 216.850127 135.413179 216.850127 133.258659 
C 216.850127 131.104138 215.994127 129.037572 214.470651 127.514096 
C 212.947175 125.99062 210.880608 125.13462 208.726088 125.13462 
C 206.571568 125.13462 204.505001 125.99062 202.981526 127.514096 
C 201.45805 129.037572 200.60205 131.104138 200.60205 133.258659 
C 200.60205 135.413179 201.45805 137.479745 202.981526 139.003221 
C 204.505001 140.526697 206.571568 141.382697 208.726088 141.382697 
z
" clip-path="url(#pbd6cb5e4c8)" style="fill: #0000ff; fill-opacity: 0.7; stroke: #000000; stroke-opacity: 0.7"/>
    <path d="M 235.320059 271.401346 
C 237.616785 271.401346 239.819753 270.488847 241.443784 268.864816 
C 243.067814 267.240785 243.980313 265.037818 243.980313 262.741092 
C 243.980313 260.444366 243.067814 258.241398 241.443784 256.617367 
C 239.819753 254.993337 237.616785 254.080838 235.320059 254.080838 
C 233.023333 254.080838 230.820366 254.993337 229.196335 256.617367 
C 227.572304 258.241398 226.659805 260.444366 226.659805 262.741092 
C 226.659805 265.037818 227.572304 267.240785 229.196335 268.864816 
C 230.820366 270.488847 233.023333 271.401346 235.320059 271.401346 
z
" clip-path="url(#pbd6cb5e4c8)" style="fill: #0000ff; fill-opacity: 0.7; stroke: #000000; stroke-opacity: 0.7"/>
    <path d="M 161.299681 316.373214 
C 163.573324 316.373214 165.75415 315.469886 167.361859 313.862178 
C 168.969567 312.254469 169.872895 310.073643 169.872895 307.8 
C 169.872895 305.526357 168.969567 303.345531 167.361859 301.737822 
C 165.75415 300.130114 163.573324 299.226786 161.299681 299.226786 
C 159.026038 299.226786 156.845211 300.130114 155.237503 301.737822 
C 153.629795 303.345531 152.726467 305.526357 152.726467 307.8 
C 152.726467 310.073643 153.629795 312.254469 155.237503 313.862178 
C 156.845211 315.469886 159.026038 316.373214 161.299681 316.373214 
z
" clip-path="url(#pbd6cb5e4c8)" style="fill: #0000ff; fill-opacity: 0.7; stroke: #000000; stroke-opacity: 0.7"/>
    <path d="M 148.157452 198.669945 
C 150.348389 198.669945 152.449886 197.799476 153.999113 196.25025 
C 155.548339 194.701023 156.418808 192.599526 156.418808 190.408589 
C 156.418808 188.217652 155.548339 186.116155 153.999113 184.566928 
C 152.449886 183.017702 150.348389 182.147233 148.157452 182.147233 
C 145.966515 182.147233 143.865018 183.017702 142.315791 184.566928 
C 140.766565 186.116155 139.896096 188.217652 139.896096 190.408589 
C 139.896096 192.599526 140.766565 194.701023 142.315791 196.25025 
C 143.865018 197.799476 145.966515 198.669945 148.157452 198.669945 
z
" clip-path="url(#pbd6cb5e4c8)" style="fill: #0000ff; fill-opacity: 0.7; stroke: #000000; stroke-opacity: 0.7"/>
    <path d="M 126.731663 231.086196 
C 129.005306 231.086196 131.186133 230.182869 132.793841 228.57516 
C 134.401549 226.967452 135.304877 224.786625 135.304877 222.512982 
C 135.304877 220.239339 134.401549 218.058513 132.793841 216.450805 
C 131.186133 214.843096 129.005306 213.939768 126.731663 213.939768 
C 124.45802 213.939768 122.277194 214.843096 120.669485 216.450805 
C 119.061777 218.058513 118.158449 220.239339 118.158449 222.512982 
C 118.158449 224.786625 119.061777 226.967452 120.669485 228.57516 
C 122.277194 230.182869 124.45802 231.086196 126.731663 231.086196 
z
" clip-path="url(#pbd6cb5e4c8)" style="fill: #0000ff; fill-opacity: 0.7; stroke: #000000; stroke-opacity: 0.7"/>
    <path d="M 115.363636 254.684403 
C 117.637279 254.684403 119.818106 253.781076 121.425814 252.173367 
C 123.033523 250.565659 123.93685 248.384832 123.93685 246.111189 
C 123.93685 243.837546 123.033523 241.65672 121.425814 240.049012 
C 119.818106 238.441303 117.637279 237.537975 115.363636 237.537975 
C 113.089993 237.537975 110.909167 238.441303 109.301459 240.049012 
C 107.69375 241.65672 106.790422 243.837546 106.790422 246.111189 
C 106.790422 248.384832 107.69375 250.565659 109.301459 252.173367 
C 110.909167 253.781076 113.089993 254.684403 115.363636 254.684403 
z
" clip-path="url(#pbd6cb5e4c8)" style="fill: #0000ff; fill-opacity: 0.7; stroke: #000000; stroke-opacity: 0.7"/>
   </g>
   <g id="matplotlib.axis_1">
    <g id="xtick_1">
     <g id="line2d_1">
      <path d="M 206.350209 320.4 
L 206.350209 43.2 
" clip-path="url(#pbd6cb5e4c8)" style="fill: none; stroke: #b0b0b0; stroke-width: 0.8; stroke-linecap: square"/>
     </g>
     <g id="line2d_2">
      <defs>
       <path id="ma6231a4622" d="M 0 0 
L 0 3.5 
" style="stroke: #000000; stroke-width: 0.8"/>
      </defs>
      <g>
       <use xlink:href="#ma6231a4622" x="206.350209" y="320.4" style="stroke: #000000; stroke-width: 0.8"/>
      </g>
     </g>
     <g id="text_1">
      <!-- $\mathdefault{10^{3}}$ -->
      <g transform="translate(197.550209 334.998438) scale(0.1 -0.1)">
       <defs>
        <path id="DejaVuSans-31" d="M 794 531 
L 1825 531 
L 1825 4091 
L 703 3866 
L 703 4441 
L 1819 4666 
L 2450 4666 
L 2450 531 
L 3481 531 
L 3481 0 
L 794 0 
L 794 531 
z
" transform="scale(0.015625)"/>
        <path id="DejaVuSans-30" d="M 2034 4250 
Q 1547 4250 1301 3770 
Q 1056 3291 1056 2328 
Q 1056 1369 1301 889 
Q 1547 409 2034 409 
Q 2525 409 2770 889 
Q 3016 1369 3016 2328 
Q 3016 3291 2770 3770 
Q 2525 4250 2034 4250 
z
M 2034 4750 
Q 2819 4750 3233 4129 
Q 3647 3509 3647 2328 
Q 3647 1150 3233 529 
Q 2819 -91 2034 -91 
Q 1250 -91 836 529 
Q 422 1150 422 2328 
Q 422 3509 836 4129 
Q 1250 4750 2034 4750 
z
" transform="scale(0.015625)"/>
        <path id="DejaVuSans-33" d="M 2597 2516 
Q 3050 2419 3304 2112 
Q 3559 1806 3559 1356 
Q 3559 666 3084 287 
Q 2609 -91 1734 -91 
Q 1441 -91 1130 -33 
Q 819 25 488 141 
L 488 750 
Q 750 597 1062 519 
Q 1375 441 1716 441 
Q 2309 441 2620 675 
Q 2931 909 2931 1356 
Q 2931 1769 2642 2001 
Q 2353 2234 1838 2234 
L 1294 2234 
L 1294 2753 
L 1863 2753 
Q 2328 2753 2575 2939 
Q 2822 3125 2822 3475 
Q 2822 3834 2567 4026 
Q 2313 4219 1838 4219 
Q 1578 4219 1281 4162 
Q 984 4106 628 3988 
L 628 4550 
Q 988 4650 1302 4700 
Q 1616 4750 1894 4750 
Q 2613 4750 3031 4423 
Q 3450 4097 3450 3541 
Q 3450 3153 3228 2886 
Q 3006 2619 2597 2516 
z
" transform="scale(0.015625)"/>
       </defs>
       <use xlink:href="#DejaVuSans-31" transform="translate(0 0.765625)"/>
       <use xlink:href="#DejaVuSans-30" transform="translate(63.623047 0.765625)"/>
       <use xlink:href="#DejaVuSans-33" transform="translate(128.203125 39.046875) scale(0.7)"/>
      </g>
     </g>
    </g>
    <g id="xtick_2">
     <g id="line2d_3">
      <path d="M 513.003155 320.4 
L 513.003155 43.2 
" clip-path="url(#pbd6cb5e4c8)" style="fill: none; stroke: #b0b0b0; stroke-width: 0.8; stroke-linecap: square"/>
     </g>
     <g id="line2d_4">
      <g>
       <use xlink:href="#ma6231a4622" x="513.003155" y="320.4" style="stroke: #000000; stroke-width: 0.8"/>
      </g>
     </g>
     <g id="text_2">
      <!-- $\mathdefault{10^{4}}$ -->
      <g transform="translate(504.203155 334.998438) scale(0.1 -0.1)">
       <defs>
        <path id="DejaVuSans-34" d="M 2419 4116 
L 825 1625 
L 2419 1625 
L 2419 4116 
z
M 2253 4666 
L 3047 4666 
L 3047 1625 
L 3713 1625 
L 3713 1100 
L 3047 1100 
L 3047 0 
L 2419 0 
L 2419 1100 
L 313 1100 
L 313 1709 
L 2253 4666 
z
" transform="scale(0.015625)"/>
       </defs>
       <use xlink:href="#DejaVuSans-31" transform="translate(0 0.684375)"/>
       <use xlink:href="#DejaVuSans-30" transform="translate(63.623047 0.684375)"/>
       <use xlink:href="#DejaVuSans-34" transform="translate(128.203125 38.965625) scale(0.7)"/>
      </g>
     </g>
    </g>
    <g id="xtick_3">
     <g id="line2d_5">
      <defs>
       <path id="m6558d7c012" d="M 0 0 
L 0 2 
" style="stroke: #000000; stroke-width: 0.6"/>
      </defs>
      <g>
       <use xlink:href="#m6558d7c012" x="114.038474" y="320.4" style="stroke: #000000; stroke-width: 0.6"/>
      </g>
     </g>
    </g>
    <g id="xtick_4">
     <g id="line2d_6">
      <g>
       <use xlink:href="#m6558d7c012" x="138.319637" y="320.4" style="stroke: #000000; stroke-width: 0.6"/>
      </g>
     </g>
    </g>
    <g id="xtick_5">
     <g id="line2d_7">
      <g>
       <use xlink:href="#m6558d7c012" x="158.849067" y="320.4" style="stroke: #000000; stroke-width: 0.6"/>
      </g>
     </g>
    </g>
    <g id="xtick_6">
     <g id="line2d_8">
      <g>
       <use xlink:href="#m6558d7c012" x="176.632468" y="320.4" style="stroke: #000000; stroke-width: 0.6"/>
      </g>
     </g>
    </g>
    <g id="xtick_7">
     <g id="line2d_9">
      <g>
       <use xlink:href="#m6558d7c012" x="192.31854" y="320.4" style="stroke: #000000; stroke-width: 0.6"/>
      </g>
     </g>
    </g>
    <g id="xtick_8">
     <g id="line2d_10">
      <g>
       <use xlink:href="#m6558d7c012" x="298.661944" y="320.4" style="stroke: #000000; stroke-width: 0.6"/>
      </g>
     </g>
    </g>
    <g id="xtick_9">
     <g id="line2d_11">
      <g>
       <use xlink:href="#m6558d7c012" x="352.660848" y="320.4" style="stroke: #000000; stroke-width: 0.6"/>
      </g>
     </g>
    </g>
    <g id="xtick_10">
     <g id="line2d_12">
      <g>
       <use xlink:href="#m6558d7c012" x="390.973679" y="320.4" style="stroke: #000000; stroke-width: 0.6"/>
      </g>
     </g>
    </g>
    <g id="xtick_11">
     <g id="line2d_13">
      <g>
       <use xlink:href="#m6558d7c012" x="420.69142" y="320.4" style="stroke: #000000; stroke-width: 0.6"/>
      </g>
     </g>
    </g>
    <g id="xtick_12">
     <g id="line2d_14">
      <g>
       <use xlink:href="#m6558d7c012" x="444.972583" y="320.4" style="stroke: #000000; stroke-width: 0.6"/>
      </g>
     </g>
    </g>
    <g id="xtick_13">
     <g id="line2d_15">
      <g>
       <use xlink:href="#m6558d7c012" x="465.502013" y="320.4" style="stroke: #000000; stroke-width: 0.6"/>
      </g>
     </g>
    </g>
    <g id="xtick_14">
     <g id="line2d_16">
      <g>
       <use xlink:href="#m6558d7c012" x="483.285414" y="320.4" style="stroke: #000000; stroke-width: 0.6"/>
      </g>
     </g>
    </g>
    <g id="xtick_15">
     <g id="line2d_17">
      <g>
       <use xlink:href="#m6558d7c012" x="498.971486" y="320.4" style="stroke: #000000; stroke-width: 0.6"/>
      </g>
     </g>
    </g>
    <g id="xtick_16">
     <g id="line2d_18">
      <g>
       <use xlink:href="#m6558d7c012" x="605.31489" y="320.4" style="stroke: #000000; stroke-width: 0.6"/>
      </g>
     </g>
    </g>
    <g id="text_3">
     <!-- Upvotes -->
     <g transform="translate(348.50625 348.676562) scale(0.1 -0.1)">
      <defs>
       <path id="DejaVuSans-55" d="M 556 4666 
L 1191 4666 
L 1191 1831 
Q 1191 1081 1462 751 
Q 1734 422 2344 422 
Q 2950 422 3222 751 
Q 3494 1081 3494 1831 
L 3494 4666 
L 4128 4666 
L 4128 1753 
Q 4128 841 3676 375 
Q 3225 -91 2344 -91 
Q 1459 -91 1007 375 
Q 556 841 556 1753 
L 556 4666 
z
" transform="scale(0.015625)"/>
       <path id="DejaVuSans-70" d="M 1159 525 
L 1159 -1331 
L 581 -1331 
L 581 3500 
L 1159 3500 
L 1159 2969 
Q 1341 3281 1617 3432 
Q 1894 3584 2278 3584 
Q 2916 3584 3314 3078 
Q 3713 2572 3713 1747 
Q 3713 922 3314 415 
Q 2916 -91 2278 -91 
Q 1894 -91 1617 61 
Q 1341 213 1159 525 
z
M 3116 1747 
Q 3116 2381 2855 2742 
Q 2594 3103 2138 3103 
Q 1681 3103 1420 2742 
Q 1159 2381 1159 1747 
Q 1159 1113 1420 752 
Q 1681 391 2138 391 
Q 2594 391 2855 752 
Q 3116 1113 3116 1747 
z
" transform="scale(0.015625)"/>
       <path id="DejaVuSans-76" d="M 191 3500 
L 800 3500 
L 1894 563 
L 2988 3500 
L 3597 3500 
L 2284 0 
L 1503 0 
L 191 3500 
z
" transform="scale(0.015625)"/>
       <path id="DejaVuSans-6f" d="M 1959 3097 
Q 1497 3097 1228 2736 
Q 959 2375 959 1747 
Q 959 1119 1226 758 
Q 1494 397 1959 397 
Q 2419 397 2687 759 
Q 2956 1122 2956 1747 
Q 2956 2369 2687 2733 
Q 2419 3097 1959 3097 
z
M 1959 3584 
Q 2709 3584 3137 3096 
Q 3566 2609 3566 1747 
Q 3566 888 3137 398 
Q 2709 -91 1959 -91 
Q 1206 -91 779 398 
Q 353 888 353 1747 
Q 353 2609 779 3096 
Q 1206 3584 1959 3584 
z
" transform="scale(0.015625)"/>
       <path id="DejaVuSans-74" d="M 1172 4494 
L 1172 3500 
L 2356 3500 
L 2356 3053 
L 1172 3053 
L 1172 1153 
Q 1172 725 1289 603 
Q 1406 481 1766 481 
L 2356 481 
L 2356 0 
L 1766 0 
Q 1100 0 847 248 
Q 594 497 594 1153 
L 594 3053 
L 172 3053 
L 172 3500 
L 594 3500 
L 594 4494 
L 1172 4494 
z
" transform="scale(0.015625)"/>
       <path id="DejaVuSans-65" d="M 3597 1894 
L 3597 1613 
L 953 1613 
Q 991 1019 1311 708 
Q 1631 397 2203 397 
Q 2534 397 2845 478 
Q 3156 559 3463 722 
L 3463 178 
Q 3153 47 2828 -22 
Q 2503 -91 2169 -91 
Q 1331 -91 842 396 
Q 353 884 353 1716 
Q 353 2575 817 3079 
Q 1281 3584 2069 3584 
Q 2775 3584 3186 3129 
Q 3597 2675 3597 1894 
z
M 3022 2063 
Q 3016 2534 2758 2815 
Q 2500 3097 2075 3097 
Q 1594 3097 1305 2825 
Q 1016 2553 972 2059 
L 3022 2063 
z
" transform="scale(0.015625)"/>
       <path id="DejaVuSans-73" d="M 2834 3397 
L 2834 2853 
Q 2591 2978 2328 3040 
Q 2066 3103 1784 3103 
Q 1356 3103 1142 2972 
Q 928 2841 928 2578 
Q 928 2378 1081 2264 
Q 1234 2150 1697 2047 
L 1894 2003 
Q 2506 1872 2764 1633 
Q 3022 1394 3022 966 
Q 3022 478 2636 193 
Q 2250 -91 1575 -91 
Q 1294 -91 989 -36 
Q 684 19 347 128 
L 347 722 
Q 666 556 975 473 
Q 1284 391 1588 391 
Q 1994 391 2212 530 
Q 2431 669 2431 922 
Q 2431 1156 2273 1281 
Q 2116 1406 1581 1522 
L 1381 1569 
Q 847 1681 609 1914 
Q 372 2147 372 2553 
Q 372 3047 722 3315 
Q 1072 3584 1716 3584 
Q 2034 3584 2315 3537 
Q 2597 3491 2834 3397 
z
" transform="scale(0.015625)"/>
      </defs>
      <use xlink:href="#DejaVuSans-55"/>
      <use xlink:href="#DejaVuSans-70" transform="translate(73.193359 0)"/>
      <use xlink:href="#DejaVuSans-76" transform="translate(136.669922 0)"/>
      <use xlink:href="#DejaVuSans-6f" transform="translate(195.849609 0)"/>
      <use xlink:href="#DejaVuSans-74" transform="translate(257.03125 0)"/>
      <use xlink:href="#DejaVuSans-65" transform="translate(296.240234 0)"/>
      <use xlink:href="#DejaVuSans-73" transform="translate(357.763672 0)"/>
     </g>
    </g>
   </g>
   <g id="matplotlib.axis_2">
    <g id="ytick_1">
     <g id="line2d_19">
      <path d="M 90 241.789893 
L 648 241.789893 
" clip-path="url(#pbd6cb5e4c8)" style="fill: none; stroke: #b0b0b0; stroke-width: 0.8; stroke-linecap: square"/>
     </g>
     <g id="line2d_20">
      <defs>
       <path id="m8a6bc3195e" d="M 0 0 
L -3.5 0 
" style="stroke: #000000; stroke-width: 0.8"/>
      </defs>
      <g>
       <use xlink:href="#m8a6bc3195e" x="90" y="241.789893" style="stroke: #000000; stroke-width: 0.8"/>
      </g>
     </g>
     <g id="text_4">
      <!-- $\mathdefault{10^{1}}$ -->
      <g transform="translate(65.4 245.589111) scale(0.1 -0.1)">
       <use xlink:href="#DejaVuSans-31" transform="translate(0 0.684375)"/>
       <use xlink:href="#DejaVuSans-30" transform="translate(63.623047 0.684375)"/>
       <use xlink:href="#DejaVuSans-31" transform="translate(128.203125 38.965625) scale(0.7)"/>
      </g>
     </g>
    </g>
    <g id="ytick_2">
     <g id="line2d_21">
      <path d="M 90 147.350779 
L 648 147.350779 
" clip-path="url(#pbd6cb5e4c8)" style="fill: none; stroke: #b0b0b0; stroke-width: 0.8; stroke-linecap: square"/>
     </g>
     <g id="line2d_22">
      <g>
       <use xlink:href="#m8a6bc3195e" x="90" y="147.350779" style="stroke: #000000; stroke-width: 0.8"/>
      </g>
     </g>
     <g id="text_5">
      <!-- $\mathdefault{10^{2}}$ -->
      <g transform="translate(65.4 151.149998) scale(0.1 -0.1)">
       <defs>
        <path id="DejaVuSans-32" d="M 1228 531 
L 3431 531 
L 3431 0 
L 469 0 
L 469 531 
Q 828 903 1448 1529 
Q 2069 2156 2228 2338 
Q 2531 2678 2651 2914 
Q 2772 3150 2772 3378 
Q 2772 3750 2511 3984 
Q 2250 4219 1831 4219 
Q 1534 4219 1204 4116 
Q 875 4013 500 3803 
L 500 4441 
Q 881 4594 1212 4672 
Q 1544 4750 1819 4750 
Q 2544 4750 2975 4387 
Q 3406 4025 3406 3419 
Q 3406 3131 3298 2873 
Q 3191 2616 2906 2266 
Q 2828 2175 2409 1742 
Q 1991 1309 1228 531 
z
" transform="scale(0.015625)"/>
       </defs>
       <use xlink:href="#DejaVuSans-31" transform="translate(0 0.765625)"/>
       <use xlink:href="#DejaVuSans-30" transform="translate(63.623047 0.765625)"/>
       <use xlink:href="#DejaVuSans-32" transform="translate(128.203125 39.046875) scale(0.7)"/>
      </g>
     </g>
    </g>
    <g id="ytick_3">
     <g id="line2d_23">
      <path d="M 90 52.911666 
L 648 52.911666 
" clip-path="url(#pbd6cb5e4c8)" style="fill: none; stroke: #b0b0b0; stroke-width: 0.8; stroke-linecap: square"/>
     </g>
     <g id="line2d_24">
      <g>
       <use xlink:href="#m8a6bc3195e" x="90" y="52.911666" style="stroke: #000000; stroke-width: 0.8"/>
      </g>
     </g>
     <g id="text_6">
      <!-- $\mathdefault{10^{3}}$ -->
      <g transform="translate(65.4 56.710885) scale(0.1 -0.1)">
       <use xlink:href="#DejaVuSans-31" transform="translate(0 0.765625)"/>
       <use xlink:href="#DejaVuSans-30" transform="translate(63.623047 0.765625)"/>
       <use xlink:href="#DejaVuSans-33" transform="translate(128.203125 39.046875) scale(0.7)"/>
      </g>
     </g>
    </g>
    <g id="ytick_4">
     <g id="line2d_25">
      <defs>
       <path id="m23ec89d842" d="M 0 0 
L -2 0 
" style="stroke: #000000; stroke-width: 0.6"/>
      </defs>
      <g>
       <use xlink:href="#m23ec89d842" x="90" y="307.8" style="stroke: #000000; stroke-width: 0.6"/>
      </g>
     </g>
    </g>
    <g id="ytick_5">
     <g id="line2d_26">
      <g>
       <use xlink:href="#m23ec89d842" x="90" y="291.170098" style="stroke: #000000; stroke-width: 0.6"/>
      </g>
     </g>
    </g>
    <g id="ytick_6">
     <g id="line2d_27">
      <g>
       <use xlink:href="#m23ec89d842" x="90" y="279.370994" style="stroke: #000000; stroke-width: 0.6"/>
      </g>
     </g>
    </g>
    <g id="ytick_7">
     <g id="line2d_28">
      <g>
       <use xlink:href="#m23ec89d842" x="90" y="270.218898" style="stroke: #000000; stroke-width: 0.6"/>
      </g>
     </g>
    </g>
    <g id="ytick_8">
     <g id="line2d_29">
      <g>
       <use xlink:href="#m23ec89d842" x="90" y="262.741092" style="stroke: #000000; stroke-width: 0.6"/>
      </g>
     </g>
    </g>
    <g id="ytick_9">
     <g id="line2d_30">
      <g>
       <use xlink:href="#m23ec89d842" x="90" y="256.418696" style="stroke: #000000; stroke-width: 0.6"/>
      </g>
     </g>
    </g>
    <g id="ytick_10">
     <g id="line2d_31">
      <g>
       <use xlink:href="#m23ec89d842" x="90" y="250.941988" style="stroke: #000000; stroke-width: 0.6"/>
      </g>
     </g>
    </g>
    <g id="ytick_11">
     <g id="line2d_32">
      <g>
       <use xlink:href="#m23ec89d842" x="90" y="246.111189" style="stroke: #000000; stroke-width: 0.6"/>
      </g>
     </g>
    </g>
    <g id="ytick_12">
     <g id="line2d_33">
      <g>
       <use xlink:href="#m23ec89d842" x="90" y="213.360887" style="stroke: #000000; stroke-width: 0.6"/>
      </g>
     </g>
    </g>
    <g id="ytick_13">
     <g id="line2d_34">
      <g>
       <use xlink:href="#m23ec89d842" x="90" y="196.730984" style="stroke: #000000; stroke-width: 0.6"/>
      </g>
     </g>
    </g>
    <g id="ytick_14">
     <g id="line2d_35">
      <g>
       <use xlink:href="#m23ec89d842" x="90" y="184.931881" style="stroke: #000000; stroke-width: 0.6"/>
      </g>
     </g>
    </g>
    <g id="ytick_15">
     <g id="line2d_36">
      <g>
       <use xlink:href="#m23ec89d842" x="90" y="175.779785" style="stroke: #000000; stroke-width: 0.6"/>
      </g>
     </g>
    </g>
    <g id="ytick_16">
     <g id="line2d_37">
      <g>
       <use xlink:href="#m23ec89d842" x="90" y="168.301978" style="stroke: #000000; stroke-width: 0.6"/>
      </g>
     </g>
    </g>
    <g id="ytick_17">
     <g id="line2d_38">
      <g>
       <use xlink:href="#m23ec89d842" x="90" y="161.979583" style="stroke: #000000; stroke-width: 0.6"/>
      </g>
     </g>
    </g>
    <g id="ytick_18">
     <g id="line2d_39">
      <g>
       <use xlink:href="#m23ec89d842" x="90" y="156.502875" style="stroke: #000000; stroke-width: 0.6"/>
      </g>
     </g>
    </g>
    <g id="ytick_19">
     <g id="line2d_40">
      <g>
       <use xlink:href="#m23ec89d842" x="90" y="151.672076" style="stroke: #000000; stroke-width: 0.6"/>
      </g>
     </g>
    </g>
    <g id="ytick_20">
     <g id="line2d_41">
      <g>
       <use xlink:href="#m23ec89d842" x="90" y="118.921773" style="stroke: #000000; stroke-width: 0.6"/>
      </g>
     </g>
    </g>
    <g id="ytick_21">
     <g id="line2d_42">
      <g>
       <use xlink:href="#m23ec89d842" x="90" y="102.291871" style="stroke: #000000; stroke-width: 0.6"/>
      </g>
     </g>
    </g>
    <g id="ytick_22">
     <g id="line2d_43">
      <g>
       <use xlink:href="#m23ec89d842" x="90" y="90.492767" style="stroke: #000000; stroke-width: 0.6"/>
      </g>
     </g>
    </g>
    <g id="ytick_23">
     <g id="line2d_44">
      <g>
       <use xlink:href="#m23ec89d842" x="90" y="81.340672" style="stroke: #000000; stroke-width: 0.6"/>
      </g>
     </g>
    </g>
    <g id="ytick_24">
     <g id="line2d_45">
      <g>
       <use xlink:href="#m23ec89d842" x="90" y="73.862865" style="stroke: #000000; stroke-width: 0.6"/>
      </g>
     </g>
    </g>
    <g id="ytick_25">
     <g id="line2d_46">
      <g>
       <use xlink:href="#m23ec89d842" x="90" y="67.54047" style="stroke: #000000; stroke-width: 0.6"/>
      </g>
     </g>
    </g>
    <g id="ytick_26">
     <g id="line2d_47">
      <g>
       <use xlink:href="#m23ec89d842" x="90" y="62.063762" style="stroke: #000000; stroke-width: 0.6"/>
      </g>
     </g>
    </g>
    <g id="ytick_27">
     <g id="line2d_48">
      <g>
       <use xlink:href="#m23ec89d842" x="90" y="57.232963" style="stroke: #000000; stroke-width: 0.6"/>
      </g>
     </g>
    </g>
    <g id="text_7">
     <!-- Comments -->
     <g transform="translate(59.320312 208.901562) rotate(-90) scale(0.1 -0.1)">
      <defs>
       <path id="DejaVuSans-43" d="M 4122 4306 
L 4122 3641 
Q 3803 3938 3442 4084 
Q 3081 4231 2675 4231 
Q 1875 4231 1450 3742 
Q 1025 3253 1025 2328 
Q 1025 1406 1450 917 
Q 1875 428 2675 428 
Q 3081 428 3442 575 
Q 3803 722 4122 1019 
L 4122 359 
Q 3791 134 3420 21 
Q 3050 -91 2638 -91 
Q 1578 -91 968 557 
Q 359 1206 359 2328 
Q 359 3453 968 4101 
Q 1578 4750 2638 4750 
Q 3056 4750 3426 4639 
Q 3797 4528 4122 4306 
z
" transform="scale(0.015625)"/>
       <path id="DejaVuSans-6d" d="M 3328 2828 
Q 3544 3216 3844 3400 
Q 4144 3584 4550 3584 
Q 5097 3584 5394 3201 
Q 5691 2819 5691 2113 
L 5691 0 
L 5113 0 
L 5113 2094 
Q 5113 2597 4934 2840 
Q 4756 3084 4391 3084 
Q 3944 3084 3684 2787 
Q 3425 2491 3425 1978 
L 3425 0 
L 2847 0 
L 2847 2094 
Q 2847 2600 2669 2842 
Q 2491 3084 2119 3084 
Q 1678 3084 1418 2786 
Q 1159 2488 1159 1978 
L 1159 0 
L 581 0 
L 581 3500 
L 1159 3500 
L 1159 2956 
Q 1356 3278 1631 3431 
Q 1906 3584 2284 3584 
Q 2666 3584 2933 3390 
Q 3200 3197 3328 2828 
z
" transform="scale(0.015625)"/>
       <path id="DejaVuSans-6e" d="M 3513 2113 
L 3513 0 
L 2938 0 
L 2938 2094 
Q 2938 2591 2744 2837 
Q 2550 3084 2163 3084 
Q 1697 3084 1428 2787 
Q 1159 2491 1159 1978 
L 1159 0 
L 581 0 
L 581 3500 
L 1159 3500 
L 1159 2956 
Q 1366 3272 1645 3428 
Q 1925 3584 2291 3584 
Q 2894 3584 3203 3211 
Q 3513 2838 3513 2113 
z
" transform="scale(0.015625)"/>
      </defs>
      <use xlink:href="#DejaVuSans-43"/>
      <use xlink:href="#DejaVuSans-6f" transform="translate(69.824219 0)"/>
      <use xlink:href="#DejaVuSans-6d" transform="translate(131.005859 0)"/>
      <use xlink:href="#DejaVuSans-6d" transform="translate(228.417969 0)"/>
      <use xlink:href="#DejaVuSans-65" transform="translate(325.830078 0)"/>
      <use xlink:href="#DejaVuSans-6e" transform="translate(387.353516 0)"/>
      <use xlink:href="#DejaVuSans-74" transform="translate(450.732422 0)"/>
      <use xlink:href="#DejaVuSans-73" transform="translate(489.941406 0)"/>
     </g>
    </g>
   </g>
   <g id="patch_3">
    <path d="M 90 320.4 
L 90 43.2 
" style="fill: none; stroke: #000000; stroke-width: 0.8; stroke-linejoin: miter; stroke-linecap: square"/>
   </g>
   <g id="patch_4">
    <path d="M 648 320.4 
L 648 43.2 
" style="fill: none; stroke: #000000; stroke-width: 0.8; stroke-linejoin: miter; stroke-linecap: square"/>
   </g>
   <g id="patch_5">
    <path d="M 90 320.4 
L 648 320.4 
" style="fill: none; stroke: #000000; stroke-width: 0.8; stroke-linejoin: miter; stroke-linecap: square"/>
   </g>
   <g id="patch_6">
    <path d="M 90 43.2 
L 648 43.2 
" style="fill: none; stroke: #000000; stroke-width: 0.8; stroke-linejoin: miter; stroke-linecap: square"/>
   </g>
   <g id="text_8">
    <g id="patch_7">
     <path d="M 611.678551 120.170662 
L 626.636364 120.170662 
L 626.636364 102.492537 
L 611.678551 102.492537 
z
" style="fill: #ffffff; opacity: 0.7; stroke: #000000; stroke-linejoin: miter"/>
    </g>
    <!-- 1 -->
    <g transform="translate(615.678551 114.090974) scale(0.1 -0.1)">
     <defs>
      <path id="DejaVuSans-Bold-31" d="M 750 831 
L 1813 831 
L 1813 3847 
L 722 3622 
L 722 4441 
L 1806 4666 
L 2950 4666 
L 2950 831 
L 4013 831 
L 4013 0 
L 750 0 
L 750 831 
z
" transform="scale(0.015625)"/>
     </defs>
     <use xlink:href="#DejaVuSans-Bold-31"/>
    </g>
   </g>
   <g id="text_9">
    <g id="patch_8">
     <path d="M 529.690781 140.518698 
L 544.648593 140.518698 
L 544.648593 122.840573 
L 529.690781 122.840573 
z
" style="fill: #ffffff; opacity: 0.7; stroke: #000000; stroke-linejoin: miter"/>
    </g>
    <!-- 2 -->
    <g transform="translate(533.690781 134.43901) scale(0.1 -0.1)">
     <defs>
      <path id="DejaVuSans-Bold-32" d="M 1844 884 
L 3897 884 
L 3897 0 
L 506 0 
L 506 884 
L 2209 2388 
Q 2438 2594 2547 2791 
Q 2656 2988 2656 3200 
Q 2656 3528 2436 3728 
Q 2216 3928 1850 3928 
Q 1569 3928 1234 3808 
Q 900 3688 519 3450 
L 519 4475 
Q 925 4609 1322 4679 
Q 1719 4750 2100 4750 
Q 2938 4750 3402 4381 
Q 3866 4013 3866 3353 
Q 3866 2972 3669 2642 
Q 3472 2313 2841 1759 
L 1844 884 
z
" transform="scale(0.015625)"/>
     </defs>
     <use xlink:href="#DejaVuSans-Bold-32"/>
    </g>
   </g>
   <g id="text_10">
    <g id="patch_9">
     <path d="M 520.147988 169.248176 
L 535.1058 169.248176 
L 535.1058 151.570051 
L 520.147988 151.570051 
z
" style="fill: #ffffff; opacity: 0.7; stroke: #000000; stroke-linejoin: miter"/>
    </g>
    <!-- 3 -->
    <g transform="translate(524.147988 163.168489) scale(0.1 -0.1)">
     <defs>
      <path id="DejaVuSans-Bold-33" d="M 2981 2516 
Q 3453 2394 3698 2092 
Q 3944 1791 3944 1325 
Q 3944 631 3412 270 
Q 2881 -91 1863 -91 
Q 1503 -91 1142 -33 
Q 781 25 428 141 
L 428 1069 
Q 766 900 1098 814 
Q 1431 728 1753 728 
Q 2231 728 2486 893 
Q 2741 1059 2741 1369 
Q 2741 1688 2480 1852 
Q 2219 2016 1709 2016 
L 1228 2016 
L 1228 2791 
L 1734 2791 
Q 2188 2791 2409 2933 
Q 2631 3075 2631 3366 
Q 2631 3634 2415 3781 
Q 2200 3928 1806 3928 
Q 1516 3928 1219 3862 
Q 922 3797 628 3669 
L 628 4550 
Q 984 4650 1334 4700 
Q 1684 4750 2022 4750 
Q 2931 4750 3382 4451 
Q 3834 4153 3834 3553 
Q 3834 3144 3618 2883 
Q 3403 2622 2981 2516 
z
" transform="scale(0.015625)"/>
     </defs>
     <use xlink:href="#DejaVuSans-Bold-33"/>
    </g>
   </g>
   <g id="text_11">
    <g id="patch_10">
     <path d="M 460.005129 182.688074 
L 474.962942 182.688074 
L 474.962942 165.009949 
L 460.005129 165.009949 
z
" style="fill: #ffffff; opacity: 0.7; stroke: #000000; stroke-linejoin: miter"/>
    </g>
    <!-- 4 -->
    <g transform="translate(464.005129 176.608387) scale(0.1 -0.1)">
     <defs>
      <path id="DejaVuSans-Bold-34" d="M 2356 3675 
L 1038 1722 
L 2356 1722 
L 2356 3675 
z
M 2156 4666 
L 3494 4666 
L 3494 1722 
L 4159 1722 
L 4159 850 
L 3494 850 
L 3494 0 
L 2356 0 
L 2356 850 
L 288 850 
L 288 1881 
L 2156 4666 
z
" transform="scale(0.015625)"/>
     </defs>
     <use xlink:href="#DejaVuSans-Bold-34"/>
    </g>
   </g>
   <g id="text_12">
    <g id="patch_11">
     <path d="M 454.239446 61.879687 
L 469.197258 61.879687 
L 469.197258 44.201562 
L 454.239446 44.201562 
z
" style="fill: #ffffff; opacity: 0.7; stroke: #000000; stroke-linejoin: miter"/>
    </g>
    <!-- 5 -->
    <g transform="translate(458.239446 55.8) scale(0.1 -0.1)">
     <defs>
      <path id="DejaVuSans-Bold-35" d="M 678 4666 
L 3669 4666 
L 3669 3781 
L 1638 3781 
L 1638 3059 
Q 1775 3097 1914 3117 
Q 2053 3138 2203 3138 
Q 3056 3138 3531 2711 
Q 4006 2284 4006 1522 
Q 4006 766 3489 337 
Q 2972 -91 2053 -91 
Q 1656 -91 1267 -14 
Q 878 63 494 219 
L 494 1166 
Q 875 947 1217 837 
Q 1559 728 1863 728 
Q 2300 728 2551 942 
Q 2803 1156 2803 1522 
Q 2803 1891 2551 2103 
Q 2300 2316 1863 2316 
Q 1603 2316 1309 2248 
Q 1016 2181 678 2041 
L 678 4666 
z
" transform="scale(0.015625)"/>
     </defs>
     <use xlink:href="#DejaVuSans-Bold-35"/>
    </g>
   </g>
   <g id="text_13">
    <g id="patch_12">
     <path d="M 442.130391 192.049963 
L 457.088204 192.049963 
L 457.088204 174.371838 
L 442.130391 174.371838 
z
" style="fill: #ffffff; opacity: 0.7; stroke: #000000; stroke-linejoin: miter"/>
    </g>
    <!-- 6 -->
    <g transform="translate(446.130391 185.970275) scale(0.1 -0.1)">
     <defs>
      <path id="DejaVuSans-Bold-36" d="M 2316 2303 
Q 2000 2303 1842 2098 
Q 1684 1894 1684 1484 
Q 1684 1075 1842 870 
Q 2000 666 2316 666 
Q 2634 666 2792 870 
Q 2950 1075 2950 1484 
Q 2950 1894 2792 2098 
Q 2634 2303 2316 2303 
z
M 3803 4544 
L 3803 3681 
Q 3506 3822 3243 3889 
Q 2981 3956 2731 3956 
Q 2194 3956 1894 3657 
Q 1594 3359 1544 2772 
Q 1750 2925 1990 3001 
Q 2231 3078 2516 3078 
Q 3231 3078 3670 2659 
Q 4109 2241 4109 1563 
Q 4109 813 3618 361 
Q 3128 -91 2303 -91 
Q 1394 -91 895 523 
Q 397 1138 397 2266 
Q 397 3422 980 4083 
Q 1563 4744 2578 4744 
Q 2900 4744 3203 4694 
Q 3506 4644 3803 4544 
z
" transform="scale(0.015625)"/>
     </defs>
     <use xlink:href="#DejaVuSans-Bold-36"/>
    </g>
   </g>
   <g id="text_14">
    <g id="patch_13">
     <path d="M 438.789144 142.986473 
L 453.746956 142.986473 
L 453.746956 125.308348 
L 438.789144 125.308348 
z
" style="fill: #ffffff; opacity: 0.7; stroke: #000000; stroke-linejoin: miter"/>
    </g>
    <!-- 7 -->
    <g transform="translate(442.789144 136.906785) scale(0.1 -0.1)">
     <defs>
      <path id="DejaVuSans-Bold-37" d="M 428 4666 
L 3944 4666 
L 3944 3988 
L 2125 0 
L 953 0 
L 2675 3781 
L 428 3781 
L 428 4666 
z
" transform="scale(0.015625)"/>
     </defs>
     <use xlink:href="#DejaVuSans-Bold-37"/>
    </g>
   </g>
   <g id="text_15">
    <g id="patch_14">
     <path d="M 436.456044 121.466936 
L 451.413857 121.466936 
L 451.413857 103.788811 
L 436.456044 103.788811 
z
" style="fill: #ffffff; opacity: 0.7; stroke: #000000; stroke-linejoin: miter"/>
    </g>
    <!-- 8 -->
    <g transform="translate(440.456044 115.387248) scale(0.1 -0.1)">
     <defs>
      <path id="DejaVuSans-Bold-38" d="M 2228 2088 
Q 1891 2088 1709 1903 
Q 1528 1719 1528 1375 
Q 1528 1031 1709 848 
Q 1891 666 2228 666 
Q 2563 666 2741 848 
Q 2919 1031 2919 1375 
Q 2919 1722 2741 1905 
Q 2563 2088 2228 2088 
z
M 1350 2484 
Q 925 2613 709 2878 
Q 494 3144 494 3541 
Q 494 4131 934 4440 
Q 1375 4750 2228 4750 
Q 3075 4750 3515 4442 
Q 3956 4134 3956 3541 
Q 3956 3144 3739 2878 
Q 3522 2613 3097 2484 
Q 3572 2353 3814 2058 
Q 4056 1763 4056 1313 
Q 4056 619 3595 264 
Q 3134 -91 2228 -91 
Q 1319 -91 855 264 
Q 391 619 391 1313 
Q 391 1763 633 2058 
Q 875 2353 1350 2484 
z
M 1631 3419 
Q 1631 3141 1786 2991 
Q 1941 2841 2228 2841 
Q 2509 2841 2662 2991 
Q 2816 3141 2816 3419 
Q 2816 3697 2662 3845 
Q 2509 3994 2228 3994 
Q 1941 3994 1786 3844 
Q 1631 3694 1631 3419 
z
" transform="scale(0.015625)"/>
     </defs>
     <use xlink:href="#DejaVuSans-Bold-38"/>
    </g>
   </g>
   <g id="text_16">
    <g id="patch_15">
     <path d="M 428.369939 205.640372 
L 443.327751 205.640372 
L 443.327751 187.962247 
L 428.369939 187.962247 
z
" style="fill: #ffffff; opacity: 0.7; stroke: #000000; stroke-linejoin: miter"/>
    </g>
    <!-- 9 -->
    <g transform="translate(432.369939 199.560685) scale(0.1 -0.1)">
     <defs>
      <path id="DejaVuSans-Bold-39" d="M 641 103 
L 641 966 
Q 928 831 1190 764 
Q 1453 697 1709 697 
Q 2247 697 2547 995 
Q 2847 1294 2900 1881 
Q 2688 1725 2447 1647 
Q 2206 1569 1925 1569 
Q 1209 1569 770 1986 
Q 331 2403 331 3084 
Q 331 3838 820 4291 
Q 1309 4744 2131 4744 
Q 3044 4744 3544 4128 
Q 4044 3513 4044 2388 
Q 4044 1231 3459 570 
Q 2875 -91 1856 -91 
Q 1528 -91 1228 -42 
Q 928 6 641 103 
z
M 2125 2350 
Q 2441 2350 2600 2554 
Q 2759 2759 2759 3169 
Q 2759 3575 2600 3781 
Q 2441 3988 2125 3988 
Q 1809 3988 1650 3781 
Q 1491 3575 1491 3169 
Q 1491 2759 1650 2554 
Q 1809 2350 2125 2350 
z
" transform="scale(0.015625)"/>
     </defs>
     <use xlink:href="#DejaVuSans-Bold-39"/>
    </g>
   </g>
   <g id="text_17">
    <g id="patch_16">
     <path d="M 427.544383 219.440574 
L 449.460008 219.440574 
L 449.460008 201.762449 
L 427.544383 201.762449 
z
" style="fill: #ffffff; opacity: 0.7; stroke: #000000; stroke-linejoin: miter"/>
    </g>
    <!-- 10 -->
    <g transform="translate(431.544383 213.360887) scale(0.1 -0.1)">
     <defs>
      <path id="DejaVuSans-Bold-30" d="M 2944 2338 
Q 2944 3213 2780 3570 
Q 2616 3928 2228 3928 
Q 1841 3928 1675 3570 
Q 1509 3213 1509 2338 
Q 1509 1453 1675 1090 
Q 1841 728 2228 728 
Q 2613 728 2778 1090 
Q 2944 1453 2944 2338 
z
M 4147 2328 
Q 4147 1169 3647 539 
Q 3147 -91 2228 -91 
Q 1306 -91 806 539 
Q 306 1169 306 2328 
Q 306 3491 806 4120 
Q 1306 4750 2228 4750 
Q 3147 4750 3647 4120 
Q 4147 3491 4147 2328 
z
" transform="scale(0.015625)"/>
     </defs>
     <use xlink:href="#DejaVuSans-Bold-31"/>
     <use xlink:href="#DejaVuSans-Bold-30" transform="translate(69.580078 0)"/>
    </g>
   </g>
   <g id="text_18">
    <g id="patch_17">
     <path d="M 252.765164 243.960492 
L 274.680789 243.960492 
L 274.680789 226.282367 
L 252.765164 226.282367 
z
" style="fill: #ffffff; opacity: 0.7; stroke: #000000; stroke-linejoin: miter"/>
    </g>
    <!-- 11 -->
    <g transform="translate(256.765164 237.880804) scale(0.1 -0.1)">
     <use xlink:href="#DejaVuSans-Bold-31"/>
     <use xlink:href="#DejaVuSans-Bold-31" transform="translate(69.580078 0)"/>
    </g>
   </g>
   <g id="text_19">
    <g id="patch_18">
     <path d="M 200.399361 257.021676 
L 222.314986 257.021676 
L 222.314986 239.343551 
L 200.399361 239.343551 
z
" style="fill: #ffffff; opacity: 0.7; stroke: #000000; stroke-linejoin: miter"/>
    </g>
    <!-- 12 -->
    <g transform="translate(204.399361 250.941988) scale(0.1 -0.1)">
     <use xlink:href="#DejaVuSans-Bold-31"/>
     <use xlink:href="#DejaVuSans-Bold-32" transform="translate(69.580078 0)"/>
    </g>
   </g>
   <g id="text_20">
    <g id="patch_19">
     <path d="M 196.821422 219.440574 
L 218.737047 219.440574 
L 218.737047 201.762449 
L 196.821422 201.762449 
z
" style="fill: #ffffff; opacity: 0.7; stroke: #000000; stroke-linejoin: miter"/>
    </g>
    <!-- 13 -->
    <g transform="translate(200.821422 213.360887) scale(0.1 -0.1)">
     <use xlink:href="#DejaVuSans-Bold-31"/>
     <use xlink:href="#DejaVuSans-Bold-33" transform="translate(69.580078 0)"/>
    </g>
   </g>
   <g id="text_21">
    <g id="patch_20">
     <path d="M 186.421785 210.288478 
L 208.33741 210.288478 
L 208.33741 192.610353 
L 186.421785 192.610353 
z
" style="fill: #ffffff; opacity: 0.7; stroke: #000000; stroke-linejoin: miter"/>
    </g>
    <!-- 14 -->
    <g transform="translate(190.421785 204.208791) scale(0.1 -0.1)">
     <use xlink:href="#DejaVuSans-Bold-31"/>
     <use xlink:href="#DejaVuSans-Bold-34" transform="translate(69.580078 0)"/>
    </g>
   </g>
   <g id="text_22">
    <g id="patch_21">
     <path d="M 190.810463 139.338346 
L 212.726088 139.338346 
L 212.726088 121.660221 
L 190.810463 121.660221 
z
" style="fill: #ffffff; opacity: 0.7; stroke: #000000; stroke-linejoin: miter"/>
    </g>
    <!-- 15 -->
    <g transform="translate(194.810463 133.258659) scale(0.1 -0.1)">
     <use xlink:href="#DejaVuSans-Bold-31"/>
     <use xlink:href="#DejaVuSans-Bold-35" transform="translate(69.580078 0)"/>
    </g>
   </g>
   <g id="text_23">
    <g id="patch_22">
     <path d="M 217.404434 268.820779 
L 239.320059 268.820779 
L 239.320059 251.142654 
L 217.404434 251.142654 
z
" style="fill: #ffffff; opacity: 0.7; stroke: #000000; stroke-linejoin: miter"/>
    </g>
    <!-- 16 -->
    <g transform="translate(221.404434 262.741092) scale(0.1 -0.1)">
     <use xlink:href="#DejaVuSans-Bold-31"/>
     <use xlink:href="#DejaVuSans-Bold-36" transform="translate(69.580078 0)"/>
    </g>
   </g>
   <g id="text_24">
    <g id="patch_23">
     <path d="M 143.384056 313.879687 
L 165.299681 313.879687 
L 165.299681 296.201562 
L 143.384056 296.201562 
z
" style="fill: #ffffff; opacity: 0.7; stroke: #000000; stroke-linejoin: miter"/>
    </g>
    <!-- 17 -->
    <g transform="translate(147.384056 307.8) scale(0.1 -0.1)">
     <use xlink:href="#DejaVuSans-Bold-31"/>
     <use xlink:href="#DejaVuSans-Bold-37" transform="translate(69.580078 0)"/>
    </g>
   </g>
   <g id="text_25">
    <g id="patch_24">
     <path d="M 130.241827 196.488276 
L 152.157452 196.488276 
L 152.157452 178.810151 
L 130.241827 178.810151 
z
" style="fill: #ffffff; opacity: 0.7; stroke: #000000; stroke-linejoin: miter"/>
    </g>
    <!-- 18 -->
    <g transform="translate(134.241827 190.408589) scale(0.1 -0.1)">
     <use xlink:href="#DejaVuSans-Bold-31"/>
     <use xlink:href="#DejaVuSans-Bold-38" transform="translate(69.580078 0)"/>
    </g>
   </g>
   <g id="text_26">
    <g id="patch_25">
     <path d="M 108.816038 228.59267 
L 130.731663 228.59267 
L 130.731663 210.914545 
L 108.816038 210.914545 
z
" style="fill: #ffffff; opacity: 0.7; stroke: #000000; stroke-linejoin: miter"/>
    </g>
    <!-- 19 -->
    <g transform="translate(112.816038 222.512982) scale(0.1 -0.1)">
     <use xlink:href="#DejaVuSans-Bold-31"/>
     <use xlink:href="#DejaVuSans-Bold-39" transform="translate(69.580078 0)"/>
    </g>
   </g>
   <g id="text_27">
    <g id="patch_26">
     <path d="M 97.448011 252.190877 
L 119.363636 252.190877 
L 119.363636 234.512752 
L 97.448011 234.512752 
z
" style="fill: #ffffff; opacity: 0.7; stroke: #000000; stroke-linejoin: miter"/>
    </g>
    <!-- 20 -->
    <g transform="translate(101.448011 246.111189) scale(0.1 -0.1)">
     <use xlink:href="#DejaVuSans-Bold-32"/>
     <use xlink:href="#DejaVuSans-Bold-30" transform="translate(69.580078 0)"/>
    </g>
   </g>
   <g id="text_28">
    <!-- Meme Popularity: Upvotes vs Comments -->
    <g transform="translate(247.52625 37.2) scale(0.12 -0.12)">
     <defs>
      <path id="DejaVuSans-4d" d="M 628 4666 
L 1569 4666 
L 2759 1491 
L 3956 4666 
L 4897 4666 
L 4897 0 
L 4281 0 
L 4281 4097 
L 3078 897 
L 2444 897 
L 1241 4097 
L 1241 0 
L 628 0 
L 628 4666 
z
" transform="scale(0.015625)"/>
      <path id="DejaVuSans-20" transform="scale(0.015625)"/>
      <path id="DejaVuSans-50" d="M 1259 4147 
L 1259 2394 
L 2053 2394 
Q 2494 2394 2734 2622 
Q 2975 2850 2975 3272 
Q 2975 3691 2734 3919 
Q 2494 4147 2053 4147 
L 1259 4147 
z
M 628 4666 
L 2053 4666 
Q 2838 4666 3239 4311 
Q 3641 3956 3641 3272 
Q 3641 2581 3239 2228 
Q 2838 1875 2053 1875 
L 1259 1875 
L 1259 0 
L 628 0 
L 628 4666 
z
" transform="scale(0.015625)"/>
      <path id="DejaVuSans-75" d="M 544 1381 
L 544 3500 
L 1119 3500 
L 1119 1403 
Q 1119 906 1312 657 
Q 1506 409 1894 409 
Q 2359 409 2629 706 
Q 2900 1003 2900 1516 
L 2900 3500 
L 3475 3500 
L 3475 0 
L 2900 0 
L 2900 538 
Q 2691 219 2414 64 
Q 2138 -91 1772 -91 
Q 1169 -91 856 284 
Q 544 659 544 1381 
z
M 1991 3584 
L 1991 3584 
z
" transform="scale(0.015625)"/>
      <path id="DejaVuSans-6c" d="M 603 4863 
L 1178 4863 
L 1178 0 
L 603 0 
L 603 4863 
z
" transform="scale(0.015625)"/>
      <path id="DejaVuSans-61" d="M 2194 1759 
Q 1497 1759 1228 1600 
Q 959 1441 959 1056 
Q 959 750 1161 570 
Q 1363 391 1709 391 
Q 2188 391 2477 730 
Q 2766 1069 2766 1631 
L 2766 1759 
L 2194 1759 
z
M 3341 1997 
L 3341 0 
L 2766 0 
L 2766 531 
Q 2569 213 2275 61 
Q 1981 -91 1556 -91 
Q 1019 -91 701 211 
Q 384 513 384 1019 
Q 384 1609 779 1909 
Q 1175 2209 1959 2209 
L 2766 2209 
L 2766 2266 
Q 2766 2663 2505 2880 
Q 2244 3097 1772 3097 
Q 1472 3097 1187 3025 
Q 903 2953 641 2809 
L 641 3341 
Q 956 3463 1253 3523 
Q 1550 3584 1831 3584 
Q 2591 3584 2966 3190 
Q 3341 2797 3341 1997 
z
" transform="scale(0.015625)"/>
      <path id="DejaVuSans-72" d="M 2631 2963 
Q 2534 3019 2420 3045 
Q 2306 3072 2169 3072 
Q 1681 3072 1420 2755 
Q 1159 2438 1159 1844 
L 1159 0 
L 581 0 
L 581 3500 
L 1159 3500 
L 1159 2956 
Q 1341 3275 1631 3429 
Q 1922 3584 2338 3584 
Q 2397 3584 2469 3576 
Q 2541 3569 2628 3553 
L 2631 2963 
z
" transform="scale(0.015625)"/>
      <path id="DejaVuSans-69" d="M 603 3500 
L 1178 3500 
L 1178 0 
L 603 0 
L 603 3500 
z
M 603 4863 
L 1178 4863 
L 1178 4134 
L 603 4134 
L 603 4863 
z
" transform="scale(0.015625)"/>
      <path id="DejaVuSans-79" d="M 2059 -325 
Q 1816 -950 1584 -1140 
Q 1353 -1331 966 -1331 
L 506 -1331 
L 506 -850 
L 844 -850 
Q 1081 -850 1212 -737 
Q 1344 -625 1503 -206 
L 1606 56 
L 191 3500 
L 800 3500 
L 1894 763 
L 2988 3500 
L 3597 3500 
L 2059 -325 
z
" transform="scale(0.015625)"/>
      <path id="DejaVuSans-3a" d="M 750 794 
L 1409 794 
L 1409 0 
L 750 0 
L 750 794 
z
M 750 3309 
L 1409 3309 
L 1409 2516 
L 750 2516 
L 750 3309 
z
" transform="scale(0.015625)"/>
     </defs>
     <use xlink:href="#DejaVuSans-4d"/>
     <use xlink:href="#DejaVuSans-65" transform="translate(86.279297 0)"/>
     <use xlink:href="#DejaVuSans-6d" transform="translate(147.802734 0)"/>
     <use xlink:href="#DejaVuSans-65" transform="translate(245.214844 0)"/>
     <use xlink:href="#DejaVuSans-20" transform="translate(306.738281 0)"/>
     <use xlink:href="#DejaVuSans-50" transform="translate(338.525391 0)"/>
     <use xlink:href="#DejaVuSans-6f" transform="translate(395.203125 0)"/>
     <use xlink:href="#DejaVuSans-70" transform="translate(456.384766 0)"/>
     <use xlink:href="#DejaVuSans-75" transform="translate(519.861328 0)"/>
     <use xlink:href="#DejaVuSans-6c" transform="translate(583.240234 0)"/>
     <use xlink:href="#DejaVuSans-61" transform="translate(611.023438 0)"/>
     <use xlink:href="#DejaVuSans-72" transform="translate(672.302734 0)"/>
     <use xlink:href="#DejaVuSans-69" transform="translate(713.416016 0)"/>
     <use xlink:href="#DejaVuSans-74" transform="translate(741.199219 0)"/>
     <use xlink:href="#DejaVuSans-79" transform="translate(780.408203 0)"/>
     <use xlink:href="#DejaVuSans-3a" transform="translate(832.337891 0)"/>
     <use xlink:href="#DejaVuSans-20" transform="translate(866.029297 0)"/>
     <use xlink:href="#DejaVuSans-55" transform="translate(897.816406 0)"/>
     <use xlink:href="#DejaVuSans-70" transform="translate(971.009766 0)"/>
     <use xlink:href="#DejaVuSans-76" transform="translate(1034.486328 0)"/>
     <use xlink:href="#DejaVuSans-6f" transform="translate(1093.666016 0)"/>
     <use xlink:href="#DejaVuSans-74" transform="translate(1154.847656 0)"/>
     <use xlink:href="#DejaVuSans-65" transform="translate(1194.056641 0)"/>
     <use xlink:href="#DejaVuSans-73" transform="translate(1255.580078 0)"/>
     <use xlink:href="#DejaVuSans-20" transform="translate(1307.679688 0)"/>
     <use xlink:href="#DejaVuSans-76" transform="translate(1339.466797 0)"/>
     <use xlink:href="#DejaVuSans-73" transform="translate(1398.646484 0)"/>
     <use xlink:href="#DejaVuSans-20" transform="translate(1450.746094 0)"/>
     <use xlink:href="#DejaVuSans-43" transform="translate(1482.533203 0)"/>
     <use xlink:href="#DejaVuSans-6f" transform="translate(1552.357422 0)"/>
     <use xlink:href="#DejaVuSans-6d" transform="translate(1613.539062 0)"/>
     <use xlink:href="#DejaVuSans-6d" transform="translate(1710.951172 0)"/>
     <use xlink:href="#DejaVuSans-65" transform="translate(1808.363281 0)"/>
     <use xlink:href="#DejaVuSans-6e" transform="translate(1869.886719 0)"/>
     <use xlink:href="#DejaVuSans-74" transform="translate(1933.265625 0)"/>
     <use xlink:href="#DejaVuSans-73" transform="translate(1972.474609 0)"/>
    </g>
   </g>
  </g>
 </g>
 <defs>
  <clipPath id="pbd6cb5e4c8">
   <rect x="90" y="43.2" width="558" height="277.2"/>
  </clipPath>
 </defs>
</svg>
