<?xml version="1.0" encoding="utf-8" standalone="no"?>
<!DOCTYPE svg PUBLIC "-//W3C//DTD SVG 1.1//EN"
  "http://www.w3.org/Graphics/SVG/1.1/DTD/svg11.dtd">
<svg xmlns:xlink="http://www.w3.org/1999/xlink" width="720pt" height="360pt" viewBox="0 0 720 360" xmlns="http://www.w3.org/2000/svg" version="1.1">
 <metadata>
  <rdf:RDF xmlns:dc="http://purl.org/dc/elements/1.1/" xmlns:cc="http://creativecommons.org/ns#" xmlns:rdf="http://www.w3.org/1999/02/22-rdf-syntax-ns#">
   <cc:Work>
    <dc:type rdf:resource="http://purl.org/dc/dcmitype/StillImage"/>
    <dc:date>2025-03-13T22:16:20.355783</dc:date>
    <dc:format>image/svg+xml</dc:format>
    <dc:creator>
     <cc:Agent>
      <dc:title>Matplotlib v3.10.1, https://matplotlib.org/</dc:title>
     </cc:Agent>
    </dc:creator>
   </cc:Work>
  </rdf:RDF>
 </metadata>
 <defs>
  <style type="text/css">*{stroke-linejoin: round; stroke-linecap: butt}</style>
 </defs>
 <g id="figure_1">
  <g id="patch_1">
   <path d="M 0 360 
L 720 360 
L 720 0 
L 0 0 
z
" style="fill: #ffffff"/>
  </g>
  <g id="axes_1">
   <g id="patch_2">
    <path d="M 90 320.4 
L 648 320.4 
L 648 43.2 
L 90 43.2 
z
" style="fill: #ffffff"/>
   </g>
   <g id="PathCollection_1">
    <path d="M 622.636364 111.431964 
C 624.898377 111.431964 627.068048 110.533257 628.667533 108.933772 
C 630.267017 107.334287 631.165725 105.164616 631.165725 102.902603 
C 631.165725 100.64059 630.267017 98.470919 628.667533 96.871434 
C 627.068048 95.271949 624.898377 94.373242 622.636364 94.373242 
C 620.374351 94.373242 618.204679 95.271949 616.605195 96.871434 
C 615.00571 98.470919 614.107003 100.64059 614.107003 102.902603 
C 614.107003 105.164616 615.00571 107.334287 616.605195 108.933772 
C 618.204679 110.533257 620.374351 111.431964 622.636364 111.431964 
z
" clip-path="url(#pf72d6bec14)" style="fill: #0000ff; fill-opacity: 0.7; stroke: #000000; stroke-opacity: 0.7"/>
    <path d="M 547.719402 125.657795 
C 549.993045 125.657795 552.173872 124.754467 553.78158 123.146759 
C 555.389288 121.539051 556.292616 119.358224 556.292616 117.084581 
C 556.292616 114.810938 555.389288 112.630112 553.78158 111.022403 
C 552.173872 109.414695 549.993045 108.511367 547.719402 108.511367 
C 545.445759 108.511367 543.264933 109.414695 541.657224 111.022403 
C 540.049516 112.630112 539.146188 114.810938 539.146188 117.084581 
C 539.146188 119.358224 540.049516 121.539051 541.657224 123.146759 
C 543.264933 124.754467 545.445759 125.657795 547.719402 125.657795 
z
" clip-path="url(#pf72d6bec14)" style="fill: #0000ff; fill-opacity: 0.7; stroke: #000000; stroke-opacity: 0.7"/>
    <path d="M 504.999308 158.550746 
C 507.249631 158.550746 509.408089 157.656683 510.999308 156.065465 
C 512.590526 154.474246 513.484589 152.315788 513.484589 150.065465 
C 513.484589 147.815142 512.590526 145.656683 510.999308 144.065465 
C 509.408089 142.474246 507.249631 141.580183 504.999308 141.580183 
C 502.748985 141.580183 500.590526 142.474246 498.999308 144.065465 
C 497.408089 145.656683 496.514026 147.815142 496.514026 150.065465 
C 496.514026 152.315788 497.408089 154.474246 498.999308 156.065465 
C 500.590526 157.656683 502.748985 158.550746 504.999308 158.550746 
z
" clip-path="url(#pf72d6bec14)" style="fill: #ff0000; fill-opacity: 0.7; stroke: #000000; stroke-opacity: 0.7"/>
    <path d="M 490.666389 190.568753 
C 492.951603 190.568753 495.143528 189.660828 496.759418 188.044938 
C 498.375308 186.429048 499.283233 184.237123 499.283233 181.951909 
C 499.283233 179.666695 498.375308 177.47477 496.759418 175.85888 
C 495.143528 174.24299 492.951603 173.335065 490.666389 173.335065 
C 488.381175 173.335065 486.18925 174.24299 484.57336 175.85888 
C 482.95747 177.47477 482.049545 179.666695 482.049545 181.951909 
C 482.049545 184.237123 482.95747 186.429048 484.57336 188.044938 
C 486.18925 189.660828 488.381175 190.568753 490.666389 190.568753 
z
" clip-path="url(#pf72d6bec14)" style="fill: #0000ff; fill-opacity: 0.7; stroke: #000000; stroke-opacity: 0.7"/>
    <path d="M 462.561544 63.642194 
C 464.641318 63.642194 466.63619 62.815891 468.106812 61.345268 
C 469.577434 59.874646 470.403737 57.879774 470.403737 55.8 
C 470.403737 53.720226 469.577434 51.725354 468.106812 50.254732 
C 466.63619 48.784109 464.641318 47.957806 462.561544 47.957806 
C 460.48177 47.957806 458.486898 48.784109 457.016275 50.254732 
C 455.545653 51.725354 454.71935 53.720226 454.71935 55.8 
C 454.71935 57.879774 455.545653 59.874646 457.016275 61.345268 
C 458.486898 62.815891 460.48177 63.642194 462.561544 63.642194 
z
" clip-path="url(#pf72d6bec14)" style="fill: #0000ff; fill-opacity: 0.7; stroke: #000000; stroke-opacity: 0.7"/>
    <path d="M 427.096005 116.091922 
C 429.358018 116.091922 431.527689 115.193215 433.127174 113.59373 
C 434.726658 111.994245 435.625366 109.824574 435.625366 107.562561 
C 435.625366 105.300548 434.726658 103.130877 433.127174 101.531392 
C 431.527689 99.931907 429.358018 99.0332 427.096005 99.0332 
C 424.833992 99.0332 422.66432 99.931907 421.064836 101.531392 
C 419.465351 103.130877 418.566644 105.300548 418.566644 107.562561 
C 418.566644 109.824574 419.465351 111.994245 421.064836 113.59373 
C 422.66432 115.193215 424.833992 116.091922 427.096005 116.091922 
z
" clip-path="url(#pf72d6bec14)" style="fill: #0000ff; fill-opacity: 0.7; stroke: #000000; stroke-opacity: 0.7"/>
    <path d="M 425.203256 191.770428 
C 427.48847 191.770428 429.680395 190.862503 431.296285 189.246613 
C 432.912175 187.630723 433.8201 185.438798 433.8201 183.153584 
C 433.8201 180.86837 432.912175 178.676445 431.296285 177.060555 
C 429.680395 175.444665 427.48847 174.53674 425.203256 174.53674 
C 422.918042 174.53674 420.726117 175.444665 419.110227 177.060555 
C 417.494337 178.676445 416.586412 180.86837 416.586412 183.153584 
C 416.586412 185.438798 417.494337 187.630723 419.110227 189.246613 
C 420.726117 190.862503 422.918042 191.770428 425.203256 191.770428 
z
" clip-path="url(#pf72d6bec14)" style="fill: #0000ff; fill-opacity: 0.7; stroke: #000000; stroke-opacity: 0.7"/>
    <path d="M 410.548204 163.871348 
C 412.798527 163.871348 414.956986 162.977285 416.548204 161.386067 
C 418.139423 159.794848 419.033486 157.636389 419.033486 155.386067 
C 419.033486 153.135744 418.139423 150.977285 416.548204 149.386067 
C 414.956986 147.794848 412.798527 146.900785 410.548204 146.900785 
C 408.297881 146.900785 406.139423 147.794848 404.548204 149.386067 
C 402.956986 150.977285 402.062923 153.135744 402.062923 155.386067 
C 402.062923 157.636389 402.956986 159.794848 404.548204 161.386067 
C 406.139423 162.977285 408.297881 163.871348 410.548204 163.871348 
z
" clip-path="url(#pf72d6bec14)" style="fill: #0000ff; fill-opacity: 0.7; stroke: #000000; stroke-opacity: 0.7"/>
    <path d="M 405.219102 142.120718 
C 407.481115 142.120718 409.650786 141.222011 411.250271 139.622526 
C 412.849756 138.023041 413.748463 135.85337 413.748463 133.591357 
C 413.748463 131.329344 412.849756 129.159673 411.250271 127.560188 
C 409.650786 125.960703 407.481115 125.061996 405.219102 125.061996 
C 402.957089 125.061996 400.787418 125.960703 399.187933 127.560188 
C 397.588448 129.159673 396.689741 131.329344 396.689741 133.591357 
C 396.689741 135.85337 397.588448 138.023041 399.187933 139.622526 
C 400.787418 141.222011 402.957089 142.120718 405.219102 142.120718 
z
" clip-path="url(#pf72d6bec14)" style="fill: #0000ff; fill-opacity: 0.7; stroke: #000000; stroke-opacity: 0.7"/>
    <path d="M 372.848648 228.539247 
C 375.133862 228.539247 377.325787 227.631322 378.941677 226.015432 
C 380.557567 224.399542 381.465492 222.207617 381.465492 219.922403 
C 381.465492 217.63719 380.557567 215.445265 378.941677 213.829374 
C 377.325787 212.213484 375.133862 211.305559 372.848648 211.305559 
C 370.563435 211.305559 368.37151 212.213484 366.75562 213.829374 
C 365.13973 215.445265 364.231805 217.63719 364.231805 219.922403 
C 364.231805 222.207617 365.13973 224.399542 366.75562 226.015432 
C 368.37151 227.631322 370.563435 228.539247 372.848648 228.539247 
z
" clip-path="url(#pf72d6bec14)" style="fill: #0000ff; fill-opacity: 0.7; stroke: #000000; stroke-opacity: 0.7"/>
    <path d="M 329.108951 116.425088 
C 331.251195 116.425088 333.305986 115.573965 334.820781 114.059171 
C 336.335576 112.544376 337.186698 110.489584 337.186698 108.347341 
C 337.186698 106.205097 336.335576 104.150306 334.820781 102.635511 
C 333.305986 101.120716 331.251195 100.269593 329.108951 100.269593 
C 326.966708 100.269593 324.911916 101.120716 323.397121 102.635511 
C 321.882326 104.150306 321.031204 106.205097 321.031204 108.347341 
C 321.031204 110.489584 321.882326 112.544376 323.397121 114.059171 
C 324.911916 115.573965 326.966708 116.425088 329.108951 116.425088 
z
" clip-path="url(#pf72d6bec14)" style="fill: #0000ff; fill-opacity: 0.7; stroke: #000000; stroke-opacity: 0.7"/>
    <path d="M 268.651162 122.398022 
C 270.830028 122.398022 272.919947 121.532349 274.460637 119.991659 
C 276.001328 118.450968 276.867001 116.361049 276.867001 114.182184 
C 276.867001 112.003318 276.001328 109.913399 274.460637 108.372709 
C 272.919947 106.832018 270.830028 105.966345 268.651162 105.966345 
C 266.472297 105.966345 264.382378 106.832018 262.841687 108.372709 
C 261.300997 109.913399 260.435324 112.003318 260.435324 114.182184 
C 260.435324 116.361049 261.300997 118.450968 262.841687 119.991659 
C 264.382378 121.532349 266.472297 122.398022 268.651162 122.398022 
z
" clip-path="url(#pf72d6bec14)" style="fill: #0000ff; fill-opacity: 0.7; stroke: #000000; stroke-opacity: 0.7"/>
    <path d="M 262.49267 188.101647 
C 264.731242 188.101647 266.878429 187.212253 268.461339 185.629343 
C 270.044248 184.046434 270.933642 181.899247 270.933642 179.660675 
C 270.933642 177.422103 270.044248 175.274916 268.461339 173.692007 
C 266.878429 172.109098 264.731242 171.219704 262.49267 171.219704 
C 260.254099 171.219704 258.106912 172.109098 256.524002 173.692007 
C 254.941093 175.274916 254.051699 177.422103 254.051699 179.660675 
C 254.051699 181.899247 254.941093 184.046434 256.524002 185.629343 
C 258.106912 187.212253 260.254099 188.101647 262.49267 188.101647 
z
" clip-path="url(#pf72d6bec14)" style="fill: #0000ff; fill-opacity: 0.7; stroke: #000000; stroke-opacity: 0.7"/>
    <path d="M 220.899108 232.032156 
C 223.184322 232.032156 225.376247 231.124231 226.992137 229.508341 
C 228.608027 227.892451 229.515952 225.700526 229.515952 223.415312 
C 229.515952 221.130098 228.608027 218.938173 226.992137 217.322283 
C 225.376247 215.706393 223.184322 214.798468 220.899108 214.798468 
C 218.613894 214.798468 216.42197 215.706393 214.806079 217.322283 
C 213.190189 218.938173 212.282264 221.130098 212.282264 223.415312 
C 212.282264 225.700526 213.190189 227.892451 214.806079 229.508341 
C 216.42197 231.124231 218.613894 232.032156 220.899108 232.032156 
z
" clip-path="url(#pf72d6bec14)" style="fill: #0000ff; fill-opacity: 0.7; stroke: #000000; stroke-opacity: 0.7"/>
    <path d="M 201.740953 201.420383 
C 204.002966 201.420383 206.172637 200.521675 207.772122 198.922191 
C 209.371607 197.322706 210.270314 195.153034 210.270314 192.891022 
C 210.270314 190.629009 209.371607 188.459337 207.772122 186.859852 
C 206.172637 185.260368 204.002966 184.36166 201.740953 184.36166 
C 199.47894 184.36166 197.309269 185.260368 195.709784 186.859852 
C 194.110299 188.459337 193.211592 190.629009 193.211592 192.891022 
C 193.211592 195.153034 194.110299 197.322706 195.709784 198.922191 
C 197.309269 200.521675 199.47894 201.420383 201.740953 201.420383 
z
" clip-path="url(#pf72d6bec14)" style="fill: #0000ff; fill-opacity: 0.7; stroke: #000000; stroke-opacity: 0.7"/>
    <path d="M 210.232007 235.893388 
C 212.517221 235.893388 214.709146 234.985463 216.325036 233.369572 
C 217.940926 231.753682 218.848851 229.561757 218.848851 227.276544 
C 218.848851 224.99133 217.940926 222.799405 216.325036 221.183515 
C 214.709146 219.567625 212.517221 218.6597 210.232007 218.6597 
C 207.946793 218.6597 205.754868 219.567625 204.138978 221.183515 
C 202.523088 222.799405 201.615163 224.99133 201.615163 227.276544 
C 201.615163 229.561757 202.523088 231.753682 204.138978 233.369572 
C 205.754868 234.985463 207.946793 235.893388 210.232007 235.893388 
z
" clip-path="url(#pf72d6bec14)" style="fill: #0000ff; fill-opacity: 0.7; stroke: #000000; stroke-opacity: 0.7"/>
    <path d="M 131.72705 316.416844 
C 134.012264 316.416844 136.204189 315.508919 137.820079 313.893029 
C 139.435969 312.277139 140.343894 310.085214 140.343894 307.8 
C 140.343894 305.514786 139.435969 303.322861 137.820079 301.706971 
C 136.204189 300.091081 134.012264 299.183156 131.72705 299.183156 
C 129.441837 299.183156 127.249912 300.091081 125.634022 301.706971 
C 124.018131 303.322861 123.110206 305.514786 123.110206 307.8 
C 123.110206 310.085214 124.018131 312.277139 125.634022 313.893029 
C 127.249912 315.508919 129.441837 316.416844 131.72705 316.416844 
z
" clip-path="url(#pf72d6bec14)" style="fill: #0000ff; fill-opacity: 0.7; stroke: #000000; stroke-opacity: 0.7"/>
    <path d="M 133.428507 170.421557 
C 135.583027 170.421557 137.649594 169.565557 139.17307 168.042081 
C 140.696546 166.518606 141.552546 164.452039 141.552546 162.297519 
C 141.552546 160.142999 140.696546 158.076432 139.17307 156.552956 
C 137.649594 155.02948 135.583027 154.17348 133.428507 154.17348 
C 131.273987 154.17348 129.20742 155.02948 127.683945 156.552956 
C 126.160469 158.076432 125.304469 160.142999 125.304469 162.297519 
C 125.304469 164.452039 126.160469 166.518606 127.683945 168.042081 
C 129.20742 169.565557 131.273987 170.421557 133.428507 170.421557 
z
" clip-path="url(#pf72d6bec14)" style="fill: #0000ff; fill-opacity: 0.7; stroke: #000000; stroke-opacity: 0.7"/>
    <path d="M 118.987248 257.390848 
C 121.260891 257.390848 123.441717 256.48752 125.049426 254.879812 
C 126.657134 253.272104 127.560462 251.091277 127.560462 248.817634 
C 127.560462 246.543991 126.657134 244.363165 125.049426 242.755456 
C 123.441717 241.147748 121.260891 240.24442 118.987248 240.24442 
C 116.713605 240.24442 114.532778 241.147748 112.92507 242.755456 
C 111.317362 244.363165 110.414034 246.543991 110.414034 248.817634 
C 110.414034 251.091277 111.317362 253.272104 112.92507 254.879812 
C 114.532778 256.48752 116.713605 257.390848 118.987248 257.390848 
z
" clip-path="url(#pf72d6bec14)" style="fill: #0000ff; fill-opacity: 0.7; stroke: #000000; stroke-opacity: 0.7"/>
    <path d="M 115.363636 186.963057 
C 117.590395 186.963057 119.726251 186.078357 121.300807 184.503801 
C 122.875364 182.929244 123.760064 180.793388 123.760064 178.56663 
C 123.760064 176.339871 122.875364 174.204015 121.300807 172.629458 
C 119.726251 171.054902 117.590395 170.170202 115.363636 170.170202 
C 113.136878 170.170202 111.001021 171.054902 109.426465 172.629458 
C 107.851909 174.204015 106.967209 176.339871 106.967209 178.56663 
C 106.967209 180.793388 107.851909 182.929244 109.426465 184.503801 
C 111.001021 186.078357 113.136878 186.963057 115.363636 186.963057 
z
" clip-path="url(#pf72d6bec14)" style="fill: #0000ff; fill-opacity: 0.7; stroke: #000000; stroke-opacity: 0.7"/>
   </g>
   <g id="matplotlib.axis_1">
    <g id="xtick_1">
     <g id="line2d_1">
      <path d="M 163.8736 320.4 
L 163.8736 43.2 
" clip-path="url(#pf72d6bec14)" style="fill: none; stroke: #b0b0b0; stroke-width: 0.8; stroke-linecap: square"/>
     </g>
     <g id="line2d_2">
      <defs>
       <path id="m6c85373cff" d="M 0 0 
L 0 3.5 
" style="stroke: #000000; stroke-width: 0.8"/>
      </defs>
      <g>
       <use xlink:href="#m6c85373cff" x="163.8736" y="320.4" style="stroke: #000000; stroke-width: 0.8"/>
      </g>
     </g>
     <g id="text_1">
      <!-- $\mathdefault{10^{3}}$ -->
      <g transform="translate(155.0736 334.998438) scale(0.1 -0.1)">
       <defs>
        <path id="DejaVuSans-31" d="M 794 531 
L 1825 531 
L 1825 4091 
L 703 3866 
L 703 4441 
L 1819 4666 
L 2450 4666 
L 2450 531 
L 3481 531 
L 3481 0 
L 794 0 
L 794 531 
z
" transform="scale(0.015625)"/>
        <path id="DejaVuSans-30" d="M 2034 4250 
Q 1547 4250 1301 3770 
Q 1056 3291 1056 2328 
Q 1056 1369 1301 889 
Q 1547 409 2034 409 
Q 2525 409 2770 889 
Q 3016 1369 3016 2328 
Q 3016 3291 2770 3770 
Q 2525 4250 2034 4250 
z
M 2034 4750 
Q 2819 4750 3233 4129 
Q 3647 3509 3647 2328 
Q 3647 1150 3233 529 
Q 2819 -91 2034 -91 
Q 1250 -91 836 529 
Q 422 1150 422 2328 
Q 422 3509 836 4129 
Q 1250 4750 2034 4750 
z
" transform="scale(0.015625)"/>
        <path id="DejaVuSans-33" d="M 2597 2516 
Q 3050 2419 3304 2112 
Q 3559 1806 3559 1356 
Q 3559 666 3084 287 
Q 2609 -91 1734 -91 
Q 1441 -91 1130 -33 
Q 819 25 488 141 
L 488 750 
Q 750 597 1062 519 
Q 1375 441 1716 441 
Q 2309 441 2620 675 
Q 2931 909 2931 1356 
Q 2931 1769 2642 2001 
Q 2353 2234 1838 2234 
L 1294 2234 
L 1294 2753 
L 1863 2753 
Q 2328 2753 2575 2939 
Q 2822 3125 2822 3475 
Q 2822 3834 2567 4026 
Q 2313 4219 1838 4219 
Q 1578 4219 1281 4162 
Q 984 4106 628 3988 
L 628 4550 
Q 988 4650 1302 4700 
Q 1616 4750 1894 4750 
Q 2613 4750 3031 4423 
Q 3450 4097 3450 3541 
Q 3450 3153 3228 2886 
Q 3006 2619 2597 2516 
z
" transform="scale(0.015625)"/>
       </defs>
       <use xlink:href="#DejaVuSans-31" transform="translate(0 0.765625)"/>
       <use xlink:href="#DejaVuSans-30" transform="translate(63.623047 0.765625)"/>
       <use xlink:href="#DejaVuSans-33" transform="translate(128.203125 39.046875) scale(0.7)"/>
      </g>
     </g>
    </g>
    <g id="xtick_2">
     <g id="line2d_3">
      <path d="M 474.546983 320.4 
L 474.546983 43.2 
" clip-path="url(#pf72d6bec14)" style="fill: none; stroke: #b0b0b0; stroke-width: 0.8; stroke-linecap: square"/>
     </g>
     <g id="line2d_4">
      <g>
       <use xlink:href="#m6c85373cff" x="474.546983" y="320.4" style="stroke: #000000; stroke-width: 0.8"/>
      </g>
     </g>
     <g id="text_2">
      <!-- $\mathdefault{10^{4}}$ -->
      <g transform="translate(465.746983 334.998438) scale(0.1 -0.1)">
       <defs>
        <path id="DejaVuSans-34" d="M 2419 4116 
L 825 1625 
L 2419 1625 
L 2419 4116 
z
M 2253 4666 
L 3047 4666 
L 3047 1625 
L 3713 1625 
L 3713 1100 
L 3047 1100 
L 3047 0 
L 2419 0 
L 2419 1100 
L 313 1100 
L 313 1709 
L 2253 4666 
z
" transform="scale(0.015625)"/>
       </defs>
       <use xlink:href="#DejaVuSans-31" transform="translate(0 0.684375)"/>
       <use xlink:href="#DejaVuSans-30" transform="translate(63.623047 0.684375)"/>
       <use xlink:href="#DejaVuSans-34" transform="translate(128.203125 38.965625) scale(0.7)"/>
      </g>
     </g>
    </g>
    <g id="xtick_3">
     <g id="line2d_5">
      <defs>
       <path id="m9ff2b231a6" d="M 0 0 
L 0 2 
" style="stroke: #000000; stroke-width: 0.6"/>
      </defs>
      <g>
       <use xlink:href="#m9ff2b231a6" x="94.951099" y="320.4" style="stroke: #000000; stroke-width: 0.6"/>
      </g>
     </g>
    </g>
    <g id="xtick_4">
     <g id="line2d_6">
      <g>
       <use xlink:href="#m9ff2b231a6" x="115.749685" y="320.4" style="stroke: #000000; stroke-width: 0.6"/>
      </g>
     </g>
    </g>
    <g id="xtick_5">
     <g id="line2d_7">
      <g>
       <use xlink:href="#m9ff2b231a6" x="133.766239" y="320.4" style="stroke: #000000; stroke-width: 0.6"/>
      </g>
     </g>
    </g>
    <g id="xtick_6">
     <g id="line2d_8">
      <g>
       <use xlink:href="#m9ff2b231a6" x="149.657966" y="320.4" style="stroke: #000000; stroke-width: 0.6"/>
      </g>
     </g>
    </g>
    <g id="xtick_7">
     <g id="line2d_9">
      <g>
       <use xlink:href="#m9ff2b231a6" x="257.395607" y="320.4" style="stroke: #000000; stroke-width: 0.6"/>
      </g>
     </g>
    </g>
    <g id="xtick_8">
     <g id="line2d_10">
      <g>
       <use xlink:href="#m9ff2b231a6" x="312.102474" y="320.4" style="stroke: #000000; stroke-width: 0.6"/>
      </g>
     </g>
    </g>
    <g id="xtick_9">
     <g id="line2d_11">
      <g>
       <use xlink:href="#m9ff2b231a6" x="350.917614" y="320.4" style="stroke: #000000; stroke-width: 0.6"/>
      </g>
     </g>
    </g>
    <g id="xtick_10">
     <g id="line2d_12">
      <g>
       <use xlink:href="#m9ff2b231a6" x="381.024976" y="320.4" style="stroke: #000000; stroke-width: 0.6"/>
      </g>
     </g>
    </g>
    <g id="xtick_11">
     <g id="line2d_13">
      <g>
       <use xlink:href="#m9ff2b231a6" x="405.624481" y="320.4" style="stroke: #000000; stroke-width: 0.6"/>
      </g>
     </g>
    </g>
    <g id="xtick_12">
     <g id="line2d_14">
      <g>
       <use xlink:href="#m9ff2b231a6" x="426.423067" y="320.4" style="stroke: #000000; stroke-width: 0.6"/>
      </g>
     </g>
    </g>
    <g id="xtick_13">
     <g id="line2d_15">
      <g>
       <use xlink:href="#m9ff2b231a6" x="444.439621" y="320.4" style="stroke: #000000; stroke-width: 0.6"/>
      </g>
     </g>
    </g>
    <g id="xtick_14">
     <g id="line2d_16">
      <g>
       <use xlink:href="#m9ff2b231a6" x="460.331348" y="320.4" style="stroke: #000000; stroke-width: 0.6"/>
      </g>
     </g>
    </g>
    <g id="xtick_15">
     <g id="line2d_17">
      <g>
       <use xlink:href="#m9ff2b231a6" x="568.06899" y="320.4" style="stroke: #000000; stroke-width: 0.6"/>
      </g>
     </g>
    </g>
    <g id="xtick_16">
     <g id="line2d_18">
      <g>
       <use xlink:href="#m9ff2b231a6" x="622.775857" y="320.4" style="stroke: #000000; stroke-width: 0.6"/>
      </g>
     </g>
    </g>
    <g id="text_3">
     <!-- Upvotes -->
     <g transform="translate(348.50625 348.676562) scale(0.1 -0.1)">
      <defs>
       <path id="DejaVuSans-55" d="M 556 4666 
L 1191 4666 
L 1191 1831 
Q 1191 1081 1462 751 
Q 1734 422 2344 422 
Q 2950 422 3222 751 
Q 3494 1081 3494 1831 
L 3494 4666 
L 4128 4666 
L 4128 1753 
Q 4128 841 3676 375 
Q 3225 -91 2344 -91 
Q 1459 -91 1007 375 
Q 556 841 556 1753 
L 556 4666 
z
" transform="scale(0.015625)"/>
       <path id="DejaVuSans-70" d="M 1159 525 
L 1159 -1331 
L 581 -1331 
L 581 3500 
L 1159 3500 
L 1159 2969 
Q 1341 3281 1617 3432 
Q 1894 3584 2278 3584 
Q 2916 3584 3314 3078 
Q 3713 2572 3713 1747 
Q 3713 922 3314 415 
Q 2916 -91 2278 -91 
Q 1894 -91 1617 61 
Q 1341 213 1159 525 
z
M 3116 1747 
Q 3116 2381 2855 2742 
Q 2594 3103 2138 3103 
Q 1681 3103 1420 2742 
Q 1159 2381 1159 1747 
Q 1159 1113 1420 752 
Q 1681 391 2138 391 
Q 2594 391 2855 752 
Q 3116 1113 3116 1747 
z
" transform="scale(0.015625)"/>
       <path id="DejaVuSans-76" d="M 191 3500 
L 800 3500 
L 1894 563 
L 2988 3500 
L 3597 3500 
L 2284 0 
L 1503 0 
L 191 3500 
z
" transform="scale(0.015625)"/>
       <path id="DejaVuSans-6f" d="M 1959 3097 
Q 1497 3097 1228 2736 
Q 959 2375 959 1747 
Q 959 1119 1226 758 
Q 1494 397 1959 397 
Q 2419 397 2687 759 
Q 2956 1122 2956 1747 
Q 2956 2369 2687 2733 
Q 2419 3097 1959 3097 
z
M 1959 3584 
Q 2709 3584 3137 3096 
Q 3566 2609 3566 1747 
Q 3566 888 3137 398 
Q 2709 -91 1959 -91 
Q 1206 -91 779 398 
Q 353 888 353 1747 
Q 353 2609 779 3096 
Q 1206 3584 1959 3584 
z
" transform="scale(0.015625)"/>
       <path id="DejaVuSans-74" d="M 1172 4494 
L 1172 3500 
L 2356 3500 
L 2356 3053 
L 1172 3053 
L 1172 1153 
Q 1172 725 1289 603 
Q 1406 481 1766 481 
L 2356 481 
L 2356 0 
L 1766 0 
Q 1100 0 847 248 
Q 594 497 594 1153 
L 594 3053 
L 172 3053 
L 172 3500 
L 594 3500 
L 594 4494 
L 1172 4494 
z
" transform="scale(0.015625)"/>
       <path id="DejaVuSans-65" d="M 3597 1894 
L 3597 1613 
L 953 1613 
Q 991 1019 1311 708 
Q 1631 397 2203 397 
Q 2534 397 2845 478 
Q 3156 559 3463 722 
L 3463 178 
Q 3153 47 2828 -22 
Q 2503 -91 2169 -91 
Q 1331 -91 842 396 
Q 353 884 353 1716 
Q 353 2575 817 3079 
Q 1281 3584 2069 3584 
Q 2775 3584 3186 3129 
Q 3597 2675 3597 1894 
z
M 3022 2063 
Q 3016 2534 2758 2815 
Q 2500 3097 2075 3097 
Q 1594 3097 1305 2825 
Q 1016 2553 972 2059 
L 3022 2063 
z
" transform="scale(0.015625)"/>
       <path id="DejaVuSans-73" d="M 2834 3397 
L 2834 2853 
Q 2591 2978 2328 3040 
Q 2066 3103 1784 3103 
Q 1356 3103 1142 2972 
Q 928 2841 928 2578 
Q 928 2378 1081 2264 
Q 1234 2150 1697 2047 
L 1894 2003 
Q 2506 1872 2764 1633 
Q 3022 1394 3022 966 
Q 3022 478 2636 193 
Q 2250 -91 1575 -91 
Q 1294 -91 989 -36 
Q 684 19 347 128 
L 347 722 
Q 666 556 975 473 
Q 1284 391 1588 391 
Q 1994 391 2212 530 
Q 2431 669 2431 922 
Q 2431 1156 2273 1281 
Q 2116 1406 1581 1522 
L 1381 1569 
Q 847 1681 609 1914 
Q 372 2147 372 2553 
Q 372 3047 722 3315 
Q 1072 3584 1716 3584 
Q 2034 3584 2315 3537 
Q 2597 3491 2834 3397 
z
" transform="scale(0.015625)"/>
      </defs>
      <use xlink:href="#DejaVuSans-55"/>
      <use xlink:href="#DejaVuSans-70" transform="translate(73.193359 0)"/>
      <use xlink:href="#DejaVuSans-76" transform="translate(136.669922 0)"/>
      <use xlink:href="#DejaVuSans-6f" transform="translate(195.849609 0)"/>
      <use xlink:href="#DejaVuSans-74" transform="translate(257.03125 0)"/>
      <use xlink:href="#DejaVuSans-65" transform="translate(296.240234 0)"/>
      <use xlink:href="#DejaVuSans-73" transform="translate(357.763672 0)"/>
     </g>
    </g>
   </g>
   <g id="matplotlib.axis_2">
    <g id="ytick_1">
     <g id="line2d_19">
      <path d="M 90 307.8 
L 648 307.8 
" clip-path="url(#pf72d6bec14)" style="fill: none; stroke: #b0b0b0; stroke-width: 0.8; stroke-linecap: square"/>
     </g>
     <g id="line2d_20">
      <defs>
       <path id="me23430031c" d="M 0 0 
L -3.5 0 
" style="stroke: #000000; stroke-width: 0.8"/>
      </defs>
      <g>
       <use xlink:href="#me23430031c" x="90" y="307.8" style="stroke: #000000; stroke-width: 0.8"/>
      </g>
     </g>
     <g id="text_4">
      <!-- $\mathdefault{10^{0}}$ -->
      <g transform="translate(65.4 311.599219) scale(0.1 -0.1)">
       <use xlink:href="#DejaVuSans-31" transform="translate(0 0.765625)"/>
       <use xlink:href="#DejaVuSans-30" transform="translate(63.623047 0.765625)"/>
       <use xlink:href="#DejaVuSans-30" transform="translate(128.203125 39.046875) scale(0.7)"/>
      </g>
     </g>
    </g>
    <g id="ytick_2">
     <g id="line2d_21">
      <path d="M 90 223.415312 
L 648 223.415312 
" clip-path="url(#pf72d6bec14)" style="fill: none; stroke: #b0b0b0; stroke-width: 0.8; stroke-linecap: square"/>
     </g>
     <g id="line2d_22">
      <g>
       <use xlink:href="#me23430031c" x="90" y="223.415312" style="stroke: #000000; stroke-width: 0.8"/>
      </g>
     </g>
     <g id="text_5">
      <!-- $\mathdefault{10^{1}}$ -->
      <g transform="translate(65.4 227.214531) scale(0.1 -0.1)">
       <use xlink:href="#DejaVuSans-31" transform="translate(0 0.684375)"/>
       <use xlink:href="#DejaVuSans-30" transform="translate(63.623047 0.684375)"/>
       <use xlink:href="#DejaVuSans-31" transform="translate(128.203125 38.965625) scale(0.7)"/>
      </g>
     </g>
    </g>
    <g id="ytick_3">
     <g id="line2d_23">
      <path d="M 90 139.030624 
L 648 139.030624 
" clip-path="url(#pf72d6bec14)" style="fill: none; stroke: #b0b0b0; stroke-width: 0.8; stroke-linecap: square"/>
     </g>
     <g id="line2d_24">
      <g>
       <use xlink:href="#me23430031c" x="90" y="139.030624" style="stroke: #000000; stroke-width: 0.8"/>
      </g>
     </g>
     <g id="text_6">
      <!-- $\mathdefault{10^{2}}$ -->
      <g transform="translate(65.4 142.829843) scale(0.1 -0.1)">
       <defs>
        <path id="DejaVuSans-32" d="M 1228 531 
L 3431 531 
L 3431 0 
L 469 0 
L 469 531 
Q 828 903 1448 1529 
Q 2069 2156 2228 2338 
Q 2531 2678 2651 2914 
Q 2772 3150 2772 3378 
Q 2772 3750 2511 3984 
Q 2250 4219 1831 4219 
Q 1534 4219 1204 4116 
Q 875 4013 500 3803 
L 500 4441 
Q 881 4594 1212 4672 
Q 1544 4750 1819 4750 
Q 2544 4750 2975 4387 
Q 3406 4025 3406 3419 
Q 3406 3131 3298 2873 
Q 3191 2616 2906 2266 
Q 2828 2175 2409 1742 
Q 1991 1309 1228 531 
z
" transform="scale(0.015625)"/>
       </defs>
       <use xlink:href="#DejaVuSans-31" transform="translate(0 0.765625)"/>
       <use xlink:href="#DejaVuSans-30" transform="translate(63.623047 0.765625)"/>
       <use xlink:href="#DejaVuSans-32" transform="translate(128.203125 39.046875) scale(0.7)"/>
      </g>
     </g>
    </g>
    <g id="ytick_4">
     <g id="line2d_25">
      <path d="M 90 54.645936 
L 648 54.645936 
" clip-path="url(#pf72d6bec14)" style="fill: none; stroke: #b0b0b0; stroke-width: 0.8; stroke-linecap: square"/>
     </g>
     <g id="line2d_26">
      <g>
       <use xlink:href="#me23430031c" x="90" y="54.645936" style="stroke: #000000; stroke-width: 0.8"/>
      </g>
     </g>
     <g id="text_7">
      <!-- $\mathdefault{10^{3}}$ -->
      <g transform="translate(65.4 58.445155) scale(0.1 -0.1)">
       <use xlink:href="#DejaVuSans-31" transform="translate(0 0.765625)"/>
       <use xlink:href="#DejaVuSans-30" transform="translate(63.623047 0.765625)"/>
       <use xlink:href="#DejaVuSans-33" transform="translate(128.203125 39.046875) scale(0.7)"/>
      </g>
     </g>
    </g>
    <g id="ytick_5">
     <g id="line2d_27">
      <defs>
       <path id="m40002b9eaa" d="M 0 0 
L -2 0 
" style="stroke: #000000; stroke-width: 0.6"/>
      </defs>
      <g>
       <use xlink:href="#m40002b9eaa" x="90" y="315.977721" style="stroke: #000000; stroke-width: 0.6"/>
      </g>
     </g>
    </g>
    <g id="ytick_6">
     <g id="line2d_28">
      <g>
       <use xlink:href="#m40002b9eaa" x="90" y="311.661232" style="stroke: #000000; stroke-width: 0.6"/>
      </g>
     </g>
    </g>
    <g id="ytick_7">
     <g id="line2d_29">
      <g>
       <use xlink:href="#m40002b9eaa" x="90" y="282.397678" style="stroke: #000000; stroke-width: 0.6"/>
      </g>
     </g>
    </g>
    <g id="ytick_8">
     <g id="line2d_30">
      <g>
       <use xlink:href="#m40002b9eaa" x="90" y="267.538272" style="stroke: #000000; stroke-width: 0.6"/>
      </g>
     </g>
    </g>
    <g id="ytick_9">
     <g id="line2d_31">
      <g>
       <use xlink:href="#m40002b9eaa" x="90" y="256.995356" style="stroke: #000000; stroke-width: 0.6"/>
      </g>
     </g>
    </g>
    <g id="ytick_10">
     <g id="line2d_32">
      <g>
       <use xlink:href="#m40002b9eaa" x="90" y="248.817634" style="stroke: #000000; stroke-width: 0.6"/>
      </g>
     </g>
    </g>
    <g id="ytick_11">
     <g id="line2d_33">
      <g>
       <use xlink:href="#m40002b9eaa" x="90" y="242.13595" style="stroke: #000000; stroke-width: 0.6"/>
      </g>
     </g>
    </g>
    <g id="ytick_12">
     <g id="line2d_34">
      <g>
       <use xlink:href="#m40002b9eaa" x="90" y="236.486666" style="stroke: #000000; stroke-width: 0.6"/>
      </g>
     </g>
    </g>
    <g id="ytick_13">
     <g id="line2d_35">
      <g>
       <use xlink:href="#m40002b9eaa" x="90" y="231.593033" style="stroke: #000000; stroke-width: 0.6"/>
      </g>
     </g>
    </g>
    <g id="ytick_14">
     <g id="line2d_36">
      <g>
       <use xlink:href="#m40002b9eaa" x="90" y="227.276544" style="stroke: #000000; stroke-width: 0.6"/>
      </g>
     </g>
    </g>
    <g id="ytick_15">
     <g id="line2d_37">
      <g>
       <use xlink:href="#m40002b9eaa" x="90" y="198.01299" style="stroke: #000000; stroke-width: 0.6"/>
      </g>
     </g>
    </g>
    <g id="ytick_16">
     <g id="line2d_38">
      <g>
       <use xlink:href="#m40002b9eaa" x="90" y="183.153584" style="stroke: #000000; stroke-width: 0.6"/>
      </g>
     </g>
    </g>
    <g id="ytick_17">
     <g id="line2d_39">
      <g>
       <use xlink:href="#m40002b9eaa" x="90" y="172.610668" style="stroke: #000000; stroke-width: 0.6"/>
      </g>
     </g>
    </g>
    <g id="ytick_18">
     <g id="line2d_40">
      <g>
       <use xlink:href="#m40002b9eaa" x="90" y="164.432946" style="stroke: #000000; stroke-width: 0.6"/>
      </g>
     </g>
    </g>
    <g id="ytick_19">
     <g id="line2d_41">
      <g>
       <use xlink:href="#m40002b9eaa" x="90" y="157.751262" style="stroke: #000000; stroke-width: 0.6"/>
      </g>
     </g>
    </g>
    <g id="ytick_20">
     <g id="line2d_42">
      <g>
       <use xlink:href="#m40002b9eaa" x="90" y="152.101978" style="stroke: #000000; stroke-width: 0.6"/>
      </g>
     </g>
    </g>
    <g id="ytick_21">
     <g id="line2d_43">
      <g>
       <use xlink:href="#m40002b9eaa" x="90" y="147.208345" style="stroke: #000000; stroke-width: 0.6"/>
      </g>
     </g>
    </g>
    <g id="ytick_22">
     <g id="line2d_44">
      <g>
       <use xlink:href="#m40002b9eaa" x="90" y="142.891856" style="stroke: #000000; stroke-width: 0.6"/>
      </g>
     </g>
    </g>
    <g id="ytick_23">
     <g id="line2d_45">
      <g>
       <use xlink:href="#m40002b9eaa" x="90" y="113.628302" style="stroke: #000000; stroke-width: 0.6"/>
      </g>
     </g>
    </g>
    <g id="ytick_24">
     <g id="line2d_46">
      <g>
       <use xlink:href="#m40002b9eaa" x="90" y="98.768896" style="stroke: #000000; stroke-width: 0.6"/>
      </g>
     </g>
    </g>
    <g id="ytick_25">
     <g id="line2d_47">
      <g>
       <use xlink:href="#m40002b9eaa" x="90" y="88.22598" style="stroke: #000000; stroke-width: 0.6"/>
      </g>
     </g>
    </g>
    <g id="ytick_26">
     <g id="line2d_48">
      <g>
       <use xlink:href="#m40002b9eaa" x="90" y="80.048258" style="stroke: #000000; stroke-width: 0.6"/>
      </g>
     </g>
    </g>
    <g id="ytick_27">
     <g id="line2d_49">
      <g>
       <use xlink:href="#m40002b9eaa" x="90" y="73.366574" style="stroke: #000000; stroke-width: 0.6"/>
      </g>
     </g>
    </g>
    <g id="ytick_28">
     <g id="line2d_50">
      <g>
       <use xlink:href="#m40002b9eaa" x="90" y="67.71729" style="stroke: #000000; stroke-width: 0.6"/>
      </g>
     </g>
    </g>
    <g id="ytick_29">
     <g id="line2d_51">
      <g>
       <use xlink:href="#m40002b9eaa" x="90" y="62.823657" style="stroke: #000000; stroke-width: 0.6"/>
      </g>
     </g>
    </g>
    <g id="ytick_30">
     <g id="line2d_52">
      <g>
       <use xlink:href="#m40002b9eaa" x="90" y="58.507168" style="stroke: #000000; stroke-width: 0.6"/>
      </g>
     </g>
    </g>
    <g id="text_8">
     <!-- Comments -->
     <g transform="translate(59.320312 208.901562) rotate(-90) scale(0.1 -0.1)">
      <defs>
       <path id="DejaVuSans-43" d="M 4122 4306 
L 4122 3641 
Q 3803 3938 3442 4084 
Q 3081 4231 2675 4231 
Q 1875 4231 1450 3742 
Q 1025 3253 1025 2328 
Q 1025 1406 1450 917 
Q 1875 428 2675 428 
Q 3081 428 3442 575 
Q 3803 722 4122 1019 
L 4122 359 
Q 3791 134 3420 21 
Q 3050 -91 2638 -91 
Q 1578 -91 968 557 
Q 359 1206 359 2328 
Q 359 3453 968 4101 
Q 1578 4750 2638 4750 
Q 3056 4750 3426 4639 
Q 3797 4528 4122 4306 
z
" transform="scale(0.015625)"/>
       <path id="DejaVuSans-6d" d="M 3328 2828 
Q 3544 3216 3844 3400 
Q 4144 3584 4550 3584 
Q 5097 3584 5394 3201 
Q 5691 2819 5691 2113 
L 5691 0 
L 5113 0 
L 5113 2094 
Q 5113 2597 4934 2840 
Q 4756 3084 4391 3084 
Q 3944 3084 3684 2787 
Q 3425 2491 3425 1978 
L 3425 0 
L 2847 0 
L 2847 2094 
Q 2847 2600 2669 2842 
Q 2491 3084 2119 3084 
Q 1678 3084 1418 2786 
Q 1159 2488 1159 1978 
L 1159 0 
L 581 0 
L 581 3500 
L 1159 3500 
L 1159 2956 
Q 1356 3278 1631 3431 
Q 1906 3584 2284 3584 
Q 2666 3584 2933 3390 
Q 3200 3197 3328 2828 
z
" transform="scale(0.015625)"/>
       <path id="DejaVuSans-6e" d="M 3513 2113 
L 3513 0 
L 2938 0 
L 2938 2094 
Q 2938 2591 2744 2837 
Q 2550 3084 2163 3084 
Q 1697 3084 1428 2787 
Q 1159 2491 1159 1978 
L 1159 0 
L 581 0 
L 581 3500 
L 1159 3500 
L 1159 2956 
Q 1366 3272 1645 3428 
Q 1925 3584 2291 3584 
Q 2894 3584 3203 3211 
Q 3513 2838 3513 2113 
z
" transform="scale(0.015625)"/>
      </defs>
      <use xlink:href="#DejaVuSans-43"/>
      <use xlink:href="#DejaVuSans-6f" transform="translate(69.824219 0)"/>
      <use xlink:href="#DejaVuSans-6d" transform="translate(131.005859 0)"/>
      <use xlink:href="#DejaVuSans-6d" transform="translate(228.417969 0)"/>
      <use xlink:href="#DejaVuSans-65" transform="translate(325.830078 0)"/>
      <use xlink:href="#DejaVuSans-6e" transform="translate(387.353516 0)"/>
      <use xlink:href="#DejaVuSans-74" transform="translate(450.732422 0)"/>
      <use xlink:href="#DejaVuSans-73" transform="translate(489.941406 0)"/>
     </g>
    </g>
   </g>
   <g id="patch_3">
    <path d="M 90 320.4 
L 90 43.2 
" style="fill: none; stroke: #000000; stroke-width: 0.8; stroke-linejoin: miter; stroke-linecap: square"/>
   </g>
   <g id="patch_4">
    <path d="M 648 320.4 
L 648 43.2 
" style="fill: none; stroke: #000000; stroke-width: 0.8; stroke-linejoin: miter; stroke-linecap: square"/>
   </g>
   <g id="patch_5">
    <path d="M 90 320.4 
L 648 320.4 
" style="fill: none; stroke: #000000; stroke-width: 0.8; stroke-linejoin: miter; stroke-linecap: square"/>
   </g>
   <g id="patch_6">
    <path d="M 90 43.2 
L 648 43.2 
" style="fill: none; stroke: #000000; stroke-width: 0.8; stroke-linejoin: miter; stroke-linecap: square"/>
   </g>
   <g id="text_9">
    <g id="patch_7">
     <path d="M 611.678551 108.982291 
L 626.636364 108.982291 
L 626.636364 91.304166 
L 611.678551 91.304166 
z
" style="fill: #ffffff; opacity: 0.7; stroke: #000000; stroke-linejoin: miter"/>
    </g>
    <!-- 1 -->
    <g transform="translate(615.678551 102.902603) scale(0.1 -0.1)">
     <defs>
      <path id="DejaVuSans-Bold-31" d="M 750 831 
L 1813 831 
L 1813 3847 
L 722 3622 
L 722 4441 
L 1806 4666 
L 2950 4666 
L 2950 831 
L 4013 831 
L 4013 0 
L 750 0 
L 750 831 
z
" transform="scale(0.015625)"/>
     </defs>
     <use xlink:href="#DejaVuSans-Bold-31"/>
    </g>
   </g>
   <g id="text_10">
    <g id="patch_8">
     <path d="M 536.76159 123.164269 
L 551.719402 123.164269 
L 551.719402 105.486144 
L 536.76159 105.486144 
z
" style="fill: #ffffff; opacity: 0.7; stroke: #000000; stroke-linejoin: miter"/>
    </g>
    <!-- 2 -->
    <g transform="translate(540.76159 117.084581) scale(0.1 -0.1)">
     <defs>
      <path id="DejaVuSans-Bold-32" d="M 1844 884 
L 3897 884 
L 3897 0 
L 506 0 
L 506 884 
L 2209 2388 
Q 2438 2594 2547 2791 
Q 2656 2988 2656 3200 
Q 2656 3528 2436 3728 
Q 2216 3928 1850 3928 
Q 1569 3928 1234 3808 
Q 900 3688 519 3450 
L 519 4475 
Q 925 4609 1322 4679 
Q 1719 4750 2100 4750 
Q 2938 4750 3402 4381 
Q 3866 4013 3866 3353 
Q 3866 2972 3669 2642 
Q 3472 2313 2841 1759 
L 1844 884 
z
" transform="scale(0.015625)"/>
     </defs>
     <use xlink:href="#DejaVuSans-Bold-32"/>
    </g>
   </g>
   <g id="text_11">
    <g id="patch_9">
     <path d="M 494.041495 156.145152 
L 508.999308 156.145152 
L 508.999308 138.467027 
L 494.041495 138.467027 
z
" style="fill: #ffffff; opacity: 0.7; stroke: #000000; stroke-linejoin: miter"/>
    </g>
    <!-- 3 -->
    <g transform="translate(498.041495 150.065465) scale(0.1 -0.1)">
     <defs>
      <path id="DejaVuSans-Bold-33" d="M 2981 2516 
Q 3453 2394 3698 2092 
Q 3944 1791 3944 1325 
Q 3944 631 3412 270 
Q 2881 -91 1863 -91 
Q 1503 -91 1142 -33 
Q 781 25 428 141 
L 428 1069 
Q 766 900 1098 814 
Q 1431 728 1753 728 
Q 2231 728 2486 893 
Q 2741 1059 2741 1369 
Q 2741 1688 2480 1852 
Q 2219 2016 1709 2016 
L 1228 2016 
L 1228 2791 
L 1734 2791 
Q 2188 2791 2409 2933 
Q 2631 3075 2631 3366 
Q 2631 3634 2415 3781 
Q 2200 3928 1806 3928 
Q 1516 3928 1219 3862 
Q 922 3797 628 3669 
L 628 4550 
Q 984 4650 1334 4700 
Q 1684 4750 2022 4750 
Q 2931 4750 3382 4451 
Q 3834 4153 3834 3553 
Q 3834 3144 3618 2883 
Q 3403 2622 2981 2516 
z
" transform="scale(0.015625)"/>
     </defs>
     <use xlink:href="#DejaVuSans-Bold-33"/>
    </g>
   </g>
   <g id="text_12">
    <g id="patch_10">
     <path d="M 479.708577 188.031596 
L 494.666389 188.031596 
L 494.666389 170.353471 
L 479.708577 170.353471 
z
" style="fill: #ffffff; opacity: 0.7; stroke: #000000; stroke-linejoin: miter"/>
    </g>
    <!-- 4 -->
    <g transform="translate(483.708577 181.951909) scale(0.1 -0.1)">
     <defs>
      <path id="DejaVuSans-Bold-34" d="M 2356 3675 
L 1038 1722 
L 2356 1722 
L 2356 3675 
z
M 2156 4666 
L 3494 4666 
L 3494 1722 
L 4159 1722 
L 4159 850 
L 3494 850 
L 3494 0 
L 2356 0 
L 2356 850 
L 288 850 
L 288 1881 
L 2156 4666 
z
" transform="scale(0.015625)"/>
     </defs>
     <use xlink:href="#DejaVuSans-Bold-34"/>
    </g>
   </g>
   <g id="text_13">
    <g id="patch_11">
     <path d="M 451.603731 61.879687 
L 466.561544 61.879687 
L 466.561544 44.201562 
L 451.603731 44.201562 
z
" style="fill: #ffffff; opacity: 0.7; stroke: #000000; stroke-linejoin: miter"/>
    </g>
    <!-- 5 -->
    <g transform="translate(455.603731 55.8) scale(0.1 -0.1)">
     <defs>
      <path id="DejaVuSans-Bold-35" d="M 678 4666 
L 3669 4666 
L 3669 3781 
L 1638 3781 
L 1638 3059 
Q 1775 3097 1914 3117 
Q 2053 3138 2203 3138 
Q 3056 3138 3531 2711 
Q 4006 2284 4006 1522 
Q 4006 766 3489 337 
Q 2972 -91 2053 -91 
Q 1656 -91 1267 -14 
Q 878 63 494 219 
L 494 1166 
Q 875 947 1217 837 
Q 1559 728 1863 728 
Q 2300 728 2551 942 
Q 2803 1156 2803 1522 
Q 2803 1891 2551 2103 
Q 2300 2316 1863 2316 
Q 1603 2316 1309 2248 
Q 1016 2181 678 2041 
L 678 4666 
z
" transform="scale(0.015625)"/>
     </defs>
     <use xlink:href="#DejaVuSans-Bold-35"/>
    </g>
   </g>
   <g id="text_14">
    <g id="patch_12">
     <path d="M 416.138192 113.642249 
L 431.096005 113.642249 
L 431.096005 95.964124 
L 416.138192 95.964124 
z
" style="fill: #ffffff; opacity: 0.7; stroke: #000000; stroke-linejoin: miter"/>
    </g>
    <!-- 6 -->
    <g transform="translate(420.138192 107.562561) scale(0.1 -0.1)">
     <defs>
      <path id="DejaVuSans-Bold-36" d="M 2316 2303 
Q 2000 2303 1842 2098 
Q 1684 1894 1684 1484 
Q 1684 1075 1842 870 
Q 2000 666 2316 666 
Q 2634 666 2792 870 
Q 2950 1075 2950 1484 
Q 2950 1894 2792 2098 
Q 2634 2303 2316 2303 
z
M 3803 4544 
L 3803 3681 
Q 3506 3822 3243 3889 
Q 2981 3956 2731 3956 
Q 2194 3956 1894 3657 
Q 1594 3359 1544 2772 
Q 1750 2925 1990 3001 
Q 2231 3078 2516 3078 
Q 3231 3078 3670 2659 
Q 4109 2241 4109 1563 
Q 4109 813 3618 361 
Q 3128 -91 2303 -91 
Q 1394 -91 895 523 
Q 397 1138 397 2266 
Q 397 3422 980 4083 
Q 1563 4744 2578 4744 
Q 2900 4744 3203 4694 
Q 3506 4644 3803 4544 
z
" transform="scale(0.015625)"/>
     </defs>
     <use xlink:href="#DejaVuSans-Bold-36"/>
    </g>
   </g>
   <g id="text_15">
    <g id="patch_13">
     <path d="M 414.245443 189.233271 
L 429.203256 189.233271 
L 429.203256 171.555146 
L 414.245443 171.555146 
z
" style="fill: #ffffff; opacity: 0.7; stroke: #000000; stroke-linejoin: miter"/>
    </g>
    <!-- 7 -->
    <g transform="translate(418.245443 183.153584) scale(0.1 -0.1)">
     <defs>
      <path id="DejaVuSans-Bold-37" d="M 428 4666 
L 3944 4666 
L 3944 3988 
L 2125 0 
L 953 0 
L 2675 3781 
L 428 3781 
L 428 4666 
z
" transform="scale(0.015625)"/>
     </defs>
     <use xlink:href="#DejaVuSans-Bold-37"/>
    </g>
   </g>
   <g id="text_16">
    <g id="patch_14">
     <path d="M 399.590392 161.465754 
L 414.548204 161.465754 
L 414.548204 143.787629 
L 399.590392 143.787629 
z
" style="fill: #ffffff; opacity: 0.7; stroke: #000000; stroke-linejoin: miter"/>
    </g>
    <!-- 8 -->
    <g transform="translate(403.590392 155.386067) scale(0.1 -0.1)">
     <defs>
      <path id="DejaVuSans-Bold-38" d="M 2228 2088 
Q 1891 2088 1709 1903 
Q 1528 1719 1528 1375 
Q 1528 1031 1709 848 
Q 1891 666 2228 666 
Q 2563 666 2741 848 
Q 2919 1031 2919 1375 
Q 2919 1722 2741 1905 
Q 2563 2088 2228 2088 
z
M 1350 2484 
Q 925 2613 709 2878 
Q 494 3144 494 3541 
Q 494 4131 934 4440 
Q 1375 4750 2228 4750 
Q 3075 4750 3515 4442 
Q 3956 4134 3956 3541 
Q 3956 3144 3739 2878 
Q 3522 2613 3097 2484 
Q 3572 2353 3814 2058 
Q 4056 1763 4056 1313 
Q 4056 619 3595 264 
Q 3134 -91 2228 -91 
Q 1319 -91 855 264 
Q 391 619 391 1313 
Q 391 1763 633 2058 
Q 875 2353 1350 2484 
z
M 1631 3419 
Q 1631 3141 1786 2991 
Q 1941 2841 2228 2841 
Q 2509 2841 2662 2991 
Q 2816 3141 2816 3419 
Q 2816 3697 2662 3845 
Q 2509 3994 2228 3994 
Q 1941 3994 1786 3844 
Q 1631 3694 1631 3419 
z
" transform="scale(0.015625)"/>
     </defs>
     <use xlink:href="#DejaVuSans-Bold-38"/>
    </g>
   </g>
   <g id="text_17">
    <g id="patch_15">
     <path d="M 394.261289 139.671044 
L 409.219102 139.671044 
L 409.219102 121.992919 
L 394.261289 121.992919 
z
" style="fill: #ffffff; opacity: 0.7; stroke: #000000; stroke-linejoin: miter"/>
    </g>
    <!-- 9 -->
    <g transform="translate(398.261289 133.591357) scale(0.1 -0.1)">
     <defs>
      <path id="DejaVuSans-Bold-39" d="M 641 103 
L 641 966 
Q 928 831 1190 764 
Q 1453 697 1709 697 
Q 2247 697 2547 995 
Q 2847 1294 2900 1881 
Q 2688 1725 2447 1647 
Q 2206 1569 1925 1569 
Q 1209 1569 770 1986 
Q 331 2403 331 3084 
Q 331 3838 820 4291 
Q 1309 4744 2131 4744 
Q 3044 4744 3544 4128 
Q 4044 3513 4044 2388 
Q 4044 1231 3459 570 
Q 2875 -91 1856 -91 
Q 1528 -91 1228 -42 
Q 928 6 641 103 
z
M 2125 2350 
Q 2441 2350 2600 2554 
Q 2759 2759 2759 3169 
Q 2759 3575 2600 3781 
Q 2441 3988 2125 3988 
Q 1809 3988 1650 3781 
Q 1491 3575 1491 3169 
Q 1491 2759 1650 2554 
Q 1809 2350 2125 2350 
z
" transform="scale(0.015625)"/>
     </defs>
     <use xlink:href="#DejaVuSans-Bold-39"/>
    </g>
   </g>
   <g id="text_18">
    <g id="patch_16">
     <path d="M 354.933023 226.002091 
L 376.848648 226.002091 
L 376.848648 208.323966 
L 354.933023 208.323966 
z
" style="fill: #ffffff; opacity: 0.7; stroke: #000000; stroke-linejoin: miter"/>
    </g>
    <!-- 10 -->
    <g transform="translate(358.933023 219.922403) scale(0.1 -0.1)">
     <defs>
      <path id="DejaVuSans-Bold-30" d="M 2944 2338 
Q 2944 3213 2780 3570 
Q 2616 3928 2228 3928 
Q 1841 3928 1675 3570 
Q 1509 3213 1509 2338 
Q 1509 1453 1675 1090 
Q 1841 728 2228 728 
Q 2613 728 2778 1090 
Q 2944 1453 2944 2338 
z
M 4147 2328 
Q 4147 1169 3647 539 
Q 3147 -91 2228 -91 
Q 1306 -91 806 539 
Q 306 1169 306 2328 
Q 306 3491 806 4120 
Q 1306 4750 2228 4750 
Q 3147 4750 3647 4120 
Q 4147 3491 4147 2328 
z
" transform="scale(0.015625)"/>
     </defs>
     <use xlink:href="#DejaVuSans-Bold-31"/>
     <use xlink:href="#DejaVuSans-Bold-30" transform="translate(69.580078 0)"/>
    </g>
   </g>
   <g id="text_19">
    <g id="patch_17">
     <path d="M 311.193326 114.427028 
L 333.108951 114.427028 
L 333.108951 96.748903 
L 311.193326 96.748903 
z
" style="fill: #ffffff; opacity: 0.7; stroke: #000000; stroke-linejoin: miter"/>
    </g>
    <!-- 11 -->
    <g transform="translate(315.193326 108.347341) scale(0.1 -0.1)">
     <use xlink:href="#DejaVuSans-Bold-31"/>
     <use xlink:href="#DejaVuSans-Bold-31" transform="translate(69.580078 0)"/>
    </g>
   </g>
   <g id="text_20">
    <g id="patch_18">
     <path d="M 250.735537 120.261871 
L 272.651162 120.261871 
L 272.651162 102.583746 
L 250.735537 102.583746 
z
" style="fill: #ffffff; opacity: 0.7; stroke: #000000; stroke-linejoin: miter"/>
    </g>
    <!-- 12 -->
    <g transform="translate(254.735537 114.182184) scale(0.1 -0.1)">
     <use xlink:href="#DejaVuSans-Bold-31"/>
     <use xlink:href="#DejaVuSans-Bold-32" transform="translate(69.580078 0)"/>
    </g>
   </g>
   <g id="text_21">
    <g id="patch_19">
     <path d="M 244.577045 185.740363 
L 266.49267 185.740363 
L 266.49267 168.062238 
L 244.577045 168.062238 
z
" style="fill: #ffffff; opacity: 0.7; stroke: #000000; stroke-linejoin: miter"/>
    </g>
    <!-- 13 -->
    <g transform="translate(248.577045 179.660675) scale(0.1 -0.1)">
     <use xlink:href="#DejaVuSans-Bold-31"/>
     <use xlink:href="#DejaVuSans-Bold-33" transform="translate(69.580078 0)"/>
    </g>
   </g>
   <g id="text_22">
    <g id="patch_20">
     <path d="M 202.983483 229.495 
L 224.899108 229.495 
L 224.899108 211.816875 
L 202.983483 211.816875 
z
" style="fill: #ffffff; opacity: 0.7; stroke: #000000; stroke-linejoin: miter"/>
    </g>
    <!-- 14 -->
    <g transform="translate(206.983483 223.415312) scale(0.1 -0.1)">
     <use xlink:href="#DejaVuSans-Bold-31"/>
     <use xlink:href="#DejaVuSans-Bold-34" transform="translate(69.580078 0)"/>
    </g>
   </g>
   <g id="text_23">
    <g id="patch_21">
     <path d="M 183.825328 198.970709 
L 205.740953 198.970709 
L 205.740953 181.292584 
L 183.825328 181.292584 
z
" style="fill: #ffffff; opacity: 0.7; stroke: #000000; stroke-linejoin: miter"/>
    </g>
    <!-- 15 -->
    <g transform="translate(187.825328 192.891022) scale(0.1 -0.1)">
     <use xlink:href="#DejaVuSans-Bold-31"/>
     <use xlink:href="#DejaVuSans-Bold-35" transform="translate(69.580078 0)"/>
    </g>
   </g>
   <g id="text_24">
    <g id="patch_22">
     <path d="M 192.316382 233.356231 
L 214.232007 233.356231 
L 214.232007 215.678106 
L 192.316382 215.678106 
z
" style="fill: #ffffff; opacity: 0.7; stroke: #000000; stroke-linejoin: miter"/>
    </g>
    <!-- 16 -->
    <g transform="translate(196.316382 227.276544) scale(0.1 -0.1)">
     <use xlink:href="#DejaVuSans-Bold-31"/>
     <use xlink:href="#DejaVuSans-Bold-36" transform="translate(69.580078 0)"/>
    </g>
   </g>
   <g id="text_25">
    <g id="patch_23">
     <path d="M 113.811425 313.879687 
L 135.72705 313.879687 
L 135.72705 296.201562 
L 113.811425 296.201562 
z
" style="fill: #ffffff; opacity: 0.7; stroke: #000000; stroke-linejoin: miter"/>
    </g>
    <!-- 17 -->
    <g transform="translate(117.811425 307.8) scale(0.1 -0.1)">
     <use xlink:href="#DejaVuSans-Bold-31"/>
     <use xlink:href="#DejaVuSans-Bold-37" transform="translate(69.580078 0)"/>
    </g>
   </g>
   <g id="text_26">
    <g id="patch_24">
     <path d="M 115.512882 168.377206 
L 137.428507 168.377206 
L 137.428507 150.699081 
L 115.512882 150.699081 
z
" style="fill: #ffffff; opacity: 0.7; stroke: #000000; stroke-linejoin: miter"/>
    </g>
    <!-- 18 -->
    <g transform="translate(119.512882 162.297519) scale(0.1 -0.1)">
     <use xlink:href="#DejaVuSans-Bold-31"/>
     <use xlink:href="#DejaVuSans-Bold-38" transform="translate(69.580078 0)"/>
    </g>
   </g>
   <g id="text_27">
    <g id="patch_25">
     <path d="M 101.071623 254.897322 
L 122.987248 254.897322 
L 122.987248 237.219197 
L 101.071623 237.219197 
z
" style="fill: #ffffff; opacity: 0.7; stroke: #000000; stroke-linejoin: miter"/>
    </g>
    <!-- 19 -->
    <g transform="translate(105.071623 248.817634) scale(0.1 -0.1)">
     <use xlink:href="#DejaVuSans-Bold-31"/>
     <use xlink:href="#DejaVuSans-Bold-39" transform="translate(69.580078 0)"/>
    </g>
   </g>
   <g id="text_28">
    <g id="patch_26">
     <path d="M 97.448011 184.646317 
L 119.363636 184.646317 
L 119.363636 166.968192 
L 97.448011 166.968192 
z
" style="fill: #ffffff; opacity: 0.7; stroke: #000000; stroke-linejoin: miter"/>
    </g>
    <!-- 20 -->
    <g transform="translate(101.448011 178.56663) scale(0.1 -0.1)">
     <use xlink:href="#DejaVuSans-Bold-32"/>
     <use xlink:href="#DejaVuSans-Bold-30" transform="translate(69.580078 0)"/>
    </g>
   </g>
   <g id="text_29">
    <!-- Meme Popularity: Upvotes vs Comments -->
    <g transform="translate(247.52625 37.2) scale(0.12 -0.12)">
     <defs>
      <path id="DejaVuSans-4d" d="M 628 4666 
L 1569 4666 
L 2759 1491 
L 3956 4666 
L 4897 4666 
L 4897 0 
L 4281 0 
L 4281 4097 
L 3078 897 
L 2444 897 
L 1241 4097 
L 1241 0 
L 628 0 
L 628 4666 
z
" transform="scale(0.015625)"/>
      <path id="DejaVuSans-20" transform="scale(0.015625)"/>
      <path id="DejaVuSans-50" d="M 1259 4147 
L 1259 2394 
L 2053 2394 
Q 2494 2394 2734 2622 
Q 2975 2850 2975 3272 
Q 2975 3691 2734 3919 
Q 2494 4147 2053 4147 
L 1259 4147 
z
M 628 4666 
L 2053 4666 
Q 2838 4666 3239 4311 
Q 3641 3956 3641 3272 
Q 3641 2581 3239 2228 
Q 2838 1875 2053 1875 
L 1259 1875 
L 1259 0 
L 628 0 
L 628 4666 
z
" transform="scale(0.015625)"/>
      <path id="DejaVuSans-75" d="M 544 1381 
L 544 3500 
L 1119 3500 
L 1119 1403 
Q 1119 906 1312 657 
Q 1506 409 1894 409 
Q 2359 409 2629 706 
Q 2900 1003 2900 1516 
L 2900 3500 
L 3475 3500 
L 3475 0 
L 2900 0 
L 2900 538 
Q 2691 219 2414 64 
Q 2138 -91 1772 -91 
Q 1169 -91 856 284 
Q 544 659 544 1381 
z
M 1991 3584 
L 1991 3584 
z
" transform="scale(0.015625)"/>
      <path id="DejaVuSans-6c" d="M 603 4863 
L 1178 4863 
L 1178 0 
L 603 0 
L 603 4863 
z
" transform="scale(0.015625)"/>
      <path id="DejaVuSans-61" d="M 2194 1759 
Q 1497 1759 1228 1600 
Q 959 1441 959 1056 
Q 959 750 1161 570 
Q 1363 391 1709 391 
Q 2188 391 2477 730 
Q 2766 1069 2766 1631 
L 2766 1759 
L 2194 1759 
z
M 3341 1997 
L 3341 0 
L 2766 0 
L 2766 531 
Q 2569 213 2275 61 
Q 1981 -91 1556 -91 
Q 1019 -91 701 211 
Q 384 513 384 1019 
Q 384 1609 779 1909 
Q 1175 2209 1959 2209 
L 2766 2209 
L 2766 2266 
Q 2766 2663 2505 2880 
Q 2244 3097 1772 3097 
Q 1472 3097 1187 3025 
Q 903 2953 641 2809 
L 641 3341 
Q 956 3463 1253 3523 
Q 1550 3584 1831 3584 
Q 2591 3584 2966 3190 
Q 3341 2797 3341 1997 
z
" transform="scale(0.015625)"/>
      <path id="DejaVuSans-72" d="M 2631 2963 
Q 2534 3019 2420 3045 
Q 2306 3072 2169 3072 
Q 1681 3072 1420 2755 
Q 1159 2438 1159 1844 
L 1159 0 
L 581 0 
L 581 3500 
L 1159 3500 
L 1159 2956 
Q 1341 3275 1631 3429 
Q 1922 3584 2338 3584 
Q 2397 3584 2469 3576 
Q 2541 3569 2628 3553 
L 2631 2963 
z
" transform="scale(0.015625)"/>
      <path id="DejaVuSans-69" d="M 603 3500 
L 1178 3500 
L 1178 0 
L 603 0 
L 603 3500 
z
M 603 4863 
L 1178 4863 
L 1178 4134 
L 603 4134 
L 603 4863 
z
" transform="scale(0.015625)"/>
      <path id="DejaVuSans-79" d="M 2059 -325 
Q 1816 -950 1584 -1140 
Q 1353 -1331 966 -1331 
L 506 -1331 
L 506 -850 
L 844 -850 
Q 1081 -850 1212 -737 
Q 1344 -625 1503 -206 
L 1606 56 
L 191 3500 
L 800 3500 
L 1894 763 
L 2988 3500 
L 3597 3500 
L 2059 -325 
z
" transform="scale(0.015625)"/>
      <path id="DejaVuSans-3a" d="M 750 794 
L 1409 794 
L 1409 0 
L 750 0 
L 750 794 
z
M 750 3309 
L 1409 3309 
L 1409 2516 
L 750 2516 
L 750 3309 
z
" transform="scale(0.015625)"/>
     </defs>
     <use xlink:href="#DejaVuSans-4d"/>
     <use xlink:href="#DejaVuSans-65" transform="translate(86.279297 0)"/>
     <use xlink:href="#DejaVuSans-6d" transform="translate(147.802734 0)"/>
     <use xlink:href="#DejaVuSans-65" transform="translate(245.214844 0)"/>
     <use xlink:href="#DejaVuSans-20" transform="translate(306.738281 0)"/>
     <use xlink:href="#DejaVuSans-50" transform="translate(338.525391 0)"/>
     <use xlink:href="#DejaVuSans-6f" transform="translate(395.203125 0)"/>
     <use xlink:href="#DejaVuSans-70" transform="translate(456.384766 0)"/>
     <use xlink:href="#DejaVuSans-75" transform="translate(519.861328 0)"/>
     <use xlink:href="#DejaVuSans-6c" transform="translate(583.240234 0)"/>
     <use xlink:href="#DejaVuSans-61" transform="translate(611.023438 0)"/>
     <use xlink:href="#DejaVuSans-72" transform="translate(672.302734 0)"/>
     <use xlink:href="#DejaVuSans-69" transform="translate(713.416016 0)"/>
     <use xlink:href="#DejaVuSans-74" transform="translate(741.199219 0)"/>
     <use xlink:href="#DejaVuSans-79" transform="translate(780.408203 0)"/>
     <use xlink:href="#DejaVuSans-3a" transform="translate(832.337891 0)"/>
     <use xlink:href="#DejaVuSans-20" transform="translate(866.029297 0)"/>
     <use xlink:href="#DejaVuSans-55" transform="translate(897.816406 0)"/>
     <use xlink:href="#DejaVuSans-70" transform="translate(971.009766 0)"/>
     <use xlink:href="#DejaVuSans-76" transform="translate(1034.486328 0)"/>
     <use xlink:href="#DejaVuSans-6f" transform="translate(1093.666016 0)"/>
     <use xlink:href="#DejaVuSans-74" transform="translate(1154.847656 0)"/>
     <use xlink:href="#DejaVuSans-65" transform="translate(1194.056641 0)"/>
     <use xlink:href="#DejaVuSans-73" transform="translate(1255.580078 0)"/>
     <use xlink:href="#DejaVuSans-20" transform="translate(1307.679688 0)"/>
     <use xlink:href="#DejaVuSans-76" transform="translate(1339.466797 0)"/>
     <use xlink:href="#DejaVuSans-73" transform="translate(1398.646484 0)"/>
     <use xlink:href="#DejaVuSans-20" transform="translate(1450.746094 0)"/>
     <use xlink:href="#DejaVuSans-43" transform="translate(1482.533203 0)"/>
     <use xlink:href="#DejaVuSans-6f" transform="translate(1552.357422 0)"/>
     <use xlink:href="#DejaVuSans-6d" transform="translate(1613.539062 0)"/>
     <use xlink:href="#DejaVuSans-6d" transform="translate(1710.951172 0)"/>
     <use xlink:href="#DejaVuSans-65" transform="translate(1808.363281 0)"/>
     <use xlink:href="#DejaVuSans-6e" transform="translate(1869.886719 0)"/>
     <use xlink:href="#DejaVuSans-74" transform="translate(1933.265625 0)"/>
     <use xlink:href="#DejaVuSans-73" transform="translate(1972.474609 0)"/>
    </g>
   </g>
   <g id="legend_1">
    <g id="patch_27">
     <path d="M 97 95.234375 
L 247.95 95.234375 
Q 249.95 95.234375 249.95 93.234375 
L 249.95 50.2 
Q 249.95 48.2 247.95 48.2 
L 97 48.2 
Q 95 48.2 95 50.2 
L 95 93.234375 
Q 95 95.234375 97 95.234375 
z
" style="fill: #ffffff; opacity: 0.8; stroke: #cccccc; stroke-linejoin: miter"/>
    </g>
    <g id="line2d_53">
     <path d="M 99 56.298437 
L 109 56.298437 
L 119 56.298437 
" style="fill: none; stroke: #ffffff; stroke-width: 1.5; stroke-linecap: square"/>
     <defs>
      <path id="m3ce7682007" d="M 0 5 
C 1.326016 5 2.597899 4.473168 3.535534 3.535534 
C 4.473168 2.597899 5 1.326016 5 0 
C 5 -1.326016 4.473168 -2.597899 3.535534 -3.535534 
C 2.597899 -4.473168 1.326016 -5 0 -5 
C -1.326016 -5 -2.597899 -4.473168 -3.535534 -3.535534 
C -4.473168 -2.597899 -5 -1.326016 -5 0 
C -5 1.326016 -4.473168 2.597899 -3.535534 3.535534 
C -2.597899 4.473168 -1.326016 5 0 5 
z
" style="stroke: #ffffff"/>
     </defs>
     <g>
      <use xlink:href="#m3ce7682007" x="109" y="56.298437" style="fill: #0000ff; stroke: #ffffff"/>
     </g>
    </g>
    <g id="text_30">
     <!-- SFW Memes -->
     <g transform="translate(127 59.798437) scale(0.1 -0.1)">
      <defs>
       <path id="DejaVuSans-53" d="M 3425 4513 
L 3425 3897 
Q 3066 4069 2747 4153 
Q 2428 4238 2131 4238 
Q 1616 4238 1336 4038 
Q 1056 3838 1056 3469 
Q 1056 3159 1242 3001 
Q 1428 2844 1947 2747 
L 2328 2669 
Q 3034 2534 3370 2195 
Q 3706 1856 3706 1288 
Q 3706 609 3251 259 
Q 2797 -91 1919 -91 
Q 1588 -91 1214 -16 
Q 841 59 441 206 
L 441 856 
Q 825 641 1194 531 
Q 1563 422 1919 422 
Q 2459 422 2753 634 
Q 3047 847 3047 1241 
Q 3047 1584 2836 1778 
Q 2625 1972 2144 2069 
L 1759 2144 
Q 1053 2284 737 2584 
Q 422 2884 422 3419 
Q 422 4038 858 4394 
Q 1294 4750 2059 4750 
Q 2388 4750 2728 4690 
Q 3069 4631 3425 4513 
z
" transform="scale(0.015625)"/>
       <path id="DejaVuSans-46" d="M 628 4666 
L 3309 4666 
L 3309 4134 
L 1259 4134 
L 1259 2759 
L 3109 2759 
L 3109 2228 
L 1259 2228 
L 1259 0 
L 628 0 
L 628 4666 
z
" transform="scale(0.015625)"/>
       <path id="DejaVuSans-57" d="M 213 4666 
L 850 4666 
L 1831 722 
L 2809 4666 
L 3519 4666 
L 4500 722 
L 5478 4666 
L 6119 4666 
L 4947 0 
L 4153 0 
L 3169 4050 
L 2175 0 
L 1381 0 
L 213 4666 
z
" transform="scale(0.015625)"/>
      </defs>
      <use xlink:href="#DejaVuSans-53"/>
      <use xlink:href="#DejaVuSans-46" transform="translate(63.476562 0)"/>
      <use xlink:href="#DejaVuSans-57" transform="translate(120.996094 0)"/>
      <use xlink:href="#DejaVuSans-20" transform="translate(219.873047 0)"/>
      <use xlink:href="#DejaVuSans-4d" transform="translate(251.660156 0)"/>
      <use xlink:href="#DejaVuSans-65" transform="translate(337.939453 0)"/>
      <use xlink:href="#DejaVuSans-6d" transform="translate(399.462891 0)"/>
      <use xlink:href="#DejaVuSans-65" transform="translate(496.875 0)"/>
      <use xlink:href="#DejaVuSans-73" transform="translate(558.398438 0)"/>
     </g>
    </g>
    <g id="line2d_54">
     <path d="M 99 70.976562 
L 109 70.976562 
L 119 70.976562 
" style="fill: none; stroke: #ffffff; stroke-width: 1.5; stroke-linecap: square"/>
     <defs>
      <path id="m21a9329e84" d="M 0 5 
C 1.326016 5 2.597899 4.473168 3.535534 3.535534 
C 4.473168 2.597899 5 1.326016 5 0 
C 5 -1.326016 4.473168 -2.597899 3.535534 -3.535534 
C 2.597899 -4.473168 1.326016 -5 0 -5 
C -1.326016 -5 -2.597899 -4.473168 -3.535534 -3.535534 
C -4.473168 -2.597899 -5 -1.326016 -5 0 
C -5 1.326016 -4.473168 2.597899 -3.535534 3.535534 
C -2.597899 4.473168 -1.326016 5 0 5 
z
" style="stroke: #ffffff"/>
     </defs>
     <g>
      <use xlink:href="#m21a9329e84" x="109" y="70.976562" style="fill: #ff0000; stroke: #ffffff"/>
     </g>
    </g>
    <g id="text_31">
     <!-- NSFW Memes -->
     <g transform="translate(127 74.476562) scale(0.1 -0.1)">
      <defs>
       <path id="DejaVuSans-4e" d="M 628 4666 
L 1478 4666 
L 3547 763 
L 3547 4666 
L 4159 4666 
L 4159 0 
L 3309 0 
L 1241 3903 
L 1241 0 
L 628 0 
L 628 4666 
z
" transform="scale(0.015625)"/>
      </defs>
      <use xlink:href="#DejaVuSans-4e"/>
      <use xlink:href="#DejaVuSans-53" transform="translate(74.804688 0)"/>
      <use xlink:href="#DejaVuSans-46" transform="translate(138.28125 0)"/>
      <use xlink:href="#DejaVuSans-57" transform="translate(195.800781 0)"/>
      <use xlink:href="#DejaVuSans-20" transform="translate(294.677734 0)"/>
      <use xlink:href="#DejaVuSans-4d" transform="translate(326.464844 0)"/>
      <use xlink:href="#DejaVuSans-65" transform="translate(412.744141 0)"/>
      <use xlink:href="#DejaVuSans-6d" transform="translate(474.267578 0)"/>
      <use xlink:href="#DejaVuSans-65" transform="translate(571.679688 0)"/>
      <use xlink:href="#DejaVuSans-73" transform="translate(633.203125 0)"/>
     </g>
    </g>
    <g id="line2d_55"/>
    <g id="text_32">
     <!-- Numbers = Meme Rank -->
     <g transform="translate(127 89.154687) scale(0.1 -0.1)">
      <defs>
       <path id="DejaVuSans-62" d="M 3116 1747 
Q 3116 2381 2855 2742 
Q 2594 3103 2138 3103 
Q 1681 3103 1420 2742 
Q 1159 2381 1159 1747 
Q 1159 1113 1420 752 
Q 1681 391 2138 391 
Q 2594 391 2855 752 
Q 3116 1113 3116 1747 
z
M 1159 2969 
Q 1341 3281 1617 3432 
Q 1894 3584 2278 3584 
Q 2916 3584 3314 3078 
Q 3713 2572 3713 1747 
Q 3713 922 3314 415 
Q 2916 -91 2278 -91 
Q 1894 -91 1617 61 
Q 1341 213 1159 525 
L 1159 0 
L 581 0 
L 581 4863 
L 1159 4863 
L 1159 2969 
z
" transform="scale(0.015625)"/>
       <path id="DejaVuSans-3d" d="M 678 2906 
L 4684 2906 
L 4684 2381 
L 678 2381 
L 678 2906 
z
M 678 1631 
L 4684 1631 
L 4684 1100 
L 678 1100 
L 678 1631 
z
" transform="scale(0.015625)"/>
       <path id="DejaVuSans-52" d="M 2841 2188 
Q 3044 2119 3236 1894 
Q 3428 1669 3622 1275 
L 4263 0 
L 3584 0 
L 2988 1197 
Q 2756 1666 2539 1819 
Q 2322 1972 1947 1972 
L 1259 1972 
L 1259 0 
L 628 0 
L 628 4666 
L 2053 4666 
Q 2853 4666 3247 4331 
Q 3641 3997 3641 3322 
Q 3641 2881 3436 2590 
Q 3231 2300 2841 2188 
z
M 1259 4147 
L 1259 2491 
L 2053 2491 
Q 2509 2491 2742 2702 
Q 2975 2913 2975 3322 
Q 2975 3731 2742 3939 
Q 2509 4147 2053 4147 
L 1259 4147 
z
" transform="scale(0.015625)"/>
       <path id="DejaVuSans-6b" d="M 581 4863 
L 1159 4863 
L 1159 1991 
L 2875 3500 
L 3609 3500 
L 1753 1863 
L 3688 0 
L 2938 0 
L 1159 1709 
L 1159 0 
L 581 0 
L 581 4863 
z
" transform="scale(0.015625)"/>
      </defs>
      <use xlink:href="#DejaVuSans-4e"/>
      <use xlink:href="#DejaVuSans-75" transform="translate(74.804688 0)"/>
      <use xlink:href="#DejaVuSans-6d" transform="translate(138.183594 0)"/>
      <use xlink:href="#DejaVuSans-62" transform="translate(235.595703 0)"/>
      <use xlink:href="#DejaVuSans-65" transform="translate(299.072266 0)"/>
      <use xlink:href="#DejaVuSans-72" transform="translate(360.595703 0)"/>
      <use xlink:href="#DejaVuSans-73" transform="translate(401.708984 0)"/>
      <use xlink:href="#DejaVuSans-20" transform="translate(453.808594 0)"/>
      <use xlink:href="#DejaVuSans-3d" transform="translate(485.595703 0)"/>
      <use xlink:href="#DejaVuSans-20" transform="translate(569.384766 0)"/>
      <use xlink:href="#DejaVuSans-4d" transform="translate(601.171875 0)"/>
      <use xlink:href="#DejaVuSans-65" transform="translate(687.451172 0)"/>
      <use xlink:href="#DejaVuSans-6d" transform="translate(748.974609 0)"/>
      <use xlink:href="#DejaVuSans-65" transform="translate(846.386719 0)"/>
      <use xlink:href="#DejaVuSans-20" transform="translate(907.910156 0)"/>
      <use xlink:href="#DejaVuSans-52" transform="translate(939.697266 0)"/>
      <use xlink:href="#DejaVuSans-61" transform="translate(1006.929688 0)"/>
      <use xlink:href="#DejaVuSans-6e" transform="translate(1068.208984 0)"/>
      <use xlink:href="#DejaVuSans-6b" transform="translate(1131.587891 0)"/>
     </g>
    </g>
   </g>
  </g>
 </g>
 <defs>
  <clipPath id="pf72d6bec14">
   <rect x="90" y="43.2" width="558" height="277.2"/>
  </clipPath>
 </defs>
</svg>
